<svg width="48" height="48" viewBox="0 0 48 48" fill="none" xmlns="http://www.w3.org/2000/svg">
<path fill-rule="evenodd" clip-rule="evenodd" d="M21.974 3.45572C22.4331 4.56417 23.7039 5.09055 24.8123 4.63141C25.9208 4.17227 26.4472 2.90149 25.988 1.79304C25.5289 0.684587 24.2581 0.158212 23.1497 0.617348C22.0412 1.07648 21.5148 2.34727 21.974 3.45572ZM32.2518 6.41919C33.4516 6.41919 34.4242 5.44658 34.4242 4.2468C34.4242 3.04702 33.4516 2.0744 32.2518 2.0744C31.052 2.0744 30.0794 3.04702 30.0794 4.2468C30.0794 5.44658 31.052 6.41919 32.2518 6.41919ZM22.0902 46.6584C21.6311 45.5499 22.1574 44.2791 23.2659 43.82C24.3743 43.3609 25.6451 43.8872 26.1043 44.9957C26.5634 46.1041 26.037 47.3749 24.9286 47.8341C23.8201 48.2932 22.5493 47.7668 22.0902 46.6584ZM17.2552 5.82745C18.1036 4.97908 18.1036 3.60359 17.2552 2.75522C16.4069 1.90685 15.0314 1.90685 14.183 2.75522C13.3346 3.60359 13.3346 4.97908 14.183 5.82745C15.0314 6.67582 16.4069 6.67582 17.2552 5.82745ZM30.8232 45.6965C29.9748 44.8481 29.9748 43.4727 30.8232 42.6243C31.6716 41.7759 33.0471 41.7759 33.8954 42.6243C34.7438 43.4727 34.7438 44.8481 33.8954 45.6965C33.0471 46.5449 31.6716 46.5449 30.8232 45.6965ZM6.23266 16.0129C6.23266 14.8131 5.26005 13.8405 4.06027 13.8405C2.86049 13.8405 1.88787 14.8131 1.88787 16.0129C1.88787 17.2127 2.86049 18.1853 4.06027 18.1853C5.26005 18.1853 6.23266 17.2127 6.23266 16.0129ZM44.018 34.6105C42.8182 34.6105 41.8456 33.6379 41.8456 32.4381C41.8456 31.2384 42.8182 30.2658 44.018 30.2658C45.2178 30.2658 46.1904 31.2384 46.1904 32.4381C46.1904 33.6379 45.2178 34.6105 44.018 34.6105ZM5.64089 31.0098C4.79251 30.1615 3.41703 30.1615 2.56866 31.0098C1.72028 31.8582 1.72028 33.2337 2.56866 34.0821C3.41703 34.9305 4.79251 34.9305 5.64089 34.0821C6.48926 33.2337 6.48926 31.8582 5.64089 31.0098ZM45.51 17.4419C44.6616 18.2903 43.2861 18.2903 42.4377 17.4419C41.5894 16.5935 41.5894 15.2181 42.4377 14.3697C43.2861 13.5213 44.6616 13.5213 45.51 14.3697C46.3583 15.2181 46.3583 16.5935 45.51 17.4419ZM15.8266 42.0322C14.6269 42.0322 13.6542 43.0048 13.6542 44.2046C13.6542 45.4044 14.6269 46.377 15.8266 46.377C17.0264 46.377 17.999 45.4044 17.999 44.2046C17.999 43.0048 17.0264 42.0322 15.8266 42.0322ZM43.6335 24.9989C43.1743 23.8905 43.7007 22.6197 44.8091 22.1606C45.9176 21.7014 47.1884 22.2278 47.6475 23.3363C48.1067 24.4447 47.5803 25.7155 46.4718 26.1746C45.3634 26.6338 44.0926 26.1074 43.6335 24.9989ZM4.44477 23.4525C3.98563 22.344 2.71485 21.8176 1.60639 22.2768C0.497942 22.7359 -0.0284334 24.0067 0.430703 25.1151C0.889839 26.2236 2.16062 26.75 3.26907 26.2908C4.37753 25.8317 4.9039 24.5609 4.44477 23.4525ZM38.5231 41.4658C37.4147 41.0067 36.8883 39.7359 37.3474 38.6274C37.8066 37.519 39.0774 36.9926 40.1858 37.4517C41.2943 37.9109 41.8206 39.1817 41.3615 40.2901C40.9024 41.3986 39.6316 41.9249 38.5231 41.4658ZM10.731 9.82399C11.1901 8.71554 10.6638 7.44476 9.55532 6.98562C8.44687 6.52649 7.17608 7.05286 6.71695 8.16131C6.25781 9.26977 6.78419 10.5405 7.89264 10.9997C9.00109 11.4588 10.2719 10.9324 10.731 9.82399ZM38.4408 10.9173C37.3323 10.4582 36.8059 9.18739 37.2651 8.07894C37.7242 6.97049 38.995 6.44411 40.1035 6.90325C41.2119 7.36238 41.7383 8.63317 41.2791 9.74162C40.82 10.8501 39.5492 11.3764 38.4408 10.9173ZM9.63735 37.5341C8.52889 37.075 7.25811 37.6013 6.79898 38.7098C6.33984 39.8182 6.86622 41.089 7.97467 41.5482C9.08312 42.0073 10.3539 41.4809 10.813 40.3725C11.2722 39.264 10.7458 37.9932 9.63735 37.5341Z" fill="#2378C3"/>
<path fill-rule="evenodd" clip-rule="evenodd" d="M21.3242 12.8853C21.3242 14.385 22.54 15.6008 24.0397 15.6008C25.5394 15.6008 26.7552 14.385 26.7552 12.8853C26.7552 11.3856 25.5394 10.1698 24.0397 10.1698C22.54 10.1698 21.3242 11.3856 21.3242 12.8853ZM26.755 35.5661C26.755 34.0664 25.5392 32.8507 24.0395 32.8507C22.5398 32.8507 21.324 34.0664 21.324 35.5661C21.324 37.0659 22.5398 38.2816 24.0395 38.2816C25.5392 38.2816 26.755 37.0659 26.755 35.5661ZM32.6645 24.2259C32.6645 22.7261 33.8803 21.5104 35.38 21.5104C36.8797 21.5104 38.0955 22.7261 38.0955 24.2259C38.0955 25.7256 36.8797 26.9413 35.38 26.9413C33.8803 26.9413 32.6645 25.7256 32.6645 24.2259ZM12.6991 26.9411C14.1989 26.9411 15.4146 25.7253 15.4146 24.2256C15.4146 22.7258 14.1989 21.5101 12.6991 21.5101C11.1994 21.5101 9.98364 22.7258 9.98364 24.2256C9.98364 25.7253 11.1994 26.9411 12.6991 26.9411ZM30.1383 30.3243C31.1988 29.2639 32.9181 29.2639 33.9786 30.3243C35.0391 31.3848 35.0391 33.1042 33.9786 34.1646C32.9181 35.2251 31.1988 35.2251 30.1383 34.1646C29.0778 33.1042 29.0778 31.3848 30.1383 30.3243ZM14.1008 18.1271C15.1613 19.1876 16.8806 19.1876 17.9411 18.1271C19.0016 17.0667 19.0016 15.3473 17.9411 14.2868C16.8806 13.2264 15.1613 13.2264 14.1008 14.2868C13.0404 15.3473 13.0404 17.0667 14.1008 18.1271ZM30.1381 18.1273C29.0776 17.0668 29.0776 15.3474 30.1381 14.287C31.1986 13.2265 32.9179 13.2265 33.9784 14.287C35.0389 15.3474 35.0389 17.0668 33.9784 18.1273C32.9179 19.1877 31.1986 19.1877 30.1381 18.1273ZM17.9409 34.1648C19.0014 33.1043 19.0014 31.385 17.9409 30.3245C16.8805 29.264 15.1611 29.264 14.1006 30.3245C13.0402 31.385 13.0402 33.1043 14.1006 34.1648C15.1611 35.2253 16.8805 35.2253 17.9409 34.1648Z" fill="#2378C3"/>
<circle cx="24.5" cy="24.5" r="2.5" fill="#2378C3"/>
</svg>
