<svg width="131" height="132" viewBox="0 0 131 132" fill="none" xmlns="http://www.w3.org/2000/svg">
<path fill-rule="evenodd" clip-rule="evenodd" d="M62.9597 0.90792C59.9102 2.17107 58.4621 5.66718 59.7252 8.7167C60.9884 11.7662 64.4845 13.2144 67.534 11.9512C70.5835 10.6881 72.0316 7.19194 70.7685 4.14242C69.5053 1.0929 66.0092 -0.355231 62.9597 0.90792ZM88.0011 16.8697C91.3019 16.8697 93.9777 14.1939 93.9777 10.8931C93.9777 7.59236 91.3019 4.91655 88.0011 4.91655C84.7003 4.91655 82.0245 7.59236 82.0245 10.8931C82.0245 14.1939 84.7003 16.8697 88.0011 16.8697ZM60.045 127.574C58.7818 124.524 60.2299 121.028 63.2795 119.765C66.329 118.502 69.8251 119.95 71.0882 122.999C72.3514 126.049 70.9033 129.545 67.8537 130.808C64.8042 132.071 61.3081 130.623 60.045 127.574ZM46.7433 15.2417C49.0773 12.9077 49.0773 9.12355 46.7433 6.78955C44.4093 4.45555 40.6251 4.45555 38.2911 6.78955C35.9571 9.12355 35.9571 12.9077 38.2911 15.2417C40.6251 17.5757 44.4093 17.5757 46.7433 15.2417ZM84.0708 124.927C81.7368 122.593 81.7368 118.809 84.0708 116.475C86.4048 114.141 90.189 114.141 92.523 116.475C94.857 118.809 94.857 122.593 92.523 124.927C90.189 127.261 86.4048 127.261 84.0708 124.927ZM16.4185 43.2635C16.4185 39.9627 13.7427 37.2869 10.4419 37.2869C7.14111 37.2869 4.4653 39.9627 4.4653 43.2635C4.4653 46.5642 7.14111 49.24 10.4419 49.24C13.7427 49.24 16.4185 46.5642 16.4185 43.2635ZM120.372 94.4283C117.071 94.4283 114.395 91.7525 114.395 88.4517C114.395 85.1509 117.071 82.4751 120.372 82.4751C123.672 82.4751 126.348 85.1509 126.348 88.4517C126.348 91.7525 123.672 94.4283 120.372 94.4283ZM14.7905 84.5222C12.4565 82.1882 8.67231 82.1882 6.33831 84.5222C4.00431 86.8562 4.00431 90.6404 6.33831 92.9744C8.67231 95.3084 12.4565 95.3084 14.7905 92.9744C17.1245 90.6404 17.1245 86.8562 14.7905 84.5222ZM124.476 47.1948C122.142 49.5288 118.358 49.5288 116.024 47.1948C113.69 44.8608 113.69 41.0766 116.024 38.7426C118.358 36.4086 122.142 36.4086 124.476 38.7426C126.81 41.0766 126.81 44.8608 124.476 47.1948ZM42.813 114.846C39.5123 114.846 36.8365 117.522 36.8365 120.823C36.8365 124.124 39.5123 126.8 42.813 126.8C46.1138 126.8 48.7896 124.124 48.7896 120.823C48.7896 117.522 46.1138 114.846 42.813 114.846ZM127.122 71.2198C124.073 72.483 120.577 71.0348 119.314 67.9853C118.051 64.9358 119.499 61.4397 122.548 60.1765C125.598 58.9134 129.094 60.3615 130.357 63.411C131.62 66.4606 130.172 69.9567 127.122 71.2198ZM11.4998 63.7308C10.2366 60.6812 6.74053 59.2331 3.69101 60.4962C0.641489 61.7594 -0.806647 65.2555 0.456504 68.305C1.71966 71.3545 5.21576 72.8027 8.26528 71.5395C11.3148 70.2764 12.7629 66.7803 11.4998 63.7308ZM105.254 113.288C102.205 112.025 100.757 108.529 102.02 105.479C103.283 102.43 106.779 100.982 109.829 102.245C112.878 103.508 114.326 107.004 113.063 110.054C111.8 113.103 108.304 114.551 105.254 113.288ZM28.7942 26.2368C30.0573 23.1873 28.6092 19.6912 25.5597 18.428C22.5102 17.1649 19.0141 18.613 17.7509 21.6625C16.4878 24.712 17.9359 28.2081 20.9854 29.4713C24.0349 30.7344 27.531 29.2863 28.7942 26.2368ZM112.837 26.0102C111.573 29.0597 108.077 30.5079 105.028 29.2447C101.978 27.9815 100.53 24.4854 101.793 21.4359C103.056 18.3864 106.553 16.9383 109.602 18.2014C112.652 19.4646 114.1 22.9607 112.837 26.0102ZM25.7853 102.471C22.7358 101.208 19.2397 102.656 17.9765 105.706C16.7133 108.755 18.1615 112.252 21.211 113.515C24.2605 114.778 27.7566 113.33 29.0198 110.28C30.2829 107.231 28.8348 103.735 25.7853 102.471Z" fill="#BFBFBF"/>
<path fill-rule="evenodd" clip-rule="evenodd" d="M57.9379 34.6588C57.9379 38.7848 61.2826 42.1296 65.4086 42.1296C69.5346 42.1296 72.8793 38.7848 72.8793 34.6588C72.8793 30.5329 69.5346 27.1881 65.4086 27.1881C61.2826 27.1881 57.9379 30.5329 57.9379 34.6588ZM72.8786 97.0572C72.8786 92.9313 69.5339 89.5865 65.4079 89.5865C61.282 89.5865 57.9372 92.9313 57.9372 97.0572C57.9372 101.183 61.2819 104.528 65.4079 104.528C69.5339 104.528 72.8786 101.183 72.8786 97.0572ZM89.1368 65.8584C89.1368 61.7324 92.4815 58.3877 96.6075 58.3877C100.733 58.3877 104.078 61.7324 104.078 65.8584C104.078 69.9844 100.733 73.3291 96.6075 73.3291C92.4815 73.3291 89.1368 69.9844 89.1368 65.8584ZM34.209 73.3283C38.335 73.3283 41.6797 69.9836 41.6797 65.8576C41.6797 61.7317 38.335 58.3869 34.209 58.3869C30.083 58.3869 26.7383 61.7317 26.7383 65.8576C26.7383 69.9836 30.083 73.3283 34.209 73.3283ZM82.1867 82.6362C85.1042 79.7187 89.8344 79.7187 92.7519 82.6362C95.6694 85.5537 95.6694 90.2839 92.7519 93.2014C89.8344 96.1189 85.1042 96.1189 82.1867 93.2014C79.2692 90.2839 79.2692 85.5537 82.1867 82.6362ZM38.0652 49.0799C40.9827 51.9974 45.7129 51.9974 48.6304 49.0799C51.5479 46.1624 51.5479 41.4322 48.6304 38.5147C45.7129 35.5972 40.9827 35.5972 38.0652 38.5147C35.1477 41.4322 35.1477 46.1624 38.0652 49.0799ZM82.1862 49.0802C79.2687 46.1627 79.2687 41.4325 82.1862 38.515C85.1037 35.5975 89.8339 35.5975 92.7514 38.515C95.6689 41.4325 95.6689 46.1627 92.7514 49.0802C89.8339 51.9977 85.1037 51.9977 82.1862 49.0802ZM48.6299 93.202C51.5474 90.2845 51.5474 85.5542 48.6299 82.6367C45.7124 79.7192 40.9822 79.7192 38.0647 82.6367C35.1472 85.5542 35.1472 90.2844 38.0647 93.202C40.9822 96.1194 45.7124 96.1194 48.6299 93.202Z" fill="#828282"/>
<circle cx="66.0601" cy="66" r="7" fill="black"/>
</svg>
