<svg width="131" height="131" viewBox="0 0 131 131" fill="none" xmlns="http://www.w3.org/2000/svg">
<path fill-rule="evenodd" clip-rule="evenodd" d="M62.9597 0.456504C59.9102 1.71966 58.4621 5.21577 59.7252 8.26528C60.9884 11.3148 64.4845 12.7629 67.534 11.4998C70.5835 10.2366 72.0316 6.74052 70.7685 3.69101C69.5053 0.641489 66.0092 -0.806647 62.9597 0.456504ZM88.0011 16.4183C91.3019 16.4183 93.9777 13.7425 93.9777 10.4417C93.9777 7.14094 91.3019 4.46513 88.0011 4.46513C84.7003 4.46513 82.0245 7.14094 82.0245 10.4417C82.0245 13.7425 84.7003 16.4183 88.0011 16.4183ZM60.045 127.122C58.7818 124.073 60.2299 120.577 63.2795 119.313C66.329 118.05 69.8251 119.498 71.0882 122.548C72.3514 125.597 70.9033 129.094 67.8537 130.357C64.8042 131.62 61.3081 130.172 60.045 127.122ZM46.7433 14.7903C49.0773 12.4563 49.0773 8.67214 46.7433 6.33814C44.4093 4.00414 40.6251 4.00414 38.2911 6.33814C35.9571 8.67214 35.9571 12.4563 38.2911 14.7903C40.6251 17.1243 44.4093 17.1243 46.7433 14.7903ZM84.0708 124.476C81.7368 122.142 81.7368 118.358 84.0708 116.024C86.4048 113.69 90.189 113.69 92.523 116.024C94.857 118.358 94.857 122.142 92.523 124.476C90.189 126.81 86.4048 126.81 84.0708 124.476ZM16.4185 42.812C16.4185 39.5113 13.7427 36.8355 10.4419 36.8355C7.14111 36.8355 4.4653 39.5113 4.4653 42.812C4.4653 46.1128 7.14111 48.7886 10.4419 48.7886C13.7427 48.7886 16.4185 46.1128 16.4185 42.812ZM120.372 93.9769C117.071 93.9769 114.395 91.3011 114.395 88.0003C114.395 84.6995 117.071 82.0237 120.372 82.0237C123.672 82.0237 126.348 84.6995 126.348 88.0003C126.348 91.3011 123.672 93.9769 120.372 93.9769ZM14.7905 84.0708C12.4565 81.7368 8.67231 81.7368 6.33831 84.0708C4.00431 86.4048 4.00431 90.189 6.33831 92.523C8.67231 94.857 12.4565 94.857 14.7905 92.523C17.1245 90.189 17.1245 86.4048 14.7905 84.0708ZM124.476 46.7434C122.142 49.0774 118.358 49.0774 116.024 46.7434C113.69 44.4094 113.69 40.6252 116.024 38.2912C118.358 35.9572 122.142 35.9572 124.476 38.2912C126.81 40.6252 126.81 44.4094 124.476 46.7434ZM42.813 114.395C39.5123 114.395 36.8365 117.071 36.8365 120.372C36.8365 123.672 39.5123 126.348 42.813 126.348C46.1138 126.348 48.7896 123.672 48.7896 120.372C48.7896 117.071 46.1138 114.395 42.813 114.395ZM127.122 70.7684C124.073 72.0316 120.577 70.5834 119.314 67.5339C118.051 64.4844 119.499 60.9883 122.548 59.7251C125.598 58.462 129.094 59.9101 130.357 62.9596C131.62 66.0091 130.172 69.5053 127.122 70.7684ZM11.4998 63.2793C10.2366 60.2298 6.74053 58.7817 3.69101 60.0448C0.641489 61.308 -0.806647 64.8041 0.456504 67.8536C1.71966 70.9031 5.21576 72.3513 8.26528 71.0881C11.3148 69.825 12.7629 66.3288 11.4998 63.2793ZM105.254 112.837C102.205 111.574 100.757 108.077 102.02 105.028C103.283 101.978 106.779 100.53 109.829 101.793C112.878 103.057 114.326 106.553 113.063 109.602C111.8 112.652 108.304 114.1 105.254 112.837ZM28.7942 25.7854C30.0573 22.7358 28.6092 19.2397 25.5597 17.9766C22.5102 16.7134 19.0141 18.1616 17.7509 21.2111C16.4878 24.2606 17.9359 27.7567 20.9854 29.0199C24.0349 30.283 27.531 28.8349 28.7942 25.7854ZM112.837 25.5588C111.573 28.6083 108.077 30.0564 105.028 28.7933C101.978 27.5301 100.53 24.034 101.793 20.9845C103.056 17.935 106.553 16.4869 109.602 17.75C112.652 19.0132 114.1 22.5093 112.837 25.5588ZM25.7853 102.02C22.7358 100.757 19.2397 102.205 17.9765 105.255C16.7133 108.304 18.1615 111.8 21.211 113.063C24.2605 114.326 27.7566 112.878 29.0198 109.829C30.2829 106.779 28.8348 103.283 25.7853 102.02Z" fill="#BFEEF8"/>
<path fill-rule="evenodd" clip-rule="evenodd" d="M57.9376 34.2074C57.9376 38.3334 61.2824 41.6781 65.4083 41.6781C69.5343 41.6781 72.8791 38.3334 72.8791 34.2074C72.8791 30.0815 69.5343 26.7367 65.4083 26.7367C61.2824 26.7367 57.9376 30.0815 57.9376 34.2074ZM72.8784 96.6058C72.8784 92.4799 69.5336 89.1351 65.4077 89.1351C61.2817 89.1351 57.9369 92.4799 57.9369 96.6058C57.9369 100.732 61.2817 104.077 65.4077 104.077C69.5336 104.077 72.8784 100.732 72.8784 96.6058ZM89.1365 65.407C89.1365 61.281 92.4813 57.9363 96.6073 57.9363C100.733 57.9363 104.078 61.281 104.078 65.407C104.078 69.533 100.733 72.8777 96.6073 72.8777C92.4813 72.8777 89.1365 69.533 89.1365 65.407ZM34.2088 72.8769C38.3347 72.8769 41.6795 69.5322 41.6795 65.4062C41.6795 61.2802 38.3347 57.9355 34.2088 57.9355C30.0828 57.9355 26.738 61.2802 26.738 65.4062C26.738 69.5322 30.0828 72.8769 34.2088 72.8769ZM82.1865 82.1848C85.104 79.2673 89.8342 79.2673 92.7517 82.1848C95.6692 85.1023 95.6692 89.8325 92.7517 92.75C89.8342 95.6675 85.104 95.6675 82.1865 92.75C79.269 89.8325 79.269 85.1023 82.1865 82.1848ZM38.065 48.6285C40.9825 51.546 45.7127 51.546 48.6302 48.6285C51.5477 45.711 51.5477 40.9808 48.6302 38.0633C45.7127 35.1458 40.9825 35.1458 38.065 38.0633C35.1475 40.9808 35.1475 45.711 38.065 48.6285ZM82.186 48.6288C79.2685 45.7113 79.2685 40.9811 82.186 38.0636C85.1035 35.1461 89.8337 35.1461 92.7512 38.0636C95.6687 40.9811 95.6687 45.7113 92.7512 48.6288C89.8337 51.5463 85.1035 51.5463 82.186 48.6288ZM48.6297 92.7505C51.5472 89.833 51.5472 85.1028 48.6297 82.1853C45.7122 79.2678 40.982 79.2678 38.0645 82.1853C35.147 85.1028 35.147 89.833 38.0645 92.7505C40.982 95.668 45.7122 95.668 48.6297 92.7505Z" fill="#82DFF1"/>
<circle cx="66.0598" cy="65.5486" r="7" fill="#00BDE3"/>
</svg>
