<svg width="218" height="129" viewBox="0 0 218 129" fill="none" xmlns="http://www.w3.org/2000/svg">
<path d="M0 0H209.872V128.33H0V0Z" fill="white"/>
<path d="M2.06152 2.09896H207.81V126.106H2.06152V2.09896Z" fill="#105EAB"/>
<path d="M86.5252 124.08L207.767 1.2553V0.0262127H207.158L84.7106 124.08H86.5252Z" fill="white"/>
<path d="M10.0796 124.081L18.2749 0.0263805H16.9852L8.78992 124.081H10.0796Z" fill="white"/>
<path d="M16.636 124.08L34.3379 0.0262127H33.0266L15.335 124.08H16.636Z" fill="white"/>
<path d="M23.6513 124.08L51.3402 0.0262127H50.0287L22.3285 124.08H23.6513Z" fill="white"/>
<path d="M31.3546 124.08L70.877 0.0262127H69.5455L30.0103 124.08H31.3546Z" fill="white"/>
<path d="M38.6225 124.08L89.3967 0.0262127H88.0004L37.2217 124.08H38.6225Z" fill="white"/>
<path d="M46.9792 124.08L110.487 0.0262127H109.066L45.5265 124.08H46.9792Z" fill="white"/>
<path d="M142.218 0.0254345H140.677L58.4547 124.08H59.9926L142.218 0.0254345Z" fill="white"/>
<path d="M171.537 0.0254345H169.917L69.9594 124.08H71.6096L171.537 0.0254345Z" fill="white"/>
<path d="M207.766 46.9667V45.3367L108.65 124.08H110.694L207.766 46.9667Z" fill="white"/>
<path d="M207.766 81.0909V79.5777L136.559 124.08H138.996L207.766 81.0909Z" fill="white"/>
<path d="M207.767 113.287V111.858L181.565 124.079H184.605L207.767 113.287Z" fill="white"/>
<path d="M63.4751 74.6065C60.929 77.0473 54.531 79.6772 49.8326 79.6326C36.1627 79.6181 29.7765 68.001 29.6626 50.2543C29.7534 33.4599 36.6461 22.7776 48.4853 22.7547C56.9518 22.7662 61.0674 27.6737 63.3163 30.6021L65.7933 33.8984V18.6345L65.0014 18.2682C60.1211 15.9991 53.9252 14.9372 48.2776 14.9272C27.024 14.9732 10.8038 30.2085 10.7705 51.7142C10.8038 73.7728 26.1339 87.6273 48.0915 87.6619H48.2054C59.107 87.6619 64.6997 84.3714 67.6499 82.1107L68.5227 81.4459L64.8845 73.2808L63.4751 74.6065ZM123.03 22.8629C115.918 17.6435 107.012 16.0999 99.4139 16.0999H73.4562V86.4126H101.103C114.513 86.3822 135.232 77.8739 135.266 51.0622C135.289 37.0261 130.165 28.0791 123.03 22.8629ZM90.5291 78.2562V24.0413C103.084 24.3761 116.446 25.9052 116.683 51.3492C116.48 76.0606 102.811 77.9172 90.5291 78.2562ZM194.481 73.2852L193.072 74.6094C190.524 77.0518 184.144 79.6757 179.451 79.6281C165.781 79.6281 159.389 67.9995 159.275 50.2616C159.367 33.4557 166.269 22.7762 178.124 22.7531C186.574 22.7647 190.7 27.6766 192.906 30.6021L195.393 33.9433V18.6389L194.605 18.2695C189.749 15.9933 183.554 14.9417 177.883 14.9315C156.635 14.9748 140.454 30.2098 140.421 51.7186C140.454 73.7828 155.746 87.6257 177.72 87.6661H177.889C188.756 87.6661 194.324 84.3714 197.277 82.1152L198.151 81.4472L194.481 73.2852Z" fill="white"/>
<path d="M211.474 122.641H213.955V123.007H212.916V125.67H212.524V123.007H211.474V122.641Z" fill="#0033A0"/>
<path d="M216.838 125.667V123.105L215.976 125.665H215.57L214.718 123.105H214.706C214.706 123.392 214.718 123.787 214.718 123.852V125.667H214.314V122.64H214.891L215.775 125.202H215.787L216.638 122.64H217.229V125.667H216.838Z" fill="#0033A0"/>
</svg>
