<svg width="122" height="120" viewBox="0 0 122 120" fill="none" xmlns="http://www.w3.org/2000/svg">
<path d="M69.5515 0.786281C88.7538 3.62748 107.974 12.3091 116.818 29.5889C125.453 46.4617 119.938 66.2705 111.835 83.4057C104.255 99.4379 92.0517 113.194 74.9935 118.043C57.8948 122.903 39.73 118.396 25.311 108C10.93 97.6313 1.56449 81.7978 0.205026 64.1208C-1.20158 45.8307 4.613 27.3618 18.158 14.9911C31.9655 2.38067 51.0535 -1.95071 69.5515 0.786281Z" fill="#FA9441"/>
<path d="M72 55L57.9999 68L51 61.5" stroke="#162E51" stroke-width="4" stroke-linecap="round" stroke-linejoin="round"/>
<path d="M61.5 84C74.4787 84 85 73.4787 85 60.5C85 47.5213 74.4787 37 61.5 37C48.5213 37 38 47.5213 38 60.5C38 73.4787 48.5213 84 61.5 84Z" stroke="#162E51" stroke-width="4" stroke-linecap="round" stroke-linejoin="round"/>
</svg>
