<svg width="442" height="311" viewBox="0 0 442 311" fill="none" xmlns="http://www.w3.org/2000/svg">
<path opacity="0.4" d="M328.655 3.067C366.831 7.63749 406.073 20.0517 426.448 52.7225C447.587 86.6161 445.353 129.456 430.652 166.611C415.976 203.703 387.597 233.966 349.786 246.48C310.925 259.34 267.235 255.651 234.027 231.683C201.654 208.316 187.317 168.269 186.067 128.31C184.886 90.5304 199.321 53.8422 227.687 28.9268C255.17 4.78664 292.365 -1.27758 328.655 3.067Z" fill="#E1F3F8"/>
<path fill-rule="evenodd" clip-rule="evenodd" d="M118.316 61.0797C115.357 57.5978 113.354 53.3308 113.689 48.5493C114.653 34.7728 133.782 37.8035 137.503 44.7567C141.223 51.7099 140.781 69.3473 135.972 70.5901C134.055 71.0857 129.969 69.8716 125.811 67.359L128.421 85.8705H113.011L118.316 61.0797Z" fill="#B28B67"/>
<path fill-rule="evenodd" clip-rule="evenodd" d="M126.582 50.0709C127.172 58.309 128.732 62.4281 131.263 62.4281C135.06 62.4281 138.281 60.0117 139.947 60.0117C141.161 60.0117 140.89 61.5353 140.085 62.6649C139.421 63.5969 136.187 64.4952 136.187 65.94C136.187 67.3849 138.742 66.2671 138.742 67.124C138.742 68.5415 139.191 71.2065 136.737 71.2065C134.254 71.2065 127.133 70.2992 125.913 66.604C125.126 64.2192 124.617 59.2775 124.386 51.7789C124.235 51.761 124.082 51.7517 123.926 51.7517C121.799 51.7517 120.074 53.481 120.074 55.6142C120.074 56.6972 120.518 57.676 121.234 58.3774C120.343 59.6389 119.344 60.9567 118.199 62.3165C113.898 59.7295 110.707 52.1566 114.911 44.8818C116.074 41.318 118.705 39.4144 121.812 38.5305C124.329 37.4749 126.942 37.3559 129.148 37.9887C133.472 38.3606 137.333 39.6824 138.427 40.4674C138.427 44.5715 137.634 45.7891 130.859 45.6818C129.194 46.5632 127.915 48.081 126.582 50.0709Z" fill="#191847"/>
<path fill-rule="evenodd" clip-rule="evenodd" d="M107.874 139.302L131.153 221.204L148.138 281.571H160.526L142.477 139.302H107.874Z" fill="#191847"/>
<path fill-rule="evenodd" clip-rule="evenodd" d="M101.648 139.302C101.11 181.515 99.2735 204.54 98.7081 208.375C98.1428 212.21 89.5943 236.609 73.0628 281.571H85.8961C106.942 238.437 118.69 214.039 121.141 208.375C123.592 202.711 131.155 179.687 142.547 139.302H101.648Z" fill="#2F3676"/>
<path fill-rule="evenodd" clip-rule="evenodd" d="M71.9158 293.158L72.5579 279.639H86.0421C92.4359 284.146 100.783 287.793 111.084 290.583V293.158H86.6842L78.3368 291.871V293.158H71.9158Z" fill="#191847"/>
<path fill-rule="evenodd" clip-rule="evenodd" d="M146.4 293.158L147.042 279.639H160.526C166.92 284.146 175.268 287.793 185.568 290.583V293.158H161.168L152.821 291.871V293.158H146.4Z" fill="#191847"/>
<path fill-rule="evenodd" clip-rule="evenodd" d="M162.041 128.751L181.424 145.225C186.861 147.113 191.361 149.303 194.923 151.795C195.746 152.659 196.694 154.358 193.071 153.822C189.448 153.286 185.613 152.885 185.024 154.095C184.434 155.306 186.535 156.95 185.402 158.559C184.646 159.632 181.642 156.598 176.39 149.458L156.743 139.628L162.041 128.751ZM74.2705 121.622L85.6433 123.278C73.4356 149.832 66.8909 163.876 66.0092 165.408C64.0254 168.857 66.3585 174.863 67.2705 178.042C62.6612 179.377 64.1333 172.237 58.3051 174.018C52.9855 175.643 48.5956 179.328 43.327 174.946C42.6792 174.408 42.1336 172.646 44.1924 171.62C49.3217 169.063 56.8528 164.384 58.0235 162.659C59.6199 160.308 65.0356 146.629 74.2705 121.622Z" fill="#B28B67"/>
<path fill-rule="evenodd" clip-rule="evenodd" d="M121.804 75.1406L128.851 72.8042C138.411 96.7454 152.667 119.91 176.487 139.476L170.597 149.664C149.662 137.301 129.846 127.697 121.804 109.145C119.105 102.919 121.584 82.5855 121.804 75.1406Z" fill="#C5CFD6"/>
<path fill-rule="evenodd" clip-rule="evenodd" d="M97.6 142.521C117.787 144.666 133.676 144.666 145.267 142.521C146.704 142.255 146.93 139.844 146.264 138.208C135.893 112.731 128.781 90.5001 128.781 72.8041C126.878 73.7659 123.547 73.9101 118.789 73.2365C106.003 91.4729 100.125 112.397 97.6 142.521Z" fill="#323337"/>
<path fill-rule="evenodd" clip-rule="evenodd" d="M115.611 71.708H120.94C122.18 79.0242 126.094 178.096 138.175 210.504H72.8053C74.2225 180.815 85.4019 145.152 96.7266 115.308C86.7128 124.495 77.9848 140.062 70.5429 162.009L58.2984 158.857C67.4026 119.526 86.1207 90.6181 114.453 72.1323C114.514 71.9902 114.575 71.8488 114.636 71.708H115.108C115.281 71.5964 115.455 71.4851 115.629 71.3741L115.611 71.708Z" fill="#DDE3E9"/>
<path d="M259.477 80.3828C258.266 80.3828 257.383 80.8828 256.938 81.8203H256.797V80.5234H255.484V91.8594H256.836V87.6875H256.984C257.352 88.6172 258.25 89.1406 259.477 89.1406C261.438 89.1406 262.719 87.7266 262.719 85.5547V83.9766C262.719 81.7969 261.438 80.3828 259.477 80.3828ZM259.094 81.6016C260.492 81.6016 261.383 82.6016 261.383 84.1641V85.3828C261.383 86.9453 260.492 87.9531 259.094 87.9531C257.695 87.9531 256.805 86.9531 256.805 85.3828V84.1641C256.805 82.6016 257.695 81.6016 259.094 81.6016ZM272.539 89V87.8984H269.742V77.1953H265.539V78.2969H268.414V87.8984H265.516V89H272.539ZM277.867 89.1484C279.102 89.1484 280.023 88.6406 280.43 87.7344H280.562V89.0078H281.828V83.2031C281.828 81.4375 280.688 80.4219 278.695 80.4219C276.961 80.4219 275.648 81.3516 275.492 82.7109H276.797C277.016 81.9844 277.703 81.5703 278.68 81.5703C279.859 81.5703 280.508 82.1562 280.508 83.2188V83.9844L278.18 84.1016C276.25 84.2031 275.172 85.0938 275.172 86.5938C275.172 88.1328 276.25 89.1484 277.867 89.1484ZM278.25 87.9844C277.18 87.9844 276.516 87.4375 276.516 86.5469C276.516 85.6641 277.141 85.1562 278.328 85.1016L280.508 85V86C280.508 87.1328 279.531 87.9844 278.25 87.9844ZM292.148 83.1641C291.93 81.4219 290.648 80.3594 288.773 80.3594C286.469 80.3594 285.125 81.7734 285.125 84.2031V85.3125C285.125 87.7422 286.469 89.1562 288.773 89.1562C290.648 89.1562 291.938 88.1016 292.148 86.375H290.836C290.672 87.3438 289.844 87.9609 288.75 87.9609C287.273 87.9609 286.453 86.9609 286.453 85.1406V84.375C286.453 82.5547 287.273 81.5469 288.75 81.5469C289.844 81.5469 290.672 82.1719 290.836 83.1641H292.148ZM298.602 81.5078C299.969 81.5078 300.797 82.4844 300.797 84.1016H296.336C296.336 82.4766 297.188 81.5078 298.602 81.5078ZM300.797 86.8125C300.562 87.5547 299.773 88.0078 298.703 88.0078C297.258 88.0078 296.336 87.0078 296.336 85.4531V85.1094H302.109V84.2812C302.109 81.8281 300.812 80.3672 298.609 80.3672C296.453 80.3672 295.023 81.8359 295.023 84.0703V85.3438C295.023 87.7578 296.375 89.1562 298.703 89.1562C300.484 89.1562 301.828 88.2109 302.086 86.8125H300.797ZM304.922 89H306.25V84.0156C306.25 82.5703 307.195 81.5938 308.594 81.5938C309.922 81.5938 310.547 82.3203 310.547 83.8438V89H311.875V83.5078C311.875 81.4844 310.875 80.375 309.031 80.375C307.734 80.375 306.758 80.9688 306.312 82.0234H306.203V77.1953H304.922V89ZM318.289 89.1562C320.531 89.1562 321.961 87.6953 321.961 85.4062V84.125C321.961 81.8359 320.531 80.375 318.289 80.375C316.047 80.375 314.617 81.8359 314.617 84.125V85.4062C314.617 87.6953 316.047 89.1562 318.289 89.1562ZM318.289 81.5469C319.742 81.5469 320.648 82.5781 320.648 84.2422V85.2812C320.648 86.9531 319.742 87.9766 318.289 87.9766C316.836 87.9766 315.93 86.9531 315.93 85.2812V84.2422C315.93 82.5781 316.836 81.5469 318.289 81.5469ZM331.883 89V87.8984H329.086V77.1953H324.883V78.2969H327.758V87.8984H324.859V89H331.883ZM335.633 84.1406C335.633 82.5781 336.531 81.5781 337.93 81.5781C339.32 81.5781 340.219 82.5781 340.219 84.1406V85.3594C340.219 86.9297 339.32 87.9297 337.93 87.9297C336.531 87.9297 335.633 86.9219 335.633 85.3594V84.1406ZM340.227 87.7031V89H341.531V77.1953H340.18V81.8359H340.039C339.672 80.9062 338.766 80.3828 337.539 80.3828C335.578 80.3828 334.297 81.7969 334.297 83.9688V85.5469C334.297 87.7266 335.578 89.1406 337.539 89.1406C338.75 89.1406 339.641 88.6406 340.078 87.7031H340.227ZM348.055 81.5078C349.422 81.5078 350.25 82.4844 350.25 84.1016H345.789C345.789 82.4766 346.641 81.5078 348.055 81.5078ZM350.25 86.8125C350.016 87.5547 349.227 88.0078 348.156 88.0078C346.711 88.0078 345.789 87.0078 345.789 85.4531V85.1094H351.562V84.2812C351.562 81.8281 350.266 80.3672 348.062 80.3672C345.906 80.3672 344.477 81.8359 344.477 84.0703V85.3438C344.477 87.7578 345.828 89.1562 348.156 89.1562C349.938 89.1562 351.281 88.2109 351.539 86.8125H350.25ZM357.5 82.6875V80.5234H354.336V81.5859H356.219V87.9375H354.508V89H360.141V87.9375H357.516V85.2031C357.516 83.0469 358.625 81.75 360.5 81.75C360.961 81.75 361.508 81.8438 361.898 81.9844V80.4922C361.617 80.375 361.156 80.3047 360.672 80.3047C359.039 80.3047 357.984 81.1172 357.672 82.6875H357.5Z" fill="white"/>
</svg>
