<svg width="1024" height="204" viewBox="0 0 1024 204" fill="none" xmlns="http://www.w3.org/2000/svg">
<path fill-rule="evenodd" clip-rule="evenodd" d="M0 0L42.6667 3.30613C85.3333 6.61227 170.667 13.2245 256 19.8368C341.333 26.4491 426.667 33.0614 512 46.2859C597.333 59.5104 682.667 69.335 768 69.335C853.333 69.335 938.667 49.4982 981.333 39.5798L1024 29.6614V204H981.333C938.667 204 853.333 204 768 204C682.667 204 597.333 204 512 204C426.667 204 341.333 204 256 204C170.667 204 85.3333 204 42.6667 204H0V0Z" fill="white"/>
</svg>
