<svg id="Layer_1" data-name="Layer 1" xmlns="http://www.w3.org/2000/svg" xmlns:xlink="http://www.w3.org/1999/xlink" viewBox="0 0 1920 1080"><defs><style>.cls-1,.cls-12,.cls-15,.cls-18,.cls-22,.cls-23,.cls-28,.cls-30,.cls-32{fill:none;}.cls-2{fill:#e6f3ff;}.cls-3{fill:#cde6ff;}.cls-4{fill:#a1d3ff;}.cls-5{fill:#0b4778;}.cls-6{fill:#58b4ff;}.cls-7{fill:#112f4e;}.cls-8{fill:#1a2e4d;}.cls-9{fill:#0076d4;}.cls-10{fill:#005ea2;}.cls-11{fill:#2491ff;}.cls-12,.cls-23{stroke:#58b2ff;}.cls-12,.cls-15,.cls-18,.cls-22,.cls-23,.cls-28,.cls-30,.cls-32{stroke-miterlimit:10;}.cls-13{clip-path:url(#clip-path);}.cls-14{fill:#58b2ff;}.cls-15{stroke:#cfe8ff;}.cls-16{fill:#0076d6;}.cls-17{fill:#fff;}.cls-18{stroke:#0b4778;}.cls-19{clip-path:url(#clip-path-2);}.cls-20{fill:#005ea0;}.cls-21{fill:#248fff;}.cls-22{stroke:#e6f3ff;}.cls-22,.cls-23{stroke-width:0.6741px;}.cls-24{clip-path:url(#clip-path-3);}.cls-25{clip-path:url(#clip-path-4);}.cls-26{clip-path:url(#clip-path-5);}.cls-27{clip-path:url(#clip-path-6);}.cls-28,.cls-30,.cls-32{stroke:#0076d6;}.cls-29{clip-path:url(#clip-path-7);}.cls-30{stroke-width:0.50925px;}.cls-31{clip-path:url(#clip-path-8);}.cls-32{stroke-width:0.35468px;}</style><clipPath id="clip-path"><path class="cls-1" d="M1040.24119,588.08844l-22.963,85.125a5.58034,5.58034,0,0,0,4.52576,7.06662l124.48462,15.38632a5.38218,5.38218,0,0,0,5.86066-4.34944l19.03668-90.23946a5.55679,5.55679,0,0,0-4.795-6.7739L1045.8326,584.03172A5.37412,5.37412,0,0,0,1040.24119,588.08844Z"/></clipPath><clipPath id="clip-path-2"><path class="cls-1" d="M791.03921,993.77184c-2.0549.74976,34.99845-55.41422,32.08191-80.20479S822.392,784.51026,844.266,755.34488,879.26447,707.222,879.99361,696.285s9.47874-56.87248,33.54018-59.05989S931.033,677.3275,931.033,677.3275l-2.91654,12.39528s36.45672,45.93547,32.81105,61.24729-30.62365,145.09776-35.72759,149.47256c-11.66615,26.978-5.83307,97.704-5.83307,97.704S844.99515,974.08521,791.03921,993.77184Z"/></clipPath><clipPath id="clip-path-3"><path class="cls-2" d="M835.15674,585.554c-1.47827,5.01226,1.26684,9.67889,6.04638,10.3999,4.77955.72094,9.78467-2.79792,11.26685-7.83051,1.48218-5.03253-1.11768-9.65735-5.90137-10.35809C841.78516,577.06451,836.63477,580.54169,835.15674,585.554Z"/></clipPath><clipPath id="clip-path-4"><path class="cls-1" d="M537.84994,706.51792c5.77681-3.738,7.13605-4.41757,29.90369-10.53426,22.76737-6.11662,17.67031-15.29165,15.9712-20.049s-42.81655-.33981-42.81655-.33981-28.20467-10.87406-43.15642-18.01019c-8.09657-3.8643-28.54453,0-28.54453,0-2.09683-3.774-19.30643,2.74751-35.00094,6.79629-9.74175,2.51308-17.887,3.03662-19.70929,4.07777-4.75719,2.71853-15.63133,35.34069-15.63133,35.34069s-6.45656,1.3593-8.49528,3.05834c-2.039,1.69911-16.069,43.97479-23.04168,61.40606-6.97237,17.43126-50.55077,58.39482-54.90837,62.75262-4.35787,4.35787-33.52849,17.26113-33.52849,17.26113L320.70833,922.64c5.09706-9.175,90.05094-27.18515,111.11947-33.98146,17.50557-5.647,55.04992-38.399,60.147-43.8361,5.09733-5.437,51.652-38.05923,51.652-38.05923s35.001-27.525,20.72866-39.75833c-14.2721-12.23331-38.05936,8.83522-42.13707,11.21388-4.0777,2.37873-21.06853,12.57318-30.58317,20.72872-9.5149,8.15554-22.42776,14.27223-22.42776,14.27223-9.85478-16.99076-8.49528-27.18522,1.35923-50.63241S532.07313,710.25589,537.84994,706.51792Zm-56.06955-18.35,14.27236,2.03892c-7.13605,2.71846-24.46675,17.3305-24.46675,17.3305C477.36281,701.08092,481.78039,688.16793,481.78039,688.16793Z"/></clipPath><clipPath id="clip-path-5"><path class="cls-1" d="M1744.352,767.88741l-49.43212,59.5519c-5.65786,6.81615-3.20939,16.3281,4.89286,19.00809l85.17139,28.17225a14.51847,14.51847,0,0,0,15.86714-5.19363l51.42841-68.6963c5.4582-7.29088,2.06736-16.90878-6.63067-18.80748l-87.16768-19.02784A14.60883,14.60883,0,0,0,1744.352,767.88741Z"/></clipPath><clipPath id="clip-path-6"><polygon class="cls-1" points="1756.342 788.939 1744.895 804.214 1775.11 812.187 1786.384 796.379 1756.342 788.939"/></clipPath><clipPath id="clip-path-7"><polygon class="cls-1" points="1756.955 820.969 1751.543 828.558 1760.321 831.012 1766.006 823.573 1756.955 820.969"/></clipPath><clipPath id="clip-path-8"><polygon class="cls-1" points="1738.635 815.192 1733.223 822.782 1742.001 825.236 1747.686 817.797 1738.635 815.192"/></clipPath></defs><rect class="cls-3" x="369.12909" y="325.8458" width="90.69714" height="1.5746" transform="translate(511.55127 -192.07455) rotate(62.35979)"/><path class="cls-2" d="M386.04835,275.58026l6.9135,11.73829,1.57966-1.04891-3.4042-12.9478a2.8001,2.8001,0,0,0-3.79462-1.70968h0A2.80011,2.80011,0,0,0,386.04835,275.58026Z"/><rect class="cls-4" x="1574.40145" y="895.27064" width="245.01454" height="4.25372" transform="translate(3510.67297 268.84299) rotate(133.01461)"/><path class="cls-4" d="M1801.59818,779.24682l-23.73337,28.12643,4.08723,3.0878,29.95671-20.26383a7.56436,7.56436,0,0,0,.96214-11.2022l0,0A7.56436,7.56436,0,0,0,1801.59818,779.24682Z"/><path class="cls-5" d="M201.45164,339.44807s10.02906,57.66708-41.36986,72.71066S96.14654,486.123,91.132,526.23925s33.84806,81.48609,53.90618,85.247,90.26151-70.2034,96.52967-85.247,35.601-160.68359,35.601-160.68359l-36.8546-28.61485Z"/><path class="cls-4" d="M802.72037,463.24627S727.025,507.27164,706.654,503.19744s-85.55833,36.66785-93.70674,48.89047-14.25972,55.00179-14.25972,55.00179l211.85872,22.40813Z"/><path class="cls-5" d="M370.12159,372.32489c.23695-3.78578,15.58353-77.9068,8.1152-104.59592-3.779-13.5049-17.07934-71.03542-41.47769-93.77567-12.241-11.4091-38.87406-9.8224-38.87406-9.8224s-47.19571-18.70315-87.658,12.345c-31.43809,24.12358-49.98229,54.069-58.9207,87.75425-4.19037,15.79179-23.819,67.69613,17.55085,109.066,41.3107,41.3107,70.51828,23.46244,76.47155,28.83354,20.948,18.89947-13.60761,14.36135-1.04832,10.32346C311.93028,390.70328,370.12159,372.32489,370.12159,372.32489Z"/><path class="cls-1" d="M376.76709,264.07043c2.88428-2.58209.33838-5.67681-4.28906-8.41284a30.65163,30.65163,0,0,0,1.9917,2.3711A7.70257,7.70257,0,0,1,376.76709,264.07043Z"/><path class="cls-4" d="M367.58594,295.13428s4.33056-26.7215,9.18115-31.06385a7.70257,7.70257,0,0,0-2.29736-6.04174,30.65163,30.65163,0,0,1-1.9917-2.3711,55.80663,55.80663,0,0,0-11.30689-4.81946c-9.94067-3.09735-18.10022-42.62064-18.10022-42.62064l-17.53186-13.12466c-10.91455-8.14831-20.10107-14.75659-20.10107-14.75659s-29.15186,58.924-42.17725,73.81012c-13.02539,14.88605-39.69629,41.557-39.69629,41.557-16.74682,0-8.68359,19.22784-6.20263,29.77215,2.4812,10.54432,21.08886,17.36713,21.08886,17.36713s11.16455,42.17719,13.64551,45.27844S283.729,423.47546,283.729,423.47546c23.56958,43.41773,54.58228,61.40509,61.405,65.12659,10.80835,5.89551,6.20264-35.35443,6.20264-35.35443L338.31128,432.7793l4.96216-69.46839c17.37842,0,26.718-13.103,31.73584-26.23242-3.87647-.91418-7.11426-1.90918-7.11426-1.90918Z"/><path class="cls-6" d="M380.48853,282.678c-1.13062-7.92694-4.3418-11.16455-3.72144-18.60755-4.85059,4.34235-9.18115,31.06385-9.18115,31.06385l.30908,40.035s3.23779.995,7.11426,1.90918a98.55582,98.55582,0,0,0,5.47925-23.38782C381.17065,307.55084,381.87012,292.36414,380.48853,282.678Z"/><path class="cls-6" d="M361.17114,250.83813a55.80663,55.80663,0,0,1,11.30689,4.81946,26.90639,26.90639,0,0,1-5.57984-13.72918c-.56909-5.75934-2.18628-12.64875-6.25781-18.17444-3.30859-4.4903-3.17615-4.79082-17.56946-15.53648h0S351.23047,247.74078,361.17114,250.83813Z"/><path class="cls-7" d="M367.46321,266.55144s-10.5443,6.20253-10.5443,13.64557Z"/><path class="cls-7" d="M326.5265,249.18435s-7.82163-5.07762-16.644-3.14772c-6.984,1.52775-10.64711,9.97051-10.64711,9.97051l12.61136-7.13326s-.78078,5.85825,4.8015,5.238c.97022-.1078,3.48829.07033,4.365-.21825A9.116,9.116,0,0,0,326.5265,249.18435Z"/><path class="cls-7" d="M366.40921,243.63588s-9.1665-1.09125-9.603,1.09125,6.90508,5.2236,6.90508,5.2236l4.44392-.64035Z"/><path class="cls-7" d="M378.29259,299.64746a3.60725,3.60725,0,0,1-3.17718,4.29149c-7.93942.85467-26.08968,2.76164-32.23148,8.90344,0,0,17.75662-16.93637,24.70212-17.70809,3.03463-.33718,7.469-.34054,9.26066,1.54344A6.07751,6.07751,0,0,1,378.29259,299.64746Z"/><path class="cls-5" d="M374.32385,304.25112a3.4515,3.4515,0,0,1,3.9854,3.63359c-.19478,2.84448-.74582,6.25118-2.23426,7.31436-2.701,1.9293-32.20386-.20348-32.20386-.20348s.56326-5.19858,9.82392-7.12788C359.97908,306.55854,369.10587,305.07169,374.32385,304.25112Z"/><path class="cls-7" d="M331.41313,230.93274l-.8665-6.49872s-31.19386-3.89923-36.39283.43325-8.665,11.69769-8.665,11.69769S298.053,227.46675,304.985,227.9,331.41313,230.93274,331.41313,230.93274Z"/><path class="cls-7" d="M360.64043,223.754s-7.13166-1.48619-11.46414,2.84629l1.29975,5.199,11.26445-4.76572Z"/><path class="cls-8" d="M256.63077,373.86767S226.281,390.1529,212.21651,399.776s-59.95924,54.03735-65.1409,73.28353-21.46689,69.58233-29.60951,101.41255,31.83022,113.99659,31.83022,126.58063-41.33345,103.65277,5.30273,128.08124c17.30815,9.06618,144.63432-81.48412,181.30218-91.66964C448.21619,706.26569,549.035,792.104,549.035,792.104S426.89265,601.11772,429.11342,592.23464s19.98694-137.68778,17.76617-155.454-35.53233-44.41541-51.07773-48.85695S256.63077,373.86767,256.63077,373.86767Z"/><path class="cls-9" d="M344.74854,403.93958s54.35014-26.19284,73.33995-12.4416c0,0-12.4416-11.132-25.538-10.47714S344.74854,403.93958,344.74854,403.93958Z"/><path class="cls-7" d="M234.0838,310.955c3.95612-3.95612-5.23856,11.78677-5.23856,11.78677s7.85785,4.58375,14.40606,3.92893-5.89339-2.61929-7.203-5.23857S230.8097,314.22911,234.0838,310.955Z"/><path class="cls-2" d="M352.81683,365.08567s-70.27628-19.42516-71.58592-21.38962S270.099,373.163,270.099,373.163l8.51267,20.29945s62.06746,36.38213,68.61567,33.108Z"/><path class="cls-2" d="M283.98145,348.32861c-1.52344-.43506-4.27149-3.63623-10.34278-10.835C260.874,322.3584,239.53125,296.027,223.56445,295.70331l.02051-1.00019c16.87109.34278,38.59961,26.10743,51.583,41.501,4.08691,4.84619,8.31348,9.85791,9.36523,10.20215Z"/><polygon class="cls-2" points="276.54 366.333 246.638 342.43 249.119 341.608 277.798 364.778 276.54 366.333"/><path class="cls-10" d="M427.88694,439.52923l13.80323,32.0498-76.98471,27.38879s-19.25878-62.9454-17.03177-79.95826c0,0,19.25248-12.57144,43.68032-6.64954S427.88694,439.52923,427.88694,439.52923Z"/><path class="cls-2" d="M489.06538,527.09685s-40.71307-59.219-47.37521-60.69948-84.38709,17.7657-95.49065,42.19354-19.98641,114.73683-11.8438,121.399L466.118,721.77934l128.06111-86.6078Z"/><path class="cls-11" d="M427.88694,439.52923S401.771,393.36,347.67369,419.00956c0,0-.46635,6.06263,1.39907,9.79348s2.26387,24.44461,2.26387,24.44461-13.92277-3.925-13.45641-16.0502,6.99534-28.91408,6.99534-28.91408-1.86543-52.23188,3.26449-59.69357,19.1206-25.64959,24.71687-24.25052c0,0,3.73085-19.1206,13.058-18.65424,0,0-3.73085-16.32246,10.25983-15.38975,0,0,15.85611,5.12992,17.72153,13.058,0,0,15.85611,2.79813,20.51967,8.39441s9.80792,25.7304,7.928,35.44306c-2.79813,14.457-.93271,48.501-8.39441,59.69357S427.88694,439.52923,427.88694,439.52923Z"/><path class="cls-9" d="M413.89625,303.35326,416.124,318.158l17.68017,7.203s-7.85785-11.78678-10.47714-13.75124S413.89625,303.35326,413.89625,303.35326Z"/><polygon class="cls-9" points="385.915 305.685 385.347 310.3 393.86 319.468 385.915 305.685"/><polygon class="cls-9" points="372.857 324.339 373.561 333.874 380.109 332.564 372.857 324.339"/><path class="cls-4" d="M397.8737,535.27756c-15.73952,29.89095-38.38839,79.61907-27.34172,100.33158,0,0,52.96468-130.3746,87.59544-130.3746l-21.07213,2.74854A51.87217,51.87217,0,0,0,397.8737,535.27756Z"/><path class="cls-4" d="M356.27226,527.64267s-14.25972,71.29861,0,89.63254c0,0,93.70674-75.37281,112.04067-73.33571l-40.74206,77.40992,41.63646,36.23522-25.33964,61.54573L319.6044,631.53493S335.90123,545.9766,356.27226,527.64267Z"/><polygon class="cls-6" points="918.969 669.678 879.023 713.307 925.115 645.639 918.969 669.678"/><path class="cls-3" d="M656.14951,567.62249s88.83083-15.54539,104.37622-46.63618,42.19464-57.74,42.19464-57.74l153.23318-79.94774s4.3644-8.26364,9.91633-17.9795-15.25148-10.41151-8.58917-13.74267c13.32463-6.66231,65.296-21.57633,71.95827-6.03093s17.76617,59.9608,17.76617,59.9608,75.5062,28.87,77.727,84.38929l-37.07871,219.43211L940.40815,787.47879,576.20177,694.20642Z"/><path class="cls-10" d="M821.81563,481.799s-8.15385-34.58724-18.42223-30.73659-53.909,12.83548-62.89386,8.98483-17.96967-24.38741-17.96967-24.38741-12.83548-101.4003-7.70129-125.78771,7.70129-25.671,7.70129-33.37225-3.85064-15.40258,0-25.671,10.26839-59.04321,44.92418-77.01288c0,0,56.47612-26.95451,80.86353-20.53677s61.61031,50.05837,61.61031,50.05837,55.19256,0,62.89385,15.40258,12.83548,111.66868,12.83548,111.66868a42.868,42.868,0,0,0-7.70128,41.07354c2.35617,7.42363-82.25534,43.45305-127.54668,73.681C826.43507,461.164,821.81563,481.799,821.81563,481.799Z"/><path class="cls-8" d="M754.61857,177.66664s44.92418-6.41774,41.07354,2.5671-14.119,12.83548-8.98484,24.38741S818.796,226.44147,820.07952,241.844s7.70129,34.6558,7.70129,39.79-19.25322,11.55194-3.85064,12.83548,17.96967-3.85064,23.10386-2.56709,20.53677,12.83548,32.0887,24.38741,38.50645,34.6558,55.19257,34.6558,42.35709-17.96967,51.34192-20.53677,14.59218-16.61239,18.44283-37.14916,9.79523-37.29663,8.51168-48.84856-9.24235-16.55846-15.66009-30.67749-7.44377-25.79863-15.14506-33.49991-6.41774-19.25322-20.53677-24.38742-20.53677,2.5671-28.23806-8.98483-15.40257-16.68613-25.671-15.40258-5.13419,5.13419-23.10386-1.28355-6.41774-8.98483-17.96968-6.41774-15.40257,6.41774-26.95451,5.13419-17.96967-5.13419-21.82031-1.28354-10.26839,7.70128-23.10387,8.98483-21.82031,3.85065-25.671,8.98484-11.55193,8.98483-8.98484,12.83548-1.28354,6.41774-7.70128,10.26838S746.91728,177.66664,754.61857,177.66664Z"/><path class="cls-3" d="M1145.48292,843.09455c5.34659-9.56643,93.49078-101.14672,113.51291-122.08942a18.60713,18.60713,0,0,0,5.08636-12.14586l7.81373-202.92716c.17722-4.087-2.40185-18.1409-5.91664-16.32986l-27.46229,5.17812c-10.10136,5.66065-20.49031,17.34092-22.83994,29.05359,0,0-67.31683,271.5444-73.49225,284.25124Z"/><path class="cls-4" d="M909.67061,467.61749l-36.25785,9.462s-20.829,7.885-33.94352,52.0408c-8.79386,29.60835-44.65984,149.34521-67.78395,222.64046-10.15141,32.1764,9.92578,62.28527,42.69532,66.88248L1096.19737,858.179a60.66234,60.66234,0,0,0,33.92367-4.7821c9.26048-4.2832,18.82362-11.5636,24.07772-23.93187,12.3626-29.10179,64.82078-267.22788,64.82078-267.22788s7.39311-51.36133,27.09134-62.17116c10.52276-5.77459,16.61856-8.87983,19.8684-10.46372a.89033.89033,0,0,0-.33113-1.6843Z"/><path class="cls-2" d="M913.19265,467.72205l-35.0786,9.30983s-20.15153,7.75819-32.83954,51.20407c-8.50784,29.1323-43.20731,146.944-65.57933,219.06078-9.82125,31.659,9.60294,61.28382,41.30669,65.80712L1093.65279,852.004a57.805,57.805,0,0,0,32.82034-4.70521c8.95929-4.21434,18.21139-11.37768,23.29461-23.54708,11.96052-28.63389,62.71254-262.93132,62.71254-262.93132s7.15267-50.53552,26.21022-61.17155c10.18052-5.68175,16.07806-8.73706,19.2222-10.29548a.87921.87921,0,0,0-.32036-1.65722Z"/><path class="cls-3" d="M929.95668,749.38241s-1.75618,18.537-25.83,15.74516-59.73871-7.44494-59.73871-7.44494-22.29056.93061-18.14224-20.91458Z"/><path class="cls-3" d="M875.27883,477.50786c-6.03839,1.481,355.63168,30.67465,355.63168,30.67465s-101.145-6.72966-128.2713-22.58475a63.81066,63.81066,0,0,0-28.92887-8.89867l-160.51769-8.977S895.32729,472.59056,875.27883,477.50786Z"/><path class="cls-12" d="M1042.32818,498.971l-12.37126,28.28411a206.57479,206.57479,0,0,0-10.427,29.91383L972.9296,733.19352c-3.16351,11.94962-14.20279,19.70663-26.0007,18.27L826.24575,736.76805c-10.0433-1.223-16.56342-11.65372-13.5898-21.74066l54.91423-186.27666s7.133-29.77976,21.39894-39.08594"/><g class="cls-13"><path class="cls-5" d="M1040.24119,588.08844l-22.963,85.125a5.58034,5.58034,0,0,0,4.52576,7.06662l124.48462,15.38632a5.38218,5.38218,0,0,0,5.86066-4.34944l19.03668-90.23946a5.55679,5.55679,0,0,0-4.795-6.7739L1045.8326,584.03172A5.37412,5.37412,0,0,0,1040.24119,588.08844Z"/><polygon class="cls-14" points="1167.626 613.916 1159.7 651.613 1114.384 646.553 1121.854 609.099 1167.626 613.916"/><path class="cls-14" d="M1170.91649,612.54121l-135.57367-13.48216s-1.36944-15.80666,8.21658-16.73647,128.27,8.83314,128.27,8.83314Z"/><line class="cls-15" x1="1030.86617" y1="638.22838" x2="1159.69966" y2="651.61314"/><line class="cls-15" x1="1121.85448" y1="609.09868" x2="1105.58807" y2="688.51107"/><line class="cls-15" x1="1074.53127" y1="604.32295" x2="1058.26486" y2="683.73534"/></g><path class="cls-14" d="M1254.73922,582.39506l-1.43512.09362a1.30288,1.30288,0,0,0-1.192,1.28262l-.766,24.98945a1.28063,1.28063,0,0,0,1.74655,1.274l1.86207-.78265a1.32782,1.32782,0,0,0,.79673-1.21222l.33906-24.30042A1.29756,1.29756,0,0,0,1254.73922,582.39506Z"/><rect class="cls-3" x="989.07989" y="940.23166" width="245.01454" height="4.25372" transform="translate(154.7733 -156.81063) rotate(8.67088)"/><path class="cls-2" d="M954.97272,922.57523l36.61242,3.72818.24365-5.11669-33.63145-13.30233a7.56436,7.56436,0,0,0-9.7921,5.52537v0A7.56436,7.56436,0,0,0,954.97272,922.57523Z"/><path class="cls-5" d="M1716.87425,635.0619l-6.18593-116.41171s-2.812-50.05144-45.55269-46.67718l-20.80778,15.18413-138.09543-15.82343c-14.46437-1.65734-30.6171-25.79236-30.6171-25.79236s-15.18423-7.31087-42.17833,6.74853c-12.39831,6.45751-42.94753,31.4226-72.35952,56.53174a113.963,113.963,0,0,1,30.18139-1.41895c42.74052,2.81187,204.14234,31.493,204.14234,31.493q.69323.18078,1.36434.3769c18.11223,5.28689,28.97767,23.80513,25.36967,42.32505-9.05552,46.48552-39.69275,203.29628-43.043,214.30365-3.68141,12.09723-4.90368,79.77538-5.04655,88.48808,0,0,121.777-144.56089,131.19664-166.43628C1712.56865,700.93892,1718.59658,674.67423,1716.87425,635.0619Z"/><path class="cls-16" d="M1622.13521,581.59767c3.608-18.51992-7.25744-37.03816-25.36967-42.32505q-.67131-.196-1.36434-.3769s-161.40182-28.68118-204.14234-31.493a113.963,113.963,0,0,0-30.18139,1.41895c-23.61244,20.15811-46.48232,40.40043-58.6466,51.24269a37.29922,37.29922,0,0,1,27.94938-7.02893l211.00433,31.75717c18.22668,2.74325,28.13665,24.17814,25.33534,42.39609-6.11056,39.7407-13.398,104.24028-18.5582,164.21368-4.64557,53.99037.96613,101.78307-1.0056,111.64158-2.87548,14.37815-13.26756,18.73295-22.13714,19.71828,5.61248-.6235,10.26882-1.20034,15.4117-3.739a49.25219,49.25219,0,0,0,13.52547-9.8521c1.64219-1.934,3.36489-3.967,5.146-6.07341l14.94348-18.70822c.14287-8.7127,1.36514-76.39085,5.04655-88.48808C1582.44246,784.894,1613.07969,628.08319,1622.13521,581.59767Z"/><path class="cls-7" d="M1518.626,625.66179l-194.305-26.6171a4.10626,4.10626,0,0,0-4.60235,3.36173l-6.46812,37.03L1298.83,721.99319a5.31781,5.31781,0,0,0,4.38312,6.16349l86.93578,14.16911L1496.86,759.71791a4.767,4.767,0,0,0,5.45779-3.85723l22.08529-122.24117A6.80982,6.80982,0,0,0,1518.626,625.66179Z"/><path class="cls-5" d="M1505.16012,830.70569l-53.78021-6.45372-17.2497-2.07a13.43391,13.43391,0,0,0-15.11694,11.92713l-1.80479,17.32592,63.19015,11.64371,28.10783,5.1793.82682-20.09269A32.15215,32.15215,0,0,0,1505.16012,830.70569Z"/><path class="cls-5" d="M1541.38458,584.79255l-211.00433-31.75717a37.29922,37.29922,0,0,0-27.94938,7.02893c-1.50287,1.33958-2.85222,2.54419-4.00917,3.5786a21.7772,21.7772,0,0,0-2.25648,2.34449l-.02645.03285a22.51244,22.51244,0,0,0-4.33773,8.63422l-31.169,126.55961-14.52613,58.98206a76.41025,76.41025,0,0,0-2.23458,25.6779l6.79371,82.01133a21.65021,21.65021,0,0,0,18.73383,21.543l84.31167,11.89329,38.19,5.02587,12.93471,2.27877-1.627-.77815a12.62533,12.62533,0,0,1-5.739-5.536l-.7636-1.45922V820.95886a17.35776,17.35776,0,0,1,20.22327-17.1196l21.93927,3.67223,43.55827,7.29084a32.28939,32.28939,0,0,1,26.90688,33.36306l-.82682,20.09269-.00829.20089-.55844,13.5742-.70447,17.12429-.91562,22.2478s11.28181,2.1809,18.69909,1.35695c8.86964-.98528,19.26188-5.34,22.13739-19.71831,1.97173-9.85851-3.64-57.65121,1.0056-111.64158,5.16021-59.9734,12.44764-124.473,18.5582-164.21368C1569.52123,608.97069,1559.61126,587.5358,1541.38458,584.79255Zm-16.98152,48.827-22.08529,122.24117a4.767,4.767,0,0,1-5.45779,3.85723l-106.71111-17.39212-86.93578-14.16911a5.31781,5.31781,0,0,1-4.38312-6.16349l14.42056-82.55675,6.46812-37.03a4.10626,4.10626,0,0,1,4.60235-3.36173l194.305,26.6171A6.80982,6.80982,0,0,1,1524.40306,633.61951Z"/><path class="cls-10" d="M1480.39883,863.07878l-63.19014-11.64371,1.8044-17.32592a13.4344,13.4344,0,0,1,15.11714-11.92713l17.24989,2.07,53.77982,6.45371a32.23335,32.23335,0,0,0-22.73333-15.90335l-43.55847-7.29084-21.93926-3.67223a17.35779,17.35779,0,0,0-20.22328,17.1196v76.64a11.26564,11.26564,0,0,0,9.69211,11.15508l99.92174,12.65134.91562-22.2478.70487-17.12429.55805-13.57421.00868-.20088Z"/><path class="cls-7" d="M1473.436,445.02951s-7.27222.37039-17.31372,6.29766c-5.8368,3.44533-67.04274,55.56365-67.04274,55.56365l53.39229,6.22258,55.32023-43.82512S1490.03127,467.46963,1473.436,445.02951Z"/><path class="cls-7" d="M1716.87425,635.0619,1579.09218,795.90132l-3.34018,20.72431a41.72716,41.72716,0,0,0-.524,5.84275l-1.18237,61.921,117.51585-144.79414a113.36862,113.36862,0,0,0,25.34312-71.54633Z"/><polygon class="cls-16" points="1508.268 865.847 1396.368 845.344 1395.691 871.064 1507.37 891.369 1508.268 865.847"/><path class="cls-7" d="M1255.13792,724.15436l-8.82564,35.83542a76.41052,76.41052,0,0,0-2.23457,25.6779l6.79371,82.01134a21.65018,21.65018,0,0,0,18.73382,21.543l84.31167,11.89329,38.19008,5.02583,12.93465,2.27878-1.62583-.77748a12.62711,12.62711,0,0,1-5.74014-5.53662v0a6.69879,6.69879,0,0,1-.76367-3.10617V820.7525a17.35776,17.35776,0,0,1,20.22327-17.1196l21.93927,3.67223,43.55807,7.29084a32.28939,32.28939,0,0,1,26.90688,33.36306l-.82682,20.09269-.00828.20089-.55845,13.5742-.70447,17.1243-.91562,22.24779s11.28181,2.1809,18.69909,1.35695c8.86964-.98528,19.26188-5.34,22.13739-19.71831,1.78782-8.93776-2.65766-49.05473-.04183-96.70194l-163.96712-22.79366A243.45431,243.45431,0,0,1,1255.13792,724.15436Z"/><path class="cls-4" d="M1318.94025,639.82388s17.61443,4.40361,19.64686,8.80722,16.25947,17.27569,14.227,20.32434a71.24908,71.24908,0,0,1-5.41982,6.77478s-.67748,5.75856-5.75857,4.74234-2.37117-.67748-2.37117-.67748-3.38739,3.04866-4.74235,2.70992-4.74234,2.37117-7.791,1.01621-10.83965-4.4036-12.87208-6.0973Z"/><polygon class="cls-4" points="1343.329 674.714 1343.668 690.635 1358.911 709.604 1361.283 691.99 1343.329 674.714"/><polygon class="cls-17" points="1518.641 648.125 1432.824 635.718 1435.083 620.953 1520.9 633.361 1518.641 648.125"/><polygon class="cls-18" points="1515.26 666.721 1429.442 654.314 1431.701 639.55 1517.519 651.957 1515.26 666.721"/><polygon class="cls-18" points="1511.879 685.318 1426.061 672.911 1428.32 658.147 1514.138 670.554 1511.879 685.318"/><polygon class="cls-16" points="1497.086 754.633 1411.46 739.971 1415.092 719.975 1500.357 734.034 1497.086 754.633"/><path class="cls-17" d="M1451.68764,732.48141l-.97083,8.41381a.78128.78128,0,0,0,.92367.85678l8.41382-1.618a.78128.78128,0,0,0,.37925-1.34418l-7.443-6.79577A.78128.78128,0,0,0,1451.68764,732.48141Z"/><path class="cls-16" d="M1366.57218,638.76528a1.71173,1.71173,0,0,0-.1852,2.81181c5.89467,4.65738,22.97,18.59031,21.11888,22.29267-1.81971,3.63942-11.05371,22.60171-14.41,29.49734a20.73265,20.73265,0,0,0-1.73629,5.2554l-1.37909,7.35518a1.13776,1.13776,0,0,0,1.43083,1.30366l8.06279-2.30365a1.13777,1.13777,0,0,0,.77238-.75137l4.282-13.55955,19.40679-31.05087a6.44257,6.44257,0,0,0-1.24887-8.28749L1380.25692,631.93a1.71449,1.71449,0,0,0-2.00364-.17339Z"/><path class="cls-2" d="M1302.71507,907.26787l-40.34237,56.03107a6.7281,6.7281,0,0,0,4.607,10.60506L1432.402,995.0482a6.7281,6.7281,0,0,0,7.27264-4.65981l17.86217-56.93568a6.7281,6.7281,0,0,0-5.47635-8.67565L1309.1184,904.53747A6.72811,6.72811,0,0,0,1302.71507,907.26787Z"/><path class="cls-7" d="M490.56467,518.065,404.85921,801.96434a15.90951,15.90951,0,0,0,10.75868,19.866L801.01914,934.71216a20.60887,20.60887,0,0,0,25.61025-14.12138l94.87883-332.39861A20.75453,20.75453,0,0,0,904.244,561.91654L503.8028,509.50981A12.17755,12.17755,0,0,0,490.56467,518.065Z"/><polygon class="cls-17" points="513.239 525.668 428.659 807.113 792.497 907.734 885.827 578.165 513.239 525.668"/><path class="cls-2" d="M936.71,1080.65173c-3.05249-32.29809-7.13525-79.58856-7.13525-79.58856s-91.87085-43.01892-175.72144,11.66614l-44.43042,67.92242Z"/><polygon class="cls-3" points="709.423 1080.652 756.487 1080.652 778.729 1066.004 742.941 1063.448 753.853 1012.729 709.423 1080.652"/><g class="cls-19"><path class="cls-11" d="M791.03921,993.77184c-2.0549.74976,34.99845-55.41422,32.08191-80.20479S822.392,784.51026,844.266,755.34488,879.26447,707.222,879.99361,696.285s9.47874-56.87248,33.54018-59.05989S931.033,677.3275,931.033,677.3275l-2.91654,12.39528s36.45672,45.93547,32.81105,61.24729-30.62365,145.09776-35.72759,149.47256c-11.66615,26.978-5.83307,97.704-5.83307,97.704S844.99515,974.08521,791.03921,993.77184Z"/><path class="cls-9" d="M928.11648,689.72278S908.43707,777.077,912.75917,764.831c3.50924-9.94284,22.81007-64.33608,22.81007-64.33608Z"/><path class="cls-9" d="M824.64976,847.00372s-.755,87.60053,25.20989,105.68755c19.34649,13.47672,69.96391,48.64814,69.50728,45.45538,0,0-33.63172,3.99472-138.0811-1.16244l27.88814-86.2419Z"/></g><path class="cls-2" d="M792.49731,907.734c-126.16259-27.04975-246.01611-80.199-374.00122-98.88782,37.81421-92.56726,63.72315-188.15424,94.68946-283.01727,124.33935,16.385,248.52124,34.20813,372.59057,52.51172Q838.43311,742.83732,792.49731,907.734Z"/><path class="cls-17" d="M876.68579,608.03217C752.769,589.19458,629.00757,568.21008,504.68628,552.179c3.24512-10.30011,4.93677-15.57221,8.55273-26.51142,124.1626,16.36859,248.1709,34.14832,372.06592,52.42041Q880.99024,593.05865,876.68579,608.03217Z"/><path class="cls-20" d="M616.32031,568.27594q-35.71069-5.36042-71.44555-10.559c2.50195-10.52087,3.80908-15.87714,6.61328-26.90265q35.58435,4.85413,71.15478,9.81152Q619.38794,554.42789,616.32031,568.27594Z"/><path class="cls-17" d="M714.30151,610.02545c-70.59619-11.8515-141.16089-24.49634-212.074-34.34515,1.63892-5.66455,2.47314-8.52448,4.18921-14.32715,70.86694,9.49158,141.45679,21.276,212.07178,32.444C716.80127,600.30255,715.96484,603.54681,714.30151,610.02545Z"/><path class="cls-21" d="M714.30151,610.02545c-7.66967-1.28747-11.49951-1.93066-19.11914-3.20965,1.58863-6.41169,2.38819-9.62415,4.00464-16.07093,7.69214,1.2157,11.55908,1.82733,19.30152,3.05231C716.80127,600.30255,715.96484,603.54681,714.30151,610.02545Z"/><path class="cls-17" d="M828.19531,748.39709c-117.68335-25.51-233.36548-61.64831-351.82715-83.3944,7.63013-26.06037,14.93262-52.21235,22.36963-78.32807,119.906,17.12726,238.85694,41.34442,358.31177,61.30054Q842.56592,698.16995,828.19531,748.39709Z"/><path class="cls-17" d="M794.13745,868.09161C675.46606,839.72528,561.71,791.82086,441.55591,769.69873c10.83471-29.44336,21.01733-59.10193,30.136-89.12469,118.38428,22.29821,233.428,60.90588,350.91968,87.363Q808.32605,818.00049,794.13745,868.09161Z"/><path class="cls-17" d="M783.53174,905.61115C663.08569,878.62,548.2356,829.12378,426.07861,809.66705c3.8794-9.67065,5.71582-14.34845,9.21656-23.44293,120.9104,21.16358,234.98364,69.9635,354.3,97.92206C787.15771,892.76727,785.94458,897.062,783.53174,905.61115Z"/><path class="cls-22" d="M640.48584,696.71759c-51.365-12.65961-102.75171-25.78607-154.7334-35.72247,1.8064-6.56433,2.68652-9.81537,4.42847-16.2984,51.8518,9.47076,103.21167,21.73449,154.5625,33.55285C643.05493,685.61578,642.20605,689.30566,640.48584,696.71759Z"/><path class="cls-22" d="M612.665,809.1676c-52.54688-16.46039-105.15186-32.5849-159.17358-43.52368,2.83447-8.07642,4.1809-12.00763,6.759-19.69922,53.46045,11.1637,105.65991,27.06818,157.81079,43.13367C615.96338,797.02783,614.88672,801.042,612.665,809.1676Z"/><path class="cls-22" d="M745.89966,634.94666q-11.48511,42.41931-22.93189,84.84893"/><path class="cls-22" d="M690.34106,552.1181q-3.6328,14.32362-7.13378,28.68158"/><path class="cls-22" d="M751.78491,560.84668q-4.04772,14.63535-8.00659,29.29565"/><path class="cls-17" d="M715.7522,746.23889q-12.04248,43.76258-24.626,87.369"/><path class="cls-14" d="M530.19556,611.51691q-13.83435-2.44566-27.709-4.68488c.71851-2.76233,1.07886-4.14618,1.80371-6.92248,9.91944,1.55047,15.47583,2.46893,27.47242,4.51483C531.13281,607.26758,530.81982,608.68555,530.19556,611.51691Z"/><path class="cls-14" d="M567.978,618.3634c-10.96875-2.02209-21.9375-4.04168-32.91992-5.98785.61547-2.8432.92407-4.267,1.54541-7.12164,10.96508,1.88519,21.918,3.83874,32.8706,5.79449C568.87305,613.97925,568.57422,615.44177,567.978,618.3634Z"/><path class="cls-23" d="M798.40479,732.58331q-31.71351-7.11117-63.32813-14.637c1.91064-6.93433,2.8623-10.39533,4.76147-17.30884q31.8534,7.141,63.77125,13.978C801.52905,721.79669,800.488,725.39069,798.40479,732.58331Z"/><path class="cls-14" d="M523.24243,708.60785q-22.64393-5.52172-45.405-10.42059c.86133-2.94086,1.28467-4.40113,2.11988-7.30457q22.62048,4.77447,45.06762,10.2182C524.32251,704.08838,523.96655,705.58923,523.24243,708.60785Z"/><path class="cls-14" d="M558.24829,717.63464q-13.62818-3.63519-27.30493-7.09643c.7146-3.03266,1.06641-4.54071,1.76-7.54321q13.66223,3.39367,27.28149,6.96588C559.29932,713.01721,558.95239,714.55151,558.24829,717.63464Z"/><path class="cls-14" d="M593.30566,727.14758q-14.31921-3.95553-28.66821-7.80658c.70581-3.09509,1.054-4.63562,1.74146-7.70471q14.3778,3.77884,28.72729,7.66705C594.3938,722.43,594.03394,723.99841,593.30566,727.14758Z"/><path class="cls-3" d="M523.02026,629.58112c-10.47046-1.97309-15.40478-2.87275-24.49682-4.44275.50659-1.96161.75952-2.94245,1.26587-4.90552,9.0122,1.528,13.91772,2.40509,24.3479,4.331C523.69043,626.57147,523.46729,627.57465,523.02026,629.58112Z"/><path class="cls-2" d="M521.22925,637.60712c-10.53491-2.049-15.51514-2.985-24.73535-4.62281.50854-1.96209.7622-2.94256,1.26928-4.90393,9.14014,1.5954,14.0918,2.50867,24.58643,4.5102C521.9021,634.59686,521.67822,635.6,521.22925,637.60712Z"/><path class="cls-2" d="M559.35254,645.31152q-14.34667-2.99368-28.72241-5.855c.437-2.02411.655-3.03564,1.09033-5.05883q14.35913,2.79354,28.69141,5.7276C559.98877,642.1994,559.7771,643.23639,559.35254,645.31152Z"/><path class="cls-2" d="M625.67065,659.47583q-26.02551-5.64057-52.07251-11.17792c.42823-2.1.64209-3.14953,1.0691-5.24847q26.1101,5.4158,52.19409,10.95532C626.3855,656.19263,626.14746,657.28674,625.67065,659.47583Z"/><path class="cls-3" d="M607.43945,646.52173q-16.062-3.33-32.13183-6.62055c.42676-2.09881.63989-3.14807,1.0664-5.24743q16.1045,3.20645,32.19458,6.48358C608.11694,643.29126,607.89111,644.368,607.43945,646.52173Z"/><path class="cls-3" d="M695.31763,664.95135q-22.68311-4.76147-45.36426-9.533c.50635-2.22448.75928-3.33642,1.26538-5.5606q22.76844,4.67688,45.5376,9.35125C696.18091,661.50562,695.89331,662.654,695.31763,664.95135Z"/><path class="cls-3" d="M629.845,651.19867c-7.73-1.619-11.5542-2.41846-19.0896-3.98712.45532-2.15936.68286-3.23883,1.13794-5.39832,7.55615,1.53705,11.39209,2.3205,19.14722,3.90747C630.56226,647.91193,630.32324,649.00739,629.845,651.19867Z"/><path class="cls-3" d="M545.8894,633.99658c-5.3479-1.05377-7.96362-1.56415-13.06128-2.54608.43458-2.024.65162-3.03607,1.08594-5.06116,5.08472.95917,7.69605,1.458,13.03809,2.4881C546.5271,630.92566,546.3147,631.94928,545.8894,633.99658Z"/><path class="cls-3" d="M561.54663,637.11487c-5.60767-1.1275-8.35962-1.67676-13.74121-2.74024.42432-2.05066.63647-3.076,1.06079-5.12756,5.37695,1.0398,8.12817,1.5769,13.73706,2.68C562.18066,634.00269,561.96948,635.04,561.54663,637.11487Z"/><path class="cls-3" d="M500.69751,722.73169q-13.65089-3.31137-27.41895-6.1911c.66431-2.17792.99219-3.2605,1.6399-5.41431,10.53393,2.19916,15.99609,3.43878,27.23315,6.12732C501.57739,719.43414,501.28662,720.52948,500.69751,722.73169Z"/><path class="cls-2" d="M498.29126,731.614q-13.79992-3.36969-27.72559-6.27972c.69239-2.21954,1.03418-3.32239,1.70874-5.5155q13.81092,2.87035,27.53272,6.22638C499.20874,728.261,498.90576,729.37451,498.29126,731.614Z"/><path class="cls-2" d="M537.918,741.87073q-14.74476-4.04425-29.58081-7.77661c.596-2.24762.88989-3.36548,1.47046-5.59034q14.792,3.69,29.50634,7.70856C538.76245,738.46582,538.4834,739.59729,537.918,741.87073Z"/><path class="cls-2" d="M602.502,760.39551q-25.15063-7.42429-50.373-14.59082c.56079-2.28662.83789-3.42505,1.38574-5.693q25.2561,7.08225,50.42431,14.46314C603.36914,756.89606,603.08179,758.06,602.502,760.39551Z"/><path class="cls-3" d="M585.574,745.54022c-10.40527-2.9732-20.81152-5.94165-31.24316-8.82232.54028-2.25715.80762-3.38123,1.33618-5.62128,10.43921,2.85376,20.85449,5.79126,31.269,8.73334C586.39624,742.10681,586.124,743.24872,585.574,745.54022Z"/><path class="cls-3" d="M668.48413,769.7489q-21.27722-6.21862-42.54565-12.46771c.58471-2.33655.875-3.50171,1.45166-5.82672q21.334,6.181,42.67212,12.34741C669.43408,766.17657,669.11841,767.36591,668.48413,769.7489Z"/><path class="cls-3" d="M606.9436,751.72656c-7.33032-2.1358-10.9707-3.19275-18.18945-5.27173.55176-2.295.8252-3.43878,1.36694-5.71942,7.2312,2.05817,10.87915,3.10456,18.22608,5.21924C607.79028,748.257,607.50952,749.41125,606.9436,751.72656Z"/><path class="cls-3" d="M524.74146,728.76245c-5.49732-1.42938-8.2168-2.12421-13.59009-3.46649.571-2.21228.85278-3.31293,1.40942-5.50446,5.35352,1.32843,8.06519,2.01612,13.54956,3.43085C525.56958,725.42871,525.2959,726.5365,524.74146,728.76245Z"/><path class="cls-3" d="M540.63794,732.97626c-5.62842-1.51831-8.416-2.26007-13.93018-3.70124.55249-2.228.82544-3.33679,1.36475-5.54534,5.50244,1.42639,8.28589,2.16052,13.90845,3.66339C541.44995,729.61731,541.18164,730.7337,540.63794,732.97626Z"/><path class="cls-3" d="M842.27832,701.26776C806.03,694.28467,769.8811,686.82935,733.76294,679.204c2.61011-9.67914,3.91162-14.5108,6.52-24.17248,36.428,7.03125,72.87573,13.9461,109.3916,20.5061C846.71875,685.80762,845.23877,690.95654,842.27832,701.26776Z"/><path class="cls-2" d="M811.512,660.18219q-20.39282-3.7033-40.7688-7.49872c.4712-1.67694.707-2.51532,1.17847-4.19177q20.41224,3.73041,40.83472,7.404C812.25854,657.6098,812.00977,658.4671,811.512,660.18219Z"/><path class="cls-2" d="M805.28833,681.65234q-20.22912-3.93291-40.43384-7.98968c.47095-1.67987.70655-2.51965,1.17749-4.19885q20.24342,3.98382,40.50147,7.88964C806.0354,679.07257,805.78638,679.93231,805.28833,681.65234Z"/><path class="cls-2" d="M798.88013,703.79675q-20.06067-4.17589-40.08814-8.51025c.47217-1.684.70825-2.52576,1.18018-4.2088q20.06286,4.27239,40.15478,8.40875C799.62842,701.21014,799.37891,702.0722,798.88013,703.79675Z"/><path class="cls-2" d="M756.25293,647.79553a3.61694,3.61694,0,0,0,2.85864,4.59723,4.44145,4.44145,0,0,0,4.99634-3.14087,3.59108,3.59108,0,0,0-2.85156-4.59418A4.45519,4.45519,0,0,0,756.25293,647.79553Z"/><path class="cls-2" d="M750.52783,668.58435a3.66934,3.66934,0,0,0,2.81519,4.65173,4.34794,4.34794,0,0,0,4.95215-3.09765,3.64248,3.64248,0,0,0-2.80982-4.64795A4.35982,4.35982,0,0,0,750.52783,668.58435Z"/><path class="cls-2" d="M744.80029,689.40894a3.72527,3.72527,0,0,0,2.76807,4.7113,4.26009,4.26009,0,0,0,4.91138-3.05634,3.698,3.698,0,0,0-2.76441-4.70654A4.26939,4.26939,0,0,0,744.80029,689.40894Z"/><path class="cls-23" d="M806.96338,726.86487c7.88306,1.70337,11.791,2.53528,19.51343,4.14783"/><path class="cls-22" d="M716.08032,745.04218q-12.02892,43.74013-24.59326,87.32605"/><path class="cls-23" d="M764.78442,848.17145q-30.91332-8.2262-61.56274-17.33093c2.094-7.17933,3.12988-10.75525,5.18286-17.88361q30.73536,8.9502,61.656,17.18817C767.95312,837.35748,766.898,840.96313,764.78442,848.17145Z"/><path class="cls-2" d="M778.3103,774.86224q-19.59411-4.87353-39.11572-10.033c.48438-1.70428.72632-2.556,1.20947-4.25872q19.54982,5.10333,39.16455,9.95465C779.06543,772.25977,778.814,773.1272,778.3103,774.86224Z"/><path class="cls-2" d="M772.00391,796.56342q-19.49525-5.025-38.90308-10.3797c.49072-1.71259.73584-2.56855,1.2251-4.27936q19.43189,5.30446,38.9414,10.31683C772.76221,793.95789,772.50952,794.82635,772.00391,796.56342Z"/><path class="cls-2" d="M765.48682,818.90723Q746.063,813.774,726.74121,808.26385c.49854-1.72222.74756-2.58294,1.24463-4.30322q19.33887,5.468,38.77075,10.60053C766.249,816.29944,765.99512,817.1687,765.48682,818.90723Z"/><path class="cls-2" d="M725.55078,758.9339a3.90879,3.90879,0,0,0,2.59888,4.92053,4.03724,4.03724,0,0,0,4.812-2.95489,3.88348,3.88348,0,0,0-2.60107-4.91266A4.03628,4.03628,0,0,0,725.55078,758.9339Z"/><path class="cls-3" d="M816.33423,769.08539c-.64746,2.25659.43774,4.4516,2.41723,4.89709s4.10157-1.03259,4.74659-3.29583c.645-2.26331-.42871-4.44935-2.40576-4.88819A4.29757,4.29757,0,0,0,816.33423,769.08539Z"/><path class="cls-3" d="M851.04785,648.64929c-.64624,2.229.43067,4.30921,2.38916,4.63977,1.95874.33057,4.05591-1.2196,4.70044-3.45556.64478-2.236-.40576-4.30548-2.36279-4.629C853.81738,644.88092,851.69385,646.42035,851.04785,648.64929Z"/><path class="cls-2" d="M719.58691,780.13971a3.95458,3.95458,0,0,0,2.54786,4.98016,4.0012,4.0012,0,0,0,4.79736-2.94207,3.93137,3.93137,0,0,0-2.552-4.97144A3.99609,3.99609,0,0,0,719.58691,780.13971Z"/><path class="cls-2" d="M713.51587,801.48633a3.80712,3.80712,0,1,0,4.78564-2.93109A3.991,3.991,0,0,0,713.51587,801.48633Z"/><path class="cls-23" d="M773.34375,842.70233c7.8728,2.02448,11.81177,3.00965,19.68872,4.91071"/><path class="cls-2" d="M835.15674,585.554c-1.47827,5.01226,1.26684,9.67889,6.04638,10.3999,4.77955.72094,9.78467-2.79792,11.26685-7.83051,1.48218-5.03253-1.11768-9.65735-5.90137-10.35809C841.78516,577.06451,836.63477,580.54169,835.15674,585.554Z"/><g class="cls-24"><path class="cls-17" d="M834.89893,594.6001c5.16357.7785,7.718,1.16351,12.75976,1.92334l.02271-.0774c1.0935-3.71777-.83814-7.145-4.36377-7.66992h0c-3.52539-.52484-7.30591,2.04242-8.396,5.74689Z"/><path class="cls-17" d="M841.41431,583.50891a2.95063,2.95063,0,0,0,2.28979,3.95661,4.11555,4.11555,0,0,0,4.31494-2.98078,2.93178,2.93178,0,0,0-2.2688-3.9505A4.13934,4.13934,0,0,0,841.41431,583.50891Z"/></g><path class="cls-2" d="M873.39526,593.4646a4.88288,4.88288,0,0,1,3.35254-3.37964,9.48848,9.48848,0,0,0-.19384-2.6684,3.45236,3.45236,0,0,1-1.74415.21326c-1.92675-.28595-2.99023-2.29236-2.35376-4.47424a4.9792,4.9792,0,0,1,.28638-.74555,7.036,7.036,0,0,0-2.01318-.61859,8.31,8.31,0,0,0-3.07056.14948,4.72575,4.72575,0,0,1-4.85889,3.90881,3.08407,3.08407,0,0,1-.95678-.30621,11.85264,11.85264,0,0,0-2.375,4.2633c1.90967.37214,2.93237,2.33356,2.30713,4.469a5.02093,5.02093,0,0,1-1.84253,2.6195,7.23119,7.23119,0,0,0,2.22241,2.57526,4.40578,4.40578,0,0,1,4.21875-2.27508,3.06969,3.06969,0,0,1,2.55859,3.17059,10.94663,10.94663,0,0,0,5.00537-3.42853A3.81128,3.81128,0,0,1,873.39526,593.4646Zm-6.44506,1.26715c-1.73438-.25946-2.69434-2.04266-2.12818-3.97754a4.06486,4.06486,0,0,1,4.17481-3.03387c1.73217.257,2.66626,2.03143,2.102,3.96881A4.03585,4.03585,0,0,1,866.9502,594.73175Z"/><path class="cls-2" d="M277.39771,1080.65173c5.83667-7.27954,12.08007-13.60547,17.3684-15.64831,21.81787-8.428,54.83008-57.64173,54.83008-57.64173,1.26245-45.45263-70.7041-159.08416-70.7041-159.08416s-54.499,26.642-121.34277,61.79254C98.208,941.27539,43.52344,976.02692-.98218,1007.13953v73.5122Z"/><path class="cls-3" d="M266.52612,1080.65173h9.65064c6.58935-8.81689,13.61059-16.09765,18.58935-15.64831,0,0-23.48071-41.01117-44.938-80.74683l22.252,77.88184Z"/><polygon class="cls-3" points="-0.982 1018.945 -0.982 1057.913 9.825 1060.549 128.152 934.355 -0.982 1018.945"/><g class="cls-25"><path class="cls-11" d="M537.84994,706.51792c5.77681-3.738,7.13605-4.41757,29.90369-10.53426,22.76737-6.11662,17.67031-15.29165,15.9712-20.049s-42.81655-.33981-42.81655-.33981-28.20467-10.87406-43.15642-18.01019c-8.09657-3.8643-28.54453,0-28.54453,0-2.09683-3.774-19.30643,2.74751-35.00094,6.79629-9.74175,2.51308-17.887,3.03662-19.70929,4.07777-4.75719,2.71853-15.63133,35.34069-15.63133,35.34069s-6.45656,1.3593-8.49528,3.05834c-2.039,1.69911-16.069,43.97479-23.04168,61.40606-6.97237,17.43126-50.55077,58.39482-54.90837,62.75262-4.35787,4.35787-33.52849,17.26113-33.52849,17.26113L320.70833,922.64c5.09706-9.175,90.05094-27.18515,111.11947-33.98146,17.50557-5.647,55.04992-38.399,60.147-43.8361,5.09733-5.437,51.652-38.05923,51.652-38.05923s35.001-27.525,20.72866-39.75833c-14.2721-12.23331-38.05936,8.83522-42.13707,11.21388-4.0777,2.37873-21.06853,12.57318-30.58317,20.72872-9.5149,8.15554-22.42776,14.27223-22.42776,14.27223-9.85478-16.99076-8.49528-27.18522,1.35923-50.63241S532.07313,710.25589,537.84994,706.51792Zm-56.06955-18.35,14.27236,2.03892c-7.13605,2.71846-24.46675,17.3305-24.46675,17.3305C477.36281,701.08092,481.78039,688.16793,481.78039,688.16793Z"/><path class="cls-9" d="M410.88259,713.78049s34.18433-48.94309,37.56657-53.05009c.95527-1.16,7.32769-2.39114,13.45289-3.80742,6.02456-1.393,7.30528.66166,7.30528.66166l-14.256,5.67941a18.48909,18.48909,0,0,0-7.50688,5.51717Z"/><polygon class="cls-9" points="496.053 690.207 540.908 675.595 536.528 673.929 500.484 685.859 481.78 688.168 496.053 690.207"/><path class="cls-9" d="M469.20741,813.21975l-9.846,5.33593s-2.39839-22.27084,3.76892-33.57758C463.13034,784.9781,464.15822,807.24894,469.20741,813.21975Z"/><polyline class="cls-9" points="398.866 703.799 393.622 715.557 395.145 704.643"/><path class="cls-9" d="M278.892,848.27754s18.75762,31.42251,61.53334,41.01017c23.436,5.25289,101.2284-1.56035,101.2284-1.56035L320.70833,922.64Z"/></g><path class="cls-4" d="M977.95594,371.4824S1015.687,355.012,1005.38,348.1407s-30.921,0-30.921,0Z"/><path class="cls-4" d="M1047.00515,405.50623s-20.13047,38.07664-60.52128,54.29361-101.042,10.57429-107.05438,10.57429c-12.02483,0,244.481,8.32187,244.481,8.32187S1102.37292,416.49028,1047.00515,405.50623Z"/><path class="cls-8" d="M720.02263,259.94787s25.19408,9.59774,26.3938,14.39662a27.25038,27.25038,0,0,0-5.28815-8.58295c-5.50921-6.3412-14.65586-14.01823-18.59841-14.93266C715.69806,249.24433,720.02263,259.94787,720.02263,259.94787Z"/><path class="cls-8" d="M728.2,280.24915s-.54509,3.46554-5.04579,2.96547-.62435-6.71478-.62435-6.71478,2.77531.14928,4.53176.46293a27.80677,27.80677,0,0,1,11.64,4.78662Z"/><path class="cls-8" d="M832.05408,314.78063s16.454,6.58161,13.16321,16.454-9.87241,23.03562-1.6454,21.39021,24.681-23.03561,14.8086-31.26261S845.21729,293.39042,832.05408,314.78063Z"/><path class="cls-8" d="M834.98522,292.44391l-33.42534,101.8677,1.83352,56.75077s-88.21833,16.88988-74.44579,2.56709,24.156-64.5096,41.46183-71.43192,46.72566-72.68437,46.72566-72.68437l6.79507-15.04367C825.10705,292.99841,835.57257,290.65388,834.98522,292.44391Z"/><path class="cls-3" d="M744.35019,321.424s-26.95451-24.38741-35.93935-21.82031-23.10386,70.59514-20.53677,79.58,28.23806,75.72933,41.07354,74.44578S764.887,417.69013,764.887,417.69013s-21.82032-46.20773-20.53677-59.04321S744.35019,321.424,744.35019,321.424Z"/><polygon class="cls-4" points="744.35 358.647 692.734 361.883 696.17 337.834 744.35 358.647"/><polygon class="cls-4" points="751.141 389.369 699.606 406.547 703.041 423.725 751.141 389.369"/><path class="cls-5" d="M876.32224,352.23407s-33.95494,21.44522-38.42269,20.55167,7.14841,16.97747,14.29682,13.40327S876.32224,352.23407,876.32224,352.23407Z"/><path class="cls-5" d="M281.80236,208.60033s-17.55085,99.03694-31.3408,100.29057l0,0c-5.54593-10.29957-21.62353-13.08472-33.13265-15.17728l-3.22267-6.13445L273.02694,209.854"/><g class="cls-26"><path class="cls-3" d="M1694.91992,827.43927c-5.658,6.81616-3.20947,16.32813,4.89282,19.00812l85.17139,28.17224a14.51844,14.51844,0,0,0,15.86719-5.1936l48.1875-64.36738L1735.981,777.97205Z"/><path class="cls-16" d="M1886.23657,769.73578l-142.86108-25.971-15.28125,32.31769,7.88672,1.88953,8.37109-10.08466a14.60879,14.60879,0,0,1,14.1294-4.993l87.16748,19.02783c8.69824,1.89868,12.08886,11.5166,6.63086,18.80744l-3.241,4.329,16.75659,4.01459Z"/><path class="cls-16" d="M1845.64893,781.92224l-87.16748-19.02783a14.60879,14.60879,0,0,0-14.1294,4.993l-8.37109,10.08466,113.05786,27.0866,3.241-4.329C1857.73779,793.43884,1854.34717,783.82092,1845.64893,781.92224Z"/></g><g class="cls-27"><polygon class="cls-17" points="1757.215 787.846 1744.895 804.214 1775.11 812.187 1786.384 796.379 1757.215 787.846"/><line class="cls-28" x1="1769.70242" y1="787.81549" x2="1755.58544" y2="809.9347"/></g><g class="cls-29"><polygon class="cls-17" points="1757.03 820.322 1750.756 828.657 1766.143 832.718 1771.884 824.667 1757.03 820.322"/><line class="cls-30" x1="1753.4912" y1="824.20028" x2="1766.09773" y2="827.6762"/></g><g class="cls-31"><polygon class="cls-17" points="1738.71 814.545 1732.436 822.881 1747.823 826.941 1753.564 818.891 1738.71 814.545"/><line class="cls-30" x1="1735.2632" y1="817.73013" x2="1747.86973" y2="821.20605"/><line class="cls-30" x1="1732.86919" y1="820.28218" x2="1745.47572" y2="823.7581"/></g><line class="cls-32" x1="1763.30677" y1="818.14195" x2="1766.55907" y2="818.29489"/><ellipse class="cls-32" cx="1765.01914" cy="818.15812" rx="3.89441" ry="1.61342" transform="translate(-180.35305 803.93441) rotate(-24.45073)"/><line class="cls-32" x1="1744.99375" y1="811.98668" x2="1748.24605" y2="812.13962"/><ellipse class="cls-32" cx="1746.70612" cy="812.00285" rx="3.89441" ry="1.61342" transform="translate(-179.44768 795.80244) rotate(-24.45073)"/><line class="cls-32" x1="1748.00339" y1="810.7748" x2="1745.23641" y2="813.3515"/><line class="cls-28" x1="1793.99925" y1="866.38059" x2="1835.77869" y2="812.361"/><line class="cls-28" x1="1784.67455" y1="863.18989" x2="1826.2348" y2="809.04933"/><line class="cls-28" x1="1703.1503" y1="831.1486" x2="1757.64738" y2="848.7157"/><line class="cls-28" x1="1705.79106" y1="827.66405" x2="1732.9949" y2="836.36238"/><line class="cls-28" x1="1738.5572" y1="787.75289" x2="1750.85683" y2="790.78538"/><line class="cls-28" x1="1734.5824" y1="795.44832" x2="1745.41308" y2="798.42034"/><polygon class="cls-28" points="1785.339 827.009 1800.539 830.442 1813.668 813.861 1798.394 810.987 1785.339 827.009"/><path class="cls-3" d="M738.72949,324.62012l-.97851-2.83594c3.23212-1.11492,69.84893-24.06382,94.9446-30.25139a27.06955,27.06955,0,0,1,14.33845.36963h0l-6.14145,1.10686C829.36719,293.39355,739.63477,324.30811,738.72949,324.62012Z"/><path class="cls-3" d="M763.86919,418.63416l-1.5-2.59766c.56725-.32784,43.01412-24.96171,70.29445-40.31448,1.81831-1.02331,3.56925-2.00538,5.23591-2.93628,7.293-4.07343,13.62031-5.64158,16.13743-7.23575h0C842.26354,373.007,764.64165,418.18836,763.86919,418.63416Z"/></svg>