<svg width="119" height="120" viewBox="0 0 119 120" fill="none" xmlns="http://www.w3.org/2000/svg">
<g clip-path="url(#clip0)">
<path d="M68.7336 2.55655C85.5615 6.70366 99.164 17.8749 107.692 32.963C116.705 48.9098 122.015 67.683 115.14 84.6616C108.003 102.288 91.5141 114.57 72.9596 118.735C55.0896 122.747 36.7462 116.916 22.449 105.47C8.70587 94.4668 1.2488 78.048 0.189174 60.4749C-0.921054 42.0627 2.63585 22.4501 16.7252 10.5449C30.8203 -1.36507 50.8165 -1.85898 68.7336 2.55655Z" fill="#FFBC78"/>
<path d="M59 68C60.6569 68 62 66.433 62 64.5C62 62.567 60.6569 61 59 61C57.3431 61 56 62.567 56 64.5C56 66.433 57.3431 68 59 68Z" fill="#162E51"/>
<path d="M80.8182 47H37.1818C35.9768 47 35 47.9794 35 49.1875V79.8125C35 81.0206 35.9768 82 37.1818 82H80.8182C82.0232 82 83 81.0206 83 79.8125V49.1875C83 47.9794 82.0232 47 80.8182 47Z" stroke="#162E51" stroke-width="4" stroke-linecap="round" stroke-linejoin="round"/>
<path d="M49 47V37C49 34.3478 50.0536 31.8043 51.9289 29.9289C53.8043 28.0536 56.3478 27 59 27C61.6522 27 64.1957 28.0536 66.0711 29.9289C67.9464 31.8043 69 34.3478 69 37V47" stroke="#162E51" stroke-width="4" stroke-linecap="round" stroke-linejoin="round"/>
</g>
<defs>
<clipPath id="clip0">
<rect width="119" height="120" fill="white"/>
</clipPath>
</defs>
</svg>
