<svg width="800" height="450" viewBox="0 0 800 450" fill="none" xmlns="http://www.w3.org/2000/svg">
<g clip-path="url(#clip0)">
<path d="M181.755 152.684L164.224 119.206L163.643 119.51L181.174 152.988L181.755 152.684Z" fill="#CDE6FF"/>
<path d="M160.853 114.825L163.734 119.716L164.392 119.279L162.974 113.884C162.924 113.728 162.842 113.585 162.733 113.463C162.624 113.341 162.491 113.243 162.342 113.176C162.193 113.109 162.031 113.074 161.868 113.073C161.704 113.072 161.542 113.106 161.393 113.172C161.243 113.238 161.108 113.335 160.998 113.457C160.888 113.578 160.804 113.722 160.753 113.878C160.703 114.034 160.685 114.199 160.702 114.362C160.72 114.525 160.771 114.683 160.853 114.825Z" fill="#E6F3FF"/>
<path d="M672.871 411.843L742.515 337.197L741.219 335.988L671.575 410.634L672.871 411.843Z" fill="#A1D3FF"/>
<path d="M750.666 324.686L740.777 336.406L742.48 337.692L754.962 329.249C755.314 328.982 755.607 328.645 755.82 328.258C756.034 327.872 756.164 327.444 756.202 327.004C756.239 326.564 756.184 326.121 756.04 325.704C755.895 325.286 755.665 324.904 755.363 324.581C755.06 324.257 754.692 324.001 754.283 323.829C753.875 323.657 753.434 323.574 752.991 323.584C752.548 323.593 752.112 323.697 751.711 323.887C751.31 324.077 750.954 324.349 750.666 324.686Z" fill="#A1D3FF"/>
<path d="M83.9382 141.437C83.9382 141.437 88.1169 165.465 66.7007 171.733C45.2845 178.001 40.061 202.551 37.9716 219.266C35.8823 235.981 52.075 253.219 60.4326 254.786C68.7901 256.353 98.0415 225.535 100.653 219.266C103.265 212.998 115.487 152.315 115.487 152.315L100.131 140.392L83.9382 141.437Z" fill="#0B4778"/>
<path d="M334.467 193.019C334.467 193.019 302.927 211.363 294.439 209.666C285.951 207.968 258.79 224.944 255.395 230.037C251.999 235.129 249.453 252.954 249.453 252.954L337.728 262.291L334.467 193.019Z" fill="#A1D3FF"/>
<path d="M154.217 155.135C154.316 153.558 160.711 122.674 157.599 111.554C156.024 105.927 150.482 81.9556 140.316 72.4805C135.216 67.7267 124.119 68.3879 124.119 68.3879C124.119 68.3879 104.454 60.5949 87.5947 73.5316C74.4955 83.5831 66.7687 96.0604 63.0444 110.096C61.2984 116.676 53.1198 138.303 70.3572 155.54C87.57 172.753 99.7398 165.316 102.22 167.554C110.949 175.429 96.5505 173.538 101.784 171.855C129.971 162.793 154.217 155.135 154.217 155.135Z" fill="#0B4778"/>
<path d="M153.161 122.973C153.161 122.973 154.965 111.839 156.986 110.029C157.019 109.565 156.95 109.1 156.784 108.665C156.619 108.231 156.361 107.837 156.029 107.512C155.736 107.197 155.459 106.867 155.199 106.524C153.707 105.683 152.127 105.01 150.488 104.516C146.346 103.225 142.946 86.7573 142.946 86.7573L135.641 81.2887C131.093 77.8935 127.266 75.1401 127.266 75.1401C127.266 75.1401 115.119 99.6917 109.692 105.894C104.265 112.097 93.1518 123.21 93.1518 123.21C86.174 123.21 89.5336 131.221 90.5674 135.615C91.6012 140.008 99.3544 142.851 99.3544 142.851C99.3544 142.851 104.006 160.425 105.04 161.717C106.074 163.009 118.22 176.448 118.22 176.448C128.041 194.539 140.963 202.034 143.806 203.584C148.309 206.041 146.39 188.853 146.39 188.853L140.963 180.325L143.031 151.38C150.272 151.38 154.163 145.92 156.254 140.449C154.639 140.068 153.29 139.654 153.29 139.654L153.161 122.973Z" fill="#A1D3FF"/>
<path d="M158.537 117.782C158.066 114.48 156.728 113.131 156.986 110.029C154.965 111.839 153.161 122.973 153.161 122.973L153.29 139.654C153.29 139.654 154.639 140.068 156.254 140.449C157.409 137.306 158.176 134.034 158.537 130.704C158.821 128.146 159.112 121.818 158.537 117.782Z" fill="#58B4FF"/>
<path d="M150.488 104.516C152.128 105.01 153.708 105.683 155.199 106.524C153.904 104.872 153.099 102.89 152.874 100.804C152.637 98.4038 151.963 95.5332 150.267 93.2309C148.888 91.3599 148.944 91.2347 142.946 86.7573C142.946 86.7573 146.346 103.225 150.488 104.516Z" fill="#58B4FF"/>
<path d="M153.11 111.063C153.11 111.063 148.716 113.647 148.716 116.749L153.11 111.063Z" fill="#112F4E"/>
<path d="M136.053 103.827C136.053 103.827 132.794 101.711 129.118 102.515C126.208 103.152 124.681 106.67 124.681 106.67L129.936 103.697C129.936 103.697 129.611 106.138 131.937 105.88C132.341 105.835 133.39 105.909 133.755 105.789C134.252 105.636 134.712 105.384 135.108 105.046C135.503 104.709 135.824 104.294 136.053 103.827Z" fill="#112F4E"/>
<path d="M152.67 101.515C152.67 101.515 148.851 101.06 148.669 101.97C148.487 102.879 151.546 104.146 151.546 104.146L153.398 103.879L152.67 101.515Z" fill="#112F4E"/>
<path d="M157.622 124.853C157.663 125.059 157.66 125.27 157.614 125.475C157.568 125.679 157.48 125.872 157.356 126.04C157.231 126.208 157.073 126.349 156.89 126.452C156.708 126.556 156.507 126.62 156.298 126.641C152.99 126.997 145.427 127.792 142.868 130.351C142.868 130.351 150.267 123.294 153.161 122.973C154.425 122.832 156.273 122.831 157.019 123.616C157.331 123.965 157.539 124.393 157.622 124.853Z" fill="#112F4E"/>
<path d="M155.968 126.771C156.181 126.737 156.4 126.752 156.606 126.814C156.813 126.876 157.003 126.984 157.163 127.129C157.322 127.274 157.447 127.454 157.528 127.654C157.608 127.854 157.643 128.07 157.629 128.285C157.548 129.471 157.318 130.89 156.698 131.333C155.573 132.137 143.28 131.248 143.28 131.248C143.28 131.248 143.514 129.082 147.373 128.278C149.991 127.733 153.794 127.113 155.968 126.771Z" fill="#0B4778"/>
<path d="M138.089 96.2219L137.728 93.5141C137.728 93.5141 124.73 91.8895 122.564 93.6947C120.398 95.4999 118.954 98.5687 118.954 98.5687C118.954 98.5687 124.189 94.7778 127.077 94.9583C129.965 95.1388 138.089 96.2219 138.089 96.2219Z" fill="#112F4E"/>
<path d="M150.267 93.2308C150.267 93.2308 147.295 92.6116 145.49 94.4168L146.032 96.583L150.725 94.5973L150.267 93.2308Z" fill="#112F4E"/>
<path d="M106.929 155.778C106.929 155.778 94.2838 162.564 88.4235 166.573C82.5633 170.583 63.4405 189.089 61.2815 197.108C59.1225 205.127 52.337 226.101 48.9442 239.363C45.5515 252.626 62.2068 286.862 62.2068 292.105C62.2068 297.349 44.9845 335.294 64.4163 345.473C71.628 349.25 124.681 311.521 139.959 307.277C186.757 294.277 228.765 330.043 228.765 330.043C228.765 330.043 177.872 250.466 178.797 246.764C179.723 243.063 187.125 189.395 186.2 181.992C185.275 174.589 171.395 163.486 164.917 161.635C158.44 159.784 106.929 155.778 106.929 155.778Z" fill="#1A2E4D"/>
<path d="M143.645 168.308C143.645 168.308 166.291 157.394 174.204 163.124C174.204 163.124 169.02 158.486 163.563 158.759C158.106 159.032 143.645 168.308 143.645 168.308Z" fill="#0076D4"/>
<path d="M97.535 129.565C99.1834 127.916 95.3523 134.476 95.3523 134.476C95.3523 134.476 98.6264 136.386 101.355 136.113C104.083 135.84 98.8992 135.021 98.3536 133.93C97.8079 132.839 96.1708 130.929 97.535 129.565Z" fill="#112F4E"/>
<path d="M147.007 152.119C147.007 152.119 117.725 144.025 117.18 143.207C116.634 142.388 112.541 155.485 112.541 155.485L116.088 163.943C116.088 163.943 141.95 179.102 144.678 177.738L147.007 152.119Z" fill="#E6F3FF"/>
<path d="M93.1519 123.21C102.684 123.403 115.27 142.661 117.18 143.207" stroke="white" stroke-miterlimit="10"/>
<path d="M115.487 152.315L103.538 142.661" stroke="white" stroke-miterlimit="10"/>
<path d="M178.286 183.137L184.038 196.491L151.961 207.903C151.961 207.903 143.936 181.676 144.864 174.587C144.864 174.587 152.886 169.349 163.064 171.817C173.242 174.284 178.286 183.137 178.286 183.137Z" fill="#005EA2"/>
<path d="M203.777 219.624C203.777 219.624 186.814 194.949 184.038 194.332C181.262 193.715 148.876 201.735 144.25 211.913C139.623 222.091 135.922 259.72 139.315 262.496L194.216 300.741L247.575 264.655L203.777 219.624Z" fill="#E6F3FF"/>
<path d="M178.286 183.137C178.286 183.137 167.405 163.9 144.864 174.587C144.864 174.587 144.67 177.113 145.447 178.668C146.224 180.222 146.39 188.853 146.39 188.853C146.39 188.853 140.589 187.218 140.783 182.166C140.978 177.113 143.698 170.118 143.698 170.118C143.698 170.118 142.921 148.355 145.058 145.246C147.196 142.137 153.025 134.558 155.357 135.141C155.357 135.141 156.912 127.174 160.798 127.369C160.798 127.369 159.243 120.568 165.073 120.956C165.073 120.956 171.68 123.094 172.457 126.397C172.457 126.397 179.064 127.563 181.007 129.895C182.95 132.227 185.093 140.616 184.31 144.663C183.144 150.687 183.921 164.872 180.812 169.535C177.703 174.199 178.286 183.137 178.286 183.137Z" fill="#2491FF"/>
<path d="M172.457 126.397L173.385 132.566L180.752 135.567C180.752 135.567 177.478 130.656 176.386 129.837C175.295 129.019 172.457 126.397 172.457 126.397Z" fill="#0076D4"/>
<path d="M160.798 127.369L160.561 129.292L164.108 133.112L160.798 127.369Z" fill="#0076D4"/>
<path d="M155.357 135.141L155.651 139.114L158.379 138.568L155.357 135.141Z" fill="#0076D4"/>
<path d="M165.781 223.032C159.223 235.487 149.786 256.207 154.388 264.837C154.388 264.837 176.457 210.514 190.886 210.514L182.106 211.66C178.673 212.109 175.398 213.377 172.557 215.356C169.716 217.335 167.392 219.968 165.781 223.032Z" fill="#A1D3FF"/>
<path d="M148.447 219.851C148.447 219.851 142.505 249.559 148.447 257.198C148.447 257.198 187.491 225.793 195.13 226.641L178.154 258.896L195.503 273.994L184.945 299.638L133.168 263.14C133.168 263.14 139.959 227.49 148.447 219.851Z" fill="#A1D3FF"/>
<path d="M382.904 279.032L366.26 297.211L385.465 269.016L382.904 279.032Z" fill="#58B4FF"/>
<path d="M273.396 236.509C273.396 236.509 310.409 230.032 316.886 217.078C323.363 204.123 334.467 193.019 334.467 193.019L398.314 159.708C398.314 159.708 400.133 156.265 402.446 152.216C404.759 148.168 396.091 147.878 398.867 146.49C404.419 143.714 426.074 137.5 428.85 143.977C431.626 150.455 436.252 168.961 436.252 168.961C436.252 168.961 467.713 180.99 468.638 204.123L453.189 295.553L391.837 328.116L240.084 289.253L273.396 236.509Z" fill="#CDE6FF"/>
<path d="M342.423 200.75C342.423 200.75 339.026 186.338 334.747 187.943C330.469 189.547 312.285 193.291 308.542 191.686C304.798 190.082 301.054 181.525 301.054 181.525C301.054 181.525 295.706 139.275 297.845 129.113C299.985 118.952 301.054 118.417 301.054 115.208C301.054 111.999 299.45 108.791 301.054 104.512C302.659 100.234 305.333 79.9107 319.773 72.4233C319.773 72.4233 343.304 61.1923 353.466 63.8664C363.627 66.5404 379.137 84.724 379.137 84.724C379.137 84.724 402.134 84.724 405.342 91.1418C408.551 97.5595 410.691 137.67 410.691 137.67C408.74 140.012 407.421 142.814 406.86 145.81C406.298 148.805 406.512 151.895 407.482 154.784C408.463 157.878 373.209 172.89 354.337 185.485C344.348 192.152 342.423 200.75 342.423 200.75Z" fill="#005EA2"/>
<path d="M314.424 74.0277C314.424 74.0277 333.143 71.3537 331.538 75.0974C329.934 78.8411 325.655 80.4455 327.795 85.2588C329.934 90.0721 341.165 94.3506 341.7 100.768C342.235 107.186 344.909 115.208 344.909 117.347C344.909 119.487 336.886 122.161 343.304 122.696C349.722 123.23 350.792 121.091 352.931 121.626C355.07 122.161 361.488 126.974 366.301 131.787C371.114 136.601 382.345 146.227 389.298 146.227C396.251 146.227 406.947 138.74 410.69 137.67C414.434 136.601 416.771 130.748 418.375 122.192C419.979 113.635 422.456 106.651 421.921 101.838C421.387 97.0246 418.071 94.9386 415.396 89.0557C412.722 83.1727 412.295 78.3062 409.086 75.0974C405.877 71.8885 406.412 67.0752 400.529 64.9359C394.646 62.7967 391.972 66.0056 388.763 61.1923C385.554 56.379 382.345 54.2397 378.067 54.7745C373.788 55.3093 375.928 56.9138 368.44 54.2397C360.953 51.5656 365.766 50.496 360.953 51.5656C356.14 52.6353 354.535 54.2397 349.722 53.7049C344.909 53.1701 342.235 51.5656 340.63 53.1701C339.026 54.7745 336.352 56.3789 331.003 56.9138C325.655 57.4486 321.912 58.5182 320.307 60.6574C318.703 62.7967 315.494 64.4011 316.564 66.0056C317.633 67.61 316.029 68.6796 313.355 70.284C310.681 71.8885 311.215 74.0277 314.424 74.0277Z" fill="#1A2E4D"/>
<path d="M477.285 351.289C479.512 347.303 516.239 309.145 524.582 300.419C525.881 299.047 526.635 297.247 526.701 295.358L529.957 210.805C530.03 209.102 528.956 203.246 527.491 204.001L516.049 206.159C511.84 208.517 507.511 213.384 506.532 218.264C506.532 218.264 478.483 331.408 475.91 336.702L477.285 351.289Z" fill="#CDE6FF"/>
<path d="M379.029 194.841L363.922 198.783C363.922 198.783 355.243 202.069 349.779 220.467C346.115 232.804 331.171 282.694 321.535 313.234C317.306 326.641 325.671 339.186 339.325 341.101L456.749 357.575C461.554 358.282 466.461 357.591 470.884 355.582C474.742 353.797 478.727 350.764 480.916 345.61C486.067 333.485 507.925 234.265 507.925 234.265C507.925 234.265 511.005 212.865 519.213 208.361C523.597 205.955 526.137 204.661 527.491 204.001C527.564 203.965 527.623 203.906 527.658 203.833C527.694 203.76 527.705 203.677 527.689 203.598C527.674 203.518 527.632 203.446 527.572 203.392C527.511 203.338 527.434 203.305 527.353 203.299L379.029 194.841Z" fill="#A1D3FF"/>
<path d="M380.497 194.884L365.881 198.763C365.881 198.763 357.484 201.996 352.198 220.098C348.653 232.237 334.195 281.325 324.873 311.374C320.781 324.565 328.874 336.909 342.084 338.793L455.689 355.002C460.341 355.697 465.095 355.016 469.364 353.041C473.097 351.285 476.952 348.3 479.07 343.23C484.054 331.299 505.2 233.675 505.2 233.675C505.2 233.675 508.181 212.619 516.121 208.187C520.363 205.82 522.82 204.547 524.13 203.897C524.201 203.861 524.258 203.803 524.292 203.732C524.327 203.66 524.338 203.58 524.323 203.502C524.307 203.424 524.268 203.353 524.209 203.3C524.15 203.247 524.076 203.214 523.997 203.207L380.497 194.884Z" fill="#E6F3FF"/>
<path d="M387.482 312.243C387.482 312.243 386.75 319.966 376.72 318.803C366.689 317.64 351.828 315.701 351.828 315.701C351.828 315.701 342.541 316.089 344.269 306.987L387.482 312.243Z" fill="#CDE6FF"/>
<path d="M364.699 198.962C362.183 199.579 512.879 211.743 512.879 211.743C512.879 211.743 470.736 208.939 459.433 202.332C455.771 200.148 451.636 198.876 447.379 198.625L380.497 194.884C380.497 194.884 373.053 196.913 364.699 198.962Z" fill="#CDE6FF"/>
<path d="M434.303 207.905L429.149 219.69C427.384 223.727 425.931 227.894 424.804 232.154L405.387 305.497C404.069 310.476 399.469 313.708 394.554 313.11L344.269 306.987C340.084 306.477 337.368 302.131 338.607 297.928L361.488 220.313C361.488 220.313 364.46 207.905 370.404 204.027" stroke="#58B2FF" stroke-width="0.55738" stroke-miterlimit="10"/>
<path d="M433.434 245.037L423.866 280.506C423.774 280.824 423.751 281.158 423.799 281.485C423.846 281.813 423.963 282.126 424.142 282.405C424.32 282.684 424.556 282.921 424.834 283.101C425.112 283.282 425.425 283.401 425.752 283.45L477.62 289.861C478.181 289.921 478.743 289.768 479.195 289.432C479.648 289.096 479.957 288.602 480.062 288.049L487.994 250.449C488.068 250.131 488.073 249.801 488.01 249.48C487.947 249.16 487.817 248.856 487.628 248.59C487.44 248.323 487.197 248.1 486.915 247.934C486.634 247.768 486.321 247.663 485.996 247.627L435.764 243.347C435.239 243.31 434.717 243.459 434.291 243.768C433.865 244.077 433.562 244.526 433.434 245.037Z" fill="#0B4778"/>
<path d="M486.511 255.798L483.208 271.505L464.796 268.983L468.559 254.021L486.511 255.798Z" fill="#58B2FF"/>
<path d="M487.882 255.226L431.393 249.608C431.393 249.608 430.822 243.022 434.817 242.634C438.811 242.247 488.262 246.315 488.262 246.315L487.882 255.226Z" fill="#58B2FF"/>
<path d="M429.528 265.929L483.208 271.506" stroke="#CFE8FF" stroke-width="0.55738" stroke-miterlimit="10"/>
<path d="M467.439 253.791L460.662 286.88" stroke="#CFE8FF" stroke-width="0.55738" stroke-miterlimit="10"/>
<path d="M447.721 251.801L440.944 284.89" stroke="#CFE8FF" stroke-width="0.55738" stroke-miterlimit="10"/>
<path d="M522.808 242.665L522.21 242.704C522.076 242.715 521.95 242.776 521.859 242.875C521.767 242.974 521.715 243.103 521.713 243.238L521.394 253.65C521.388 253.74 521.405 253.83 521.444 253.911C521.482 253.992 521.54 254.063 521.612 254.116C521.685 254.169 521.77 254.202 521.859 254.214C521.948 254.225 522.038 254.214 522.122 254.181L522.898 253.855C522.996 253.812 523.08 253.741 523.139 253.652C523.198 253.562 523.229 253.457 523.23 253.35L523.371 243.225C523.374 243.15 523.361 243.076 523.334 243.007C523.306 242.937 523.265 242.874 523.212 242.821C523.159 242.769 523.096 242.728 523.026 242.701C522.957 242.674 522.883 242.661 522.808 242.665Z" fill="#58B2FF"/>
<path d="M513.756 399.469L412.834 384.078L412.566 385.83L513.489 401.221L513.756 399.469Z" fill="#CDE6FF"/>
<path d="M397.905 384.406L413.161 385.96L413.262 383.828L399.249 378.285C398.83 378.145 398.387 378.093 397.947 378.135C397.507 378.177 397.081 378.311 396.696 378.528C396.312 378.745 395.977 379.041 395.714 379.395C395.451 379.75 395.265 380.156 395.169 380.587C395.072 381.02 395.068 381.468 395.157 381.903C395.246 382.337 395.425 382.748 395.683 383.109C395.941 383.469 396.273 383.771 396.656 383.995C397.039 384.218 397.464 384.359 397.905 384.406Z" fill="#E6F3FF"/>
<path d="M715.364 264.609L712.787 216.104C712.787 216.104 711.615 195.249 693.807 196.655L685.137 202.982L627.597 196.389C621.57 195.698 614.84 185.642 614.84 185.642C614.84 185.642 608.513 182.596 597.265 188.454C592.1 191.145 579.371 201.547 567.116 212.009C571.263 211.255 575.492 211.056 579.691 211.418C597.5 212.589 664.751 224.54 664.751 224.54C664.943 224.59 665.133 224.642 665.319 224.697C672.866 226.9 677.393 234.616 675.89 242.332C672.117 261.701 659.351 327.039 657.955 331.625C656.421 336.666 655.912 364.865 655.852 368.496C655.852 368.496 706.593 308.262 710.518 299.147C713.57 292.058 716.082 281.114 715.364 264.609Z" fill="#0B4778"/>
<path d="M675.89 242.332C677.393 234.616 672.866 226.9 665.319 224.697C665.132 224.643 664.943 224.59 664.751 224.54C664.751 224.54 597.5 212.589 579.691 211.418C575.492 211.056 571.263 211.255 567.116 212.009C557.277 220.408 547.748 228.843 542.68 233.36C544.329 232.124 546.209 231.228 548.208 230.726C550.207 230.223 552.287 230.123 554.325 230.431L642.244 243.664C649.838 244.807 653.967 253.738 652.8 261.329C650.254 277.887 647.217 304.762 645.067 329.751C643.132 352.247 645.47 372.161 644.648 376.268C643.45 382.259 639.12 384.074 635.425 384.484C637.763 384.224 639.703 383.984 641.846 382.926C643.945 381.89 645.851 380.501 647.482 378.821C648.166 378.016 648.884 377.168 649.626 376.291L655.852 368.496C655.912 364.865 656.421 336.666 657.955 331.626C659.351 327.039 672.117 261.701 675.89 242.332Z" fill="#0076D6"/>
<path d="M632.761 260.692L551.8 249.602C551.362 249.542 550.917 249.654 550.559 249.915C550.201 250.177 549.959 250.566 549.883 251.003L547.188 266.432L541.179 300.83C541.129 301.119 541.136 301.415 541.201 301.701C541.266 301.987 541.386 302.257 541.556 302.496C541.726 302.735 541.942 302.937 542.19 303.092C542.439 303.247 542.716 303.351 543.005 303.399L579.229 309.302L623.692 316.549C624.206 316.633 624.732 316.511 625.158 316.211C625.583 315.91 625.873 315.454 625.966 314.942L635.168 264.008C635.236 263.631 635.227 263.245 635.142 262.872C635.057 262.498 634.897 262.146 634.672 261.837C634.447 261.527 634.162 261.266 633.833 261.069C633.505 260.872 633.14 260.744 632.761 260.692Z" fill="#112F4E"/>
<path d="M627.15 346.127L604.742 343.438L597.554 342.576C596.813 342.478 596.059 342.53 595.338 342.728C594.617 342.927 593.943 343.268 593.356 343.731C592.769 344.194 592.28 344.77 591.92 345.426C591.559 346.081 591.333 346.802 591.256 347.545L590.504 354.765L616.833 359.616L628.544 361.774L628.889 353.402C629.012 350.861 628.409 348.338 627.15 346.127Z" fill="#0B4778"/>
<path d="M642.243 243.664L554.325 230.431C552.287 230.123 550.207 230.223 548.208 230.726C546.209 231.228 544.329 232.124 542.679 233.36C542.053 233.918 541.491 234.42 541.009 234.851C540.672 235.153 540.357 235.479 540.069 235.828L540.058 235.842C539.202 236.896 538.585 238.124 538.25 239.439L525.263 292.173L519.211 316.748C518.297 320.236 517.982 323.854 518.28 327.448L521.11 361.619C521.101 363.807 521.888 365.925 523.324 367.576C524.76 369.227 526.748 370.3 528.916 370.595L564.046 375.551L579.958 377.645L585.348 378.594L584.67 378.27C583.645 377.78 582.806 376.97 582.279 375.963L581.961 375.355V342.066C581.961 341.015 582.19 339.977 582.632 339.024C583.074 338.071 583.718 337.225 584.52 336.546C585.322 335.867 586.262 335.371 587.276 335.093C588.289 334.814 589.351 334.76 590.387 334.933L599.528 336.463L617.678 339.501C620.923 340.046 623.856 341.762 625.922 344.323C627.988 346.885 629.044 350.115 628.889 353.402L628.544 361.774L628.541 361.858L628.308 367.514L628.015 374.649L627.633 383.919C627.633 383.919 632.334 384.828 635.424 384.484C639.12 384.074 643.45 382.259 644.648 376.268C645.47 372.161 643.132 352.247 645.067 329.751C647.217 304.762 650.254 277.887 652.8 261.329C653.967 253.738 649.838 244.807 642.243 243.664ZM635.168 264.008L625.966 314.942C625.873 315.455 625.583 315.91 625.157 316.211C624.732 316.511 624.206 316.633 623.692 316.549L579.229 309.302L543.005 303.399C542.716 303.352 542.439 303.247 542.19 303.092C541.941 302.938 541.726 302.735 541.556 302.496C541.386 302.257 541.265 301.987 541.201 301.701C541.136 301.415 541.129 301.119 541.179 300.831L547.188 266.432L549.883 251.003C549.959 250.566 550.201 250.177 550.559 249.915C550.917 249.654 551.362 249.542 551.8 249.602L632.761 260.692C633.14 260.744 633.505 260.873 633.833 261.069C634.162 261.266 634.447 261.527 634.672 261.837C634.897 262.146 635.057 262.499 635.142 262.872C635.227 263.245 635.236 263.631 635.168 264.008V264.008Z" fill="#0B4778"/>
<path d="M616.833 359.616L590.504 354.765L591.255 347.545C591.333 346.802 591.559 346.081 591.92 345.426C592.28 344.77 592.769 344.194 593.356 343.731C593.943 343.268 594.617 342.927 595.338 342.728C596.059 342.53 596.813 342.478 597.554 342.576L604.742 343.438L627.15 346.127C626.164 344.387 624.802 342.889 623.163 341.743C621.525 340.597 619.65 339.831 617.678 339.501L599.528 336.463L590.387 334.933C589.351 334.76 588.289 334.814 587.276 335.093C586.263 335.371 585.322 335.867 584.52 336.546C583.718 337.225 583.074 338.071 582.632 339.024C582.19 339.977 581.961 341.015 581.961 342.066V374C581.961 375.131 582.369 376.224 583.111 377.078C583.853 377.932 584.879 378.489 585.999 378.647L627.633 383.919L628.015 374.649L628.308 367.514L628.541 361.858L628.545 361.774L616.833 359.616Z" fill="#005EA2"/>
<path d="M613.932 185.429C613.932 185.429 610.902 185.583 606.718 188.053C604.286 189.489 578.783 211.205 578.783 211.205L601.03 213.797L624.08 195.537C624.08 195.537 620.846 194.779 613.932 185.429Z" fill="#112F4E"/>
<path d="M715.364 264.609L657.955 331.626L656.563 340.261C656.433 341.066 656.361 341.88 656.345 342.695L655.852 368.496L704.817 308.165C711.658 299.736 715.387 289.209 715.377 278.354L715.364 264.609Z" fill="#112F4E"/>
<path d="M628.445 360.77L581.82 352.227L581.538 362.943L628.071 371.404L628.445 360.77Z" fill="#0076D6"/>
<path d="M522.974 301.731L519.297 316.662C518.383 320.15 518.068 323.768 518.366 327.361L521.197 361.533C521.187 363.721 521.974 365.838 523.41 367.49C524.846 369.141 526.834 370.214 529.002 370.509L564.132 375.465L580.045 377.559L585.434 378.508L584.757 378.184C583.731 377.694 582.892 376.885 582.365 375.877C582.156 375.478 582.047 375.034 582.047 374.583V341.98C582.047 340.929 582.276 339.891 582.718 338.938C583.16 337.985 583.804 337.139 584.606 336.46C585.408 335.781 586.349 335.285 587.362 335.007C588.375 334.728 589.437 334.674 590.473 334.847L599.615 336.377L617.764 339.415C621.009 339.96 623.942 341.675 626.008 344.237C628.074 346.799 629.13 350.029 628.975 353.316L628.63 361.688L628.627 361.772L628.394 367.428L628.101 374.563L627.719 383.833C627.719 383.833 632.42 384.742 635.511 384.398C639.206 383.988 643.536 382.173 644.734 376.182C645.479 372.458 643.627 355.743 644.717 335.89L576.397 326.392C556.544 323.631 537.954 315.049 522.974 301.731Z" fill="#112F4E"/>
<path d="M549.558 266.593C549.558 266.593 556.898 268.428 557.745 270.263C558.591 272.098 564.519 277.461 563.673 278.731C562.978 279.717 562.224 280.66 561.414 281.554C561.414 281.554 561.132 283.954 559.015 283.53C556.898 283.107 558.027 283.248 558.027 283.248C558.027 283.248 556.615 284.518 556.051 284.377C555.486 284.236 554.075 285.365 552.805 284.8C551.534 284.236 548.288 282.966 547.441 282.26L549.558 266.593Z" fill="#A1D3FF"/>
<path d="M559.72 281.131L559.862 287.765L566.213 295.668L567.201 288.329L559.72 281.131Z" fill="#A1D3FF"/>
<path d="M632.767 270.052L597.01 264.882L597.951 258.73L633.708 263.9L632.767 270.052Z" fill="white"/>
<path d="M631.358 277.8L595.601 272.631L596.542 266.479L632.3 271.649L631.358 277.8Z" stroke="#0B4778" stroke-width="0.80827" stroke-miterlimit="10"/>
<path d="M629.95 285.549L594.192 280.38L595.133 274.228L630.891 279.398L629.95 285.549Z" stroke="#0B4778" stroke-width="0.80827" stroke-miterlimit="10"/>
<path d="M623.786 314.43L588.108 308.321L589.622 299.99L625.149 305.847L623.786 314.43Z" fill="#0076D6"/>
<path d="M604.87 305.201L604.465 308.706C604.459 308.757 604.466 308.808 604.483 308.856C604.501 308.904 604.53 308.947 604.567 308.982C604.605 309.017 604.65 309.042 604.699 309.057C604.748 309.071 604.8 309.073 604.85 309.063L608.356 308.389C608.415 308.378 608.47 308.35 608.515 308.309C608.559 308.268 608.591 308.216 608.608 308.158C608.624 308.1 608.624 308.038 608.607 307.98C608.591 307.922 608.558 307.87 608.514 307.829L605.413 304.997C605.368 304.957 605.314 304.93 605.255 304.918C605.196 304.907 605.135 304.912 605.079 304.933C605.023 304.954 604.974 304.99 604.937 305.037C604.9 305.085 604.877 305.141 604.87 305.201Z" fill="white"/>
<path d="M569.405 266.152C569.306 266.211 569.223 266.294 569.162 266.392C569.102 266.491 569.067 266.602 569.059 266.718C569.051 266.833 569.072 266.948 569.119 267.054C569.166 267.159 569.237 267.252 569.328 267.324C571.784 269.264 578.899 275.07 578.127 276.612C577.369 278.129 573.522 286.03 572.123 288.903C571.785 289.597 571.542 290.334 571.4 291.093L570.825 294.157C570.81 294.237 570.816 294.319 570.842 294.395C570.867 294.472 570.912 294.541 570.972 294.595C571.032 294.65 571.104 294.688 571.183 294.706C571.262 294.725 571.344 294.723 571.421 294.701L574.781 293.741C574.856 293.719 574.925 293.679 574.981 293.625C575.037 293.57 575.079 293.502 575.103 293.428L576.887 287.778L584.973 274.84C585.312 274.297 585.447 273.65 585.351 273.017C585.256 272.384 584.937 271.806 584.453 271.387L575.107 263.304C574.993 263.206 574.851 263.146 574.701 263.133C574.551 263.12 574.401 263.155 574.272 263.232L569.405 266.152Z" fill="#0076D6"/>
<path d="M542.798 378.028L525.989 401.375C525.705 401.769 525.528 402.23 525.476 402.713C525.424 403.196 525.499 403.684 525.692 404.13C525.886 404.575 526.192 404.963 526.58 405.254C526.969 405.546 527.426 405.732 527.908 405.793L596.834 414.603C597.487 414.687 598.148 414.538 598.702 414.183C599.256 413.828 599.667 413.29 599.864 412.662L607.307 388.939C607.429 388.551 607.464 388.141 607.412 387.737C607.359 387.334 607.22 386.947 607.003 386.603C606.786 386.259 606.496 385.967 606.155 385.746C605.813 385.525 605.428 385.381 605.025 385.324L545.466 376.891C544.96 376.819 544.444 376.887 543.973 377.088C543.503 377.288 543.097 377.613 542.798 378.028Z" fill="#E6F3FF"/>
<path d="M204.402 215.86L168.691 334.152C168.438 334.99 168.354 335.869 168.443 336.74C168.531 337.61 168.792 338.455 169.208 339.224C169.625 339.994 170.19 340.673 170.871 341.223C171.551 341.773 172.334 342.183 173.174 342.429L333.758 389.463C334.845 389.782 335.984 389.882 337.11 389.758C338.236 389.634 339.326 389.289 340.318 388.742C341.31 388.195 342.184 387.458 342.889 386.572C343.595 385.686 344.118 384.669 344.429 383.579L383.962 245.08C384.303 243.884 384.382 242.629 384.195 241.4C384.007 240.171 383.556 238.997 382.873 237.958C382.191 236.919 381.292 236.039 380.238 235.379C379.185 234.719 378.001 234.293 376.768 234.132L209.918 212.296C208.725 212.14 207.516 212.412 206.505 213.065C205.495 213.718 204.75 214.709 204.402 215.86Z" fill="#112F4E"/>
<path d="M213.85 219.028L178.608 336.297L330.207 378.222L369.095 240.902L213.85 219.028Z" fill="white"/>
<path d="M391.576 462.377C390.968 459.339 387.323 417.11 387.323 417.11C387.323 417.11 349.043 399.185 314.105 421.971L287.674 462.377H391.576Z" fill="#E6F3FF"/>
<path d="M314.105 421.971L309.559 443.103L324.471 444.168L302.635 458.548C302.635 458.548 379.324 446.831 391.576 462.377H287.674L314.105 421.971Z" fill="#CDE6FF"/>
<path d="M329.6 414.072C328.743 414.384 344.182 390.982 342.967 380.653C341.752 370.324 342.663 326.879 351.777 314.727C360.892 302.575 366.36 294.676 366.664 290.119C366.968 285.562 370.613 266.422 380.639 265.51C390.665 264.599 387.93 282.22 387.93 282.22L386.715 287.385C386.715 287.385 401.905 306.524 400.386 312.904C398.867 319.284 387.627 373.362 385.5 375.184C380.639 386.425 383.069 415.894 383.069 415.894C383.069 415.894 352.081 405.869 329.6 414.072Z" fill="#2491FF"/>
<path d="M386.715 287.385C386.715 287.385 378.515 323.782 380.316 318.68C381.779 314.537 389.82 291.873 389.82 291.873L386.715 287.385Z" fill="#0076D4"/>
<path d="M343.604 352.918C343.604 352.918 343.289 389.418 354.108 396.955C362.169 402.57 383.26 417.225 383.069 415.894C383.069 415.894 369.056 417.559 325.536 415.41L337.156 379.476L343.604 352.918Z" fill="#0076D4"/>
<path d="M330.207 378.223C277.64 366.952 227.701 344.806 174.373 337.019C190.129 298.45 200.925 258.622 213.827 219.095C265.635 225.922 317.378 233.349 369.073 240.975C355.923 286.669 342.967 332.418 330.207 378.223Z" fill="#E6F3FF"/>
<path d="M365.286 253.347C313.654 245.498 262.086 236.754 210.286 230.075C211.638 225.783 212.343 223.586 213.85 219.028C265.584 225.848 317.254 233.257 368.877 240.87C367.678 245.029 366.481 249.187 365.286 253.347Z" fill="white"/>
<path d="M256.8 236.782C246.88 235.293 236.957 233.826 227.031 232.382C228.074 227.998 228.618 225.767 229.787 221.173C239.671 222.521 249.554 223.884 259.434 225.261C258.53 229.095 257.652 232.935 256.8 236.782Z" fill="#005EA0"/>
<path d="M297.626 254.177C268.211 249.239 238.809 243.97 209.261 239.867C209.944 237.507 210.292 236.315 211.007 233.897C240.535 237.852 269.947 242.762 299.37 247.415C298.667 250.126 298.319 251.478 297.626 254.177Z" fill="white"/>
<path d="M297.626 254.177C294.43 253.641 292.834 253.373 289.659 252.84C290.321 250.168 290.654 248.83 291.328 246.144C294.533 246.65 296.144 246.905 299.37 247.415C298.667 250.126 298.319 251.478 297.626 254.177Z" fill="#248FFF"/>
<path d="M345.081 311.832C296.047 301.203 247.846 286.145 198.487 277.084C201.666 266.226 204.709 255.329 207.807 244.448C257.768 251.584 307.331 261.675 357.104 269.99C353.081 283.933 349.073 297.88 345.081 311.832Z" fill="white"/>
<path d="M330.891 361.705C281.444 349.886 234.046 329.925 183.982 320.708C188.496 308.44 192.739 296.082 196.538 283.573C245.865 292.863 293.8 308.95 342.755 319.974C338.787 333.88 334.832 347.791 330.891 361.705Z" fill="white"/>
<path d="M326.471 377.338C276.286 366.092 228.431 345.468 177.533 337.361C179.149 333.332 179.914 331.383 181.373 327.593C231.752 336.412 279.283 356.745 328.998 368.394C327.982 371.986 327.477 373.776 326.471 377.338Z" fill="white"/>
<path d="M266.869 290.299C245.467 285.024 224.056 279.555 202.397 275.415C203.15 272.68 203.516 271.325 204.242 268.624C225.847 272.57 247.247 277.68 268.643 282.604C267.94 285.673 267.586 287.211 266.869 290.299Z" stroke="#E6F3FF" stroke-width="0.6741" stroke-miterlimit="10"/>
<path d="M255.277 337.153C233.383 330.295 211.464 323.576 188.955 319.018C190.136 315.653 190.697 314.015 191.771 310.81C214.046 315.462 235.796 322.089 257.525 328.783C256.651 332.095 256.203 333.768 255.277 337.153Z" stroke="#E6F3FF" stroke-width="0.6741" stroke-miterlimit="10"/>
<path d="M310.792 264.561C307.601 276.344 304.416 288.129 301.237 299.915" stroke="#E6F3FF" stroke-width="0.6741" stroke-miterlimit="10"/>
<path d="M287.642 230.049C286.633 234.028 285.642 238.012 284.67 242" stroke="#E6F3FF" stroke-width="0.6741" stroke-miterlimit="10"/>
<path d="M313.244 233.686C312.119 237.752 311.007 241.82 309.908 245.893" stroke="#E6F3FF" stroke-width="0.6741" stroke-miterlimit="10"/>
<path d="M298.23 310.933C294.885 323.089 291.465 335.224 287.969 347.337L298.23 310.933Z" fill="white"/>
<path d="M220.915 254.799C217.072 254.119 213.223 253.469 209.369 252.847C209.669 251.696 209.819 251.119 210.121 249.962C214.254 250.608 216.569 250.991 221.568 251.843C221.305 253.028 221.175 253.619 220.915 254.799Z" fill="#58B2FF"/>
<path d="M236.658 257.651C232.087 256.809 227.517 255.967 222.941 255.156C223.197 253.972 223.326 253.379 223.585 252.189C228.154 252.975 232.717 253.789 237.281 254.603C237.03 255.825 236.906 256.434 236.658 257.651Z" fill="#58B2FF"/>
<path d="M332.669 305.243C323.859 303.268 315.064 301.235 306.282 299.144C307.078 296.255 307.475 294.813 308.266 291.932C317.114 293.916 325.971 295.857 334.837 297.756C333.97 300.749 333.537 302.246 332.669 305.243Z" stroke="#58B2FF" stroke-width="0.6741" stroke-miterlimit="10"/>
<path d="M218.018 295.253C211.728 293.719 205.422 292.272 199.099 290.911C199.458 289.686 199.634 289.078 199.982 287.868C206.266 289.194 212.525 290.613 218.76 292.125C218.468 293.37 218.319 293.996 218.018 295.253Z" fill="#58B2FF"/>
<path d="M232.603 299.014C228.818 298.005 225.026 297.019 221.226 296.058C221.524 294.794 221.671 294.166 221.96 292.915C225.755 293.857 229.544 294.825 233.327 295.817C233.041 297.09 232.897 297.73 232.603 299.014Z" fill="#58B2FF"/>
<path d="M247.211 302.978C243.233 301.879 239.251 300.795 235.266 299.725C235.56 298.436 235.705 297.794 235.991 296.515C239.985 297.565 243.975 298.63 247.961 299.71C247.664 301.012 247.514 301.666 247.211 302.978Z" fill="#58B2FF"/>
<path d="M217.925 262.325C213.562 261.503 211.506 261.128 207.718 260.474C207.929 259.657 208.034 259.248 208.245 258.43C212.001 259.067 214.045 259.432 218.39 260.235C218.204 261.071 218.111 261.489 217.925 262.325Z" fill="#CDE6FF"/>
<path d="M217.179 265.67C212.789 264.816 210.714 264.426 206.872 263.744C207.084 262.926 207.19 262.517 207.401 261.7C211.21 262.365 213.273 262.745 217.646 263.579C217.459 264.415 217.366 264.833 217.179 265.67Z" fill="#E6F3FF"/>
<path d="M233.064 268.88C229.078 268.048 225.089 267.235 221.096 266.44C221.278 265.597 221.369 265.175 221.55 264.332C225.539 265.108 229.524 265.904 233.505 266.719C233.329 267.583 233.241 268.015 233.064 268.88Z" fill="#E6F3FF"/>
<path d="M260.696 274.782C253.467 273.215 246.235 271.662 238.999 270.124C239.178 269.249 239.267 268.812 239.445 267.937C246.698 269.442 253.947 270.963 261.192 272.502C260.994 273.414 260.895 273.869 260.696 274.782Z" fill="#E6F3FF"/>
<path d="M253.1 269.384C248.638 268.459 244.175 267.54 239.712 266.626C239.889 265.751 239.978 265.314 240.156 264.439C244.629 265.33 249.101 266.23 253.57 267.141C253.382 268.038 253.288 268.487 253.1 269.384Z" fill="#CDE6FF"/>
<path d="M289.716 277.063C283.415 275.74 277.114 274.416 270.814 273.091C271.025 272.164 271.13 271.701 271.341 270.774C277.666 272.073 283.99 273.372 290.315 274.67C290.075 275.627 289.956 276.106 289.716 277.063Z" fill="#CDE6FF"/>
<path d="M262.435 271.333C259.215 270.658 257.621 270.325 254.481 269.671C254.671 268.772 254.766 268.322 254.956 267.422C258.104 268.063 259.702 268.389 262.934 269.05C262.734 269.963 262.635 270.42 262.435 271.333Z" fill="#CDE6FF"/>
<path d="M227.454 264.165C225.226 263.726 224.136 263.514 222.012 263.104C222.193 262.261 222.283 261.839 222.464 260.996C224.583 261.395 225.671 261.603 227.897 262.032C227.72 262.886 227.631 263.312 227.454 264.165Z" fill="#CDE6FF"/>
<path d="M233.978 265.465C231.641 264.995 230.495 264.766 228.252 264.323C228.429 263.468 228.518 263.041 228.694 262.186C230.935 262.62 232.081 262.843 234.418 263.303C234.242 264.168 234.154 264.6 233.978 265.465Z" fill="#CDE6FF"/>
<path d="M208.624 301.138C204.832 300.218 201.024 299.359 197.199 298.559C197.476 297.651 197.613 297.2 197.883 296.303C202.272 297.219 204.548 297.735 209.23 298.856C208.991 299.764 208.87 300.221 208.624 301.138Z" fill="#CDE6FF"/>
<path d="M207.621 304.839C203.788 303.903 199.937 303.031 196.069 302.223C196.358 301.298 196.5 300.838 196.781 299.924C200.617 300.722 204.441 301.587 208.253 302.519C208.004 303.442 207.877 303.906 207.621 304.839Z" fill="#E6F3FF"/>
<path d="M224.133 309.113C220.037 307.989 215.928 306.909 211.807 305.873C212.055 304.936 212.178 304.47 212.42 303.543C216.529 304.568 220.627 305.639 224.714 306.755C224.484 307.694 224.368 308.166 224.133 309.113Z" fill="#E6F3FF"/>
<path d="M251.043 316.831C244.056 314.769 237.06 312.743 230.054 310.752C230.287 309.799 230.403 309.325 230.631 308.38C237.647 310.347 244.65 312.356 251.641 314.406C251.404 315.373 251.284 315.858 251.043 316.831Z" fill="#E6F3FF"/>
<path d="M243.989 310.642C239.654 309.403 235.318 308.166 230.971 306.966C231.196 306.025 231.308 305.557 231.528 304.624C235.878 305.813 240.217 307.037 244.557 308.262C244.332 309.211 244.218 309.687 243.989 310.642Z" fill="#CDE6FF"/>
<path d="M278.535 320.729C272.625 319.001 266.716 317.27 260.808 315.534C261.051 314.56 261.172 314.075 261.413 313.106C267.339 314.823 273.265 316.538 279.193 318.251C278.931 319.24 278.799 319.736 278.535 320.729Z" fill="#CDE6FF"/>
<path d="M252.893 313.219C249.839 312.33 248.322 311.889 245.314 311.023C245.544 310.067 245.658 309.59 245.884 308.64C248.897 309.497 250.417 309.933 253.478 310.814C253.246 311.774 253.129 312.255 252.893 313.219Z" fill="#CDE6FF"/>
<path d="M218.642 303.651C216.352 303.055 215.219 302.766 212.98 302.207C213.218 301.285 213.335 300.826 213.567 299.913C215.798 300.467 216.928 300.753 219.213 301.343C218.987 302.262 218.873 302.724 218.642 303.651Z" fill="#CDE6FF"/>
<path d="M225.266 305.407C222.921 304.774 221.759 304.465 219.462 303.865C219.692 302.936 219.805 302.474 220.03 301.554C222.323 302.148 223.483 302.454 225.825 303.08C225.604 304.007 225.492 304.472 225.266 305.407Z" fill="#CDE6FF"/>
<path d="M350.949 292.195C335.846 289.285 320.784 286.179 305.735 283.002C306.822 278.969 307.364 276.956 308.451 272.93C323.63 275.859 338.816 278.741 354.031 281.474C352.8 285.753 352.183 287.899 350.949 292.195Z" fill="#CDE6FF"/>
<path d="M338.13 275.076C332.465 274.047 326.803 273.006 321.143 271.951C321.339 271.253 321.438 270.903 321.634 270.205C327.304 271.241 332.976 272.269 338.649 273.29C338.441 274.004 338.337 274.361 338.13 275.076Z" fill="#E6F3FF"/>
<path d="M335.537 284.022C329.918 282.929 324.302 281.82 318.689 280.693C318.886 279.993 318.984 279.643 319.18 278.943C324.803 280.05 330.428 281.146 336.056 282.231C335.848 282.947 335.744 283.305 335.537 284.022Z" fill="#E6F3FF"/>
<path d="M332.867 293.249C327.294 292.089 321.727 290.907 316.163 289.703C316.36 289.001 316.458 288.65 316.655 287.949C322.228 289.136 327.805 290.304 333.386 291.453C333.179 292.171 333.075 292.53 332.867 293.249Z" fill="#E6F3FF"/>
<path d="M315.105 269.915C315.045 270.119 315.028 270.334 315.056 270.545C315.085 270.757 315.158 270.959 315.27 271.14C315.383 271.322 315.532 271.477 315.709 271.596C315.886 271.714 316.086 271.794 316.297 271.83C316.744 271.905 317.203 271.813 317.586 271.572C317.97 271.33 318.252 270.957 318.378 270.522C318.441 270.318 318.459 270.103 318.431 269.891C318.404 269.679 318.331 269.476 318.219 269.295C318.106 269.113 317.956 268.958 317.779 268.84C317.601 268.721 317.401 268.642 317.19 268.607C316.743 268.533 316.284 268.625 315.9 268.866C315.516 269.107 315.233 269.48 315.105 269.915Z" fill="#E6F3FF"/>
<path d="M312.72 278.577C312.659 278.781 312.641 278.996 312.668 279.208C312.695 279.42 312.766 279.623 312.877 279.806C312.987 279.988 313.135 280.146 313.31 280.268C313.485 280.39 313.683 280.474 313.893 280.515C314.336 280.594 314.792 280.506 315.174 280.268C315.555 280.029 315.834 279.657 315.956 279.224C316.019 279.02 316.038 278.805 316.012 278.593C315.985 278.381 315.915 278.177 315.804 277.994C315.694 277.811 315.546 277.654 315.37 277.532C315.195 277.41 314.996 277.327 314.786 277.288C314.343 277.209 313.886 277.297 313.505 277.535C313.123 277.773 312.844 278.144 312.72 278.577Z" fill="#E6F3FF"/>
<path d="M310.333 287.254C310.272 287.458 310.253 287.674 310.279 287.886C310.304 288.098 310.373 288.303 310.481 288.487C310.59 288.671 310.735 288.831 310.908 288.957C311.081 289.082 311.278 289.171 311.487 289.217C311.925 289.301 312.38 289.217 312.759 288.981C313.139 288.745 313.415 288.374 313.533 287.943C313.596 287.739 313.616 287.524 313.591 287.311C313.566 287.098 313.498 286.893 313.389 286.709C313.281 286.525 313.135 286.365 312.962 286.239C312.788 286.114 312.591 286.027 312.381 285.982C311.943 285.898 311.489 285.983 311.109 286.218C310.73 286.454 310.453 286.823 310.333 287.254Z" fill="#E6F3FF"/>
<path d="M336.235 302.86C339.519 303.57 341.148 303.917 344.365 304.589" stroke="#58B2FF" stroke-width="0.6741" stroke-miterlimit="10"/>
<path d="M298.367 310.434C295.025 322.584 291.61 334.713 288.12 346.82" stroke="#E6F3FF" stroke-width="0.6741" stroke-miterlimit="10"/>
<path d="M318.66 353.405C310.073 351.12 301.523 348.713 293.009 346.184C293.882 343.192 294.313 341.702 295.169 338.732C303.706 341.218 312.269 343.605 320.859 345.894C319.98 348.899 319.541 350.401 318.66 353.405Z" stroke="#58B2FF" stroke-width="0.6741" stroke-miterlimit="10"/>
<path d="M324.296 322.859C318.853 321.506 313.42 320.112 307.998 318.679C308.2 317.969 308.3 317.614 308.502 316.904C313.932 318.322 319.372 319.705 324.82 321.052C324.611 321.775 324.506 322.136 324.296 322.859Z" fill="#E6F3FF"/>
<path d="M321.668 331.901C316.253 330.506 310.85 329.064 305.459 327.577C305.663 326.863 305.765 326.506 305.969 325.793C311.367 327.267 316.775 328.7 322.195 330.092C321.984 330.816 321.879 331.178 321.668 331.901Z" fill="#E6F3FF"/>
<path d="M318.953 341.211C313.557 339.785 308.176 338.307 302.809 336.777C303.017 336.059 303.12 335.7 303.327 334.984C308.699 336.503 314.084 337.975 319.482 339.401C319.27 340.125 319.165 340.487 318.953 341.211Z" fill="#E6F3FF"/>
<path d="M302.313 316.222C302.248 316.428 302.224 316.645 302.244 316.86C302.263 317.074 302.325 317.283 302.426 317.474C302.526 317.665 302.664 317.834 302.83 317.971C302.997 318.108 303.189 318.21 303.396 318.273C303.824 318.37 304.274 318.296 304.649 318.066C305.024 317.836 305.294 317.468 305.401 317.041C305.467 316.836 305.491 316.619 305.472 316.404C305.453 316.189 305.391 315.98 305.29 315.79C305.189 315.599 305.051 315.43 304.884 315.294C304.717 315.157 304.524 315.055 304.317 314.995C303.889 314.897 303.439 314.971 303.065 315.2C302.69 315.43 302.42 315.797 302.313 316.222Z" fill="#E6F3FF"/>
<path d="M340.139 320.452C339.869 321.392 340.322 322.307 341.146 322.493C341.971 322.678 342.855 322.062 343.124 321.119C343.393 320.176 342.945 319.265 342.122 319.083C341.68 319.023 341.232 319.131 340.866 319.384C340.499 319.637 340.24 320.018 340.139 320.452Z" fill="#CDE6FF"/>
<path d="M354.603 270.271C354.334 271.199 354.783 272.066 355.599 272.204C356.415 272.342 357.289 271.696 357.557 270.764C357.826 269.832 357.388 268.97 356.573 268.835C355.757 268.7 354.872 269.342 354.603 270.271Z" fill="#CDE6FF"/>
<path d="M299.828 325.058C299.761 325.264 299.736 325.481 299.753 325.697C299.771 325.913 299.83 326.123 299.929 326.316C300.027 326.508 300.163 326.68 300.328 326.82C300.493 326.96 300.683 327.067 300.889 327.133C301.317 327.233 301.767 327.161 302.141 326.931C302.515 326.702 302.784 326.334 302.888 325.907C302.956 325.702 302.982 325.485 302.965 325.269C302.947 325.053 302.888 324.842 302.789 324.65C302.69 324.457 302.554 324.286 302.388 324.146C302.223 324.007 302.032 323.901 301.825 323.836C301.398 323.736 300.949 323.808 300.575 324.037C300.201 324.266 299.933 324.633 299.828 325.058Z" fill="#E6F3FF"/>
<path d="M297.298 333.953C297.239 334.255 297.27 334.568 297.385 334.853C297.501 335.138 297.698 335.384 297.95 335.559C298.203 335.735 298.502 335.833 298.81 335.842C299.118 335.851 299.421 335.77 299.684 335.609C299.946 335.448 300.156 335.214 300.288 334.936C300.42 334.658 300.469 334.348 300.427 334.042C300.386 333.737 300.256 333.451 300.055 333.218C299.853 332.985 299.588 332.816 299.292 332.731C298.866 332.631 298.418 332.704 298.044 332.932C297.671 333.161 297.403 333.528 297.298 333.953Z" fill="#E6F3FF"/>
<path d="M322.227 351.126C325.507 351.97 327.148 352.38 330.43 353.172" stroke="#58B2FF" stroke-width="0.6741" stroke-miterlimit="10"/>
<path d="M347.982 243.981C347.366 246.069 348.51 248.014 350.501 248.314C352.493 248.615 354.578 247.148 355.196 245.051C355.813 242.955 354.73 241.028 352.737 240.736C350.744 240.444 348.598 241.892 347.982 243.981Z" fill="#E6F3FF"/>
<path d="M347.875 247.75C350.026 248.074 351.09 248.235 353.191 248.551L353.201 248.519C353.656 246.97 352.851 245.542 351.382 245.323C349.913 245.105 348.338 246.174 347.884 247.718L347.875 247.75Z" fill="white"/>
<path d="M350.589 243.129C350.525 243.299 350.499 243.482 350.514 243.664C350.529 243.845 350.584 244.022 350.675 244.179C350.766 244.337 350.892 244.473 351.042 244.576C351.192 244.679 351.363 244.748 351.543 244.777C351.941 244.812 352.338 244.706 352.666 244.48C352.994 244.253 353.233 243.919 353.341 243.535C353.407 243.366 353.434 243.183 353.42 243.002C353.406 242.821 353.352 242.645 353.261 242.487C353.17 242.329 353.046 242.194 352.896 242.09C352.746 241.987 352.575 241.918 352.396 241.889C351.998 241.855 351.6 241.959 351.27 242.185C350.941 242.411 350.7 242.745 350.589 243.129Z" fill="white"/>
<path d="M363.915 247.277C364.008 246.943 364.185 246.638 364.43 246.391C364.674 246.145 364.978 245.965 365.312 245.869C365.337 245.496 365.31 245.122 365.231 244.757C365 244.849 364.75 244.879 364.504 244.846C363.701 244.727 363.258 243.891 363.523 242.982C363.555 242.875 363.595 242.771 363.643 242.671C363.378 242.543 363.095 242.456 362.804 242.413C362.377 242.354 361.943 242.375 361.524 242.475C361.442 242.946 361.192 243.371 360.819 243.671C360.446 243.971 359.978 244.125 359.5 244.104C359.361 244.084 359.226 244.041 359.101 243.976C358.652 244.494 358.315 245.099 358.112 245.753C358.907 245.908 359.334 246.725 359.073 247.615C358.943 248.053 358.673 248.436 358.305 248.706C358.524 249.133 358.842 249.5 359.231 249.779C359.402 249.469 359.658 249.214 359.97 249.046C360.282 248.877 360.636 248.803 360.989 248.831C361.298 248.883 361.576 249.046 361.773 249.29C361.969 249.533 362.07 249.84 362.055 250.153C362.871 249.882 363.594 249.387 364.141 248.724C363.99 248.519 363.89 248.28 363.851 248.028C363.812 247.776 363.833 247.519 363.915 247.277ZM361.229 247.805C360.507 247.697 360.107 246.954 360.343 246.148C360.441 245.768 360.669 245.435 360.986 245.204C361.303 244.974 361.691 244.86 362.082 244.884C362.804 244.991 363.193 245.73 362.958 246.537C362.862 246.917 362.637 247.251 362.322 247.482C362.006 247.714 361.62 247.828 361.229 247.805Z" fill="#E6F3FF"/>
<path d="M-47.4033 457.611C-45.8251 453.403 3.86839 411.682 65.6456 379.196C93.4971 364.55 116.205 353.449 116.205 353.449C116.205 353.449 146.191 400.795 145.665 419.734C145.665 419.734 131.91 440.24 122.819 443.751C116.665 446.129 107.406 462.425 107.406 462.425L-45.299 462.872L-47.4033 457.611Z" fill="#E6F3FF"/>
<path d="M122.819 443.751C122.819 443.751 113.035 426.663 104.095 410.107L113.367 442.558L107.406 462.426C107.406 462.426 117.702 443.29 122.819 443.751Z" fill="#CDE6FF"/>
<path d="M53.3968 389.315L4.0939 441.895L-9.48235 438.584L-38.6219 462.094L-45.299 462.872L-45.5757 454.147L53.3968 389.315Z" fill="#CDE6FF"/>
<path d="M224.104 294.382C226.511 292.825 227.078 292.542 236.564 289.993C246.051 287.445 243.927 283.622 243.219 281.639C242.511 279.657 225.379 281.498 225.379 281.498C225.379 281.498 213.627 276.967 207.397 273.994C204.023 272.383 195.503 273.994 195.503 273.994C194.629 272.421 187.459 275.138 180.919 276.825C176.86 277.872 173.467 278.091 172.707 278.524C170.725 279.657 166.194 293.25 166.194 293.25C166.194 293.25 163.504 293.816 162.654 294.524C161.805 295.232 155.959 312.847 153.054 320.11C150.149 327.373 131.991 344.441 130.175 346.257C128.36 348.073 116.205 353.449 116.205 353.449L133.629 384.433C135.752 380.61 171.15 373.106 179.928 370.274C187.222 367.921 202.866 354.275 204.99 352.009C207.113 349.744 226.511 336.151 226.511 336.151C226.511 336.151 241.095 324.683 235.148 319.585C229.202 314.488 219.29 323.267 217.591 324.258C215.892 325.249 208.813 329.497 204.848 332.895C200.884 336.293 195.503 338.842 195.503 338.842C191.397 331.762 191.964 327.514 196.07 317.745C200.176 307.975 221.697 295.94 224.104 294.382ZM200.742 286.737L206.689 287.586C203.715 288.719 196.494 294.807 196.494 294.807C198.901 292.117 200.742 286.737 200.742 286.737Z" fill="#2491FF"/>
<path d="M171.201 297.408C171.201 297.408 185.445 277.016 186.854 275.304C187.252 274.821 189.907 274.308 192.459 273.718C194.97 273.137 195.503 273.994 195.503 273.994L189.563 276.36C188.341 276.847 187.265 277.638 186.435 278.659L171.201 297.408Z" fill="#0076D4"/>
<path d="M206.689 287.586L225.379 281.498L223.554 280.804L208.535 285.775L200.742 286.737L206.689 287.586Z" fill="#0076D4"/>
<path d="M195.503 338.842L191.401 341.065C191.401 341.065 190.401 331.785 192.971 327.074C192.971 327.074 193.399 336.354 195.503 338.842Z" fill="#0076D4"/>
<path d="M166.194 293.25L164.009 298.149L164.644 293.601" fill="#0076D4"/>
<path d="M116.205 353.449C116.205 353.449 124.021 366.542 141.844 370.537C151.609 372.725 184.022 369.886 184.022 369.886L133.629 384.433L116.205 353.449Z" fill="#0076D4"/>
<path d="M407.482 154.784C407.482 154.784 423.203 147.922 418.908 145.059C414.614 142.196 406.025 145.059 406.025 145.059L407.482 154.784Z" fill="#A1D3FF"/>
<path d="M436.252 168.961C436.252 168.961 427.864 184.826 411.035 191.583C394.205 198.34 368.934 195.989 366.429 195.989C361.419 195.989 468.296 199.457 468.296 199.457C468.296 199.457 459.322 173.538 436.252 168.961Z" fill="#A1D3FF"/>
<path d="M300.009 108.312C300.009 108.312 310.507 112.311 311.007 114.31C310.501 112.991 309.754 111.779 308.803 110.734C306.508 108.092 302.697 104.893 301.054 104.512C298.207 103.852 300.009 108.312 300.009 108.312Z" fill="#1A2E4D"/>
<path d="M303.417 116.77C303.417 116.77 303.19 118.214 301.314 118.006C299.439 117.798 301.054 115.208 301.054 115.208C301.054 115.208 302.211 115.27 302.942 115.401C304.69 115.687 306.349 116.369 307.792 117.396L303.417 116.77Z" fill="#1A2E4D"/>
<path d="M346.689 131.159C346.689 131.159 353.545 133.901 352.174 138.014C350.803 142.128 348.06 147.613 351.488 146.927C354.916 146.241 361.772 137.329 357.658 133.901C353.545 130.473 352.174 122.246 346.689 131.159Z" fill="#1A2E4D"/>
<path d="M347.911 121.852L333.983 164.297L334.747 187.943C334.747 187.943 297.99 194.98 303.728 189.012C309.467 183.044 313.793 162.133 321.004 159.249C328.215 156.365 340.473 128.964 340.473 128.964L343.304 122.696C343.795 122.083 348.155 121.106 347.911 121.852Z" fill="#1A2E4D"/>
<path d="M310.146 133.927C310.146 133.927 298.915 123.765 295.171 124.835C291.428 125.904 285.545 154.25 286.614 157.993C287.684 161.737 298.38 189.547 303.728 189.012C309.076 188.477 318.703 174.038 318.703 174.038C318.703 174.038 309.611 154.784 310.146 149.436C310.681 144.088 310.146 133.927 310.146 133.927Z" fill="#CDE6FF"/>
<path d="M310.146 149.436L288.639 150.785L290.071 140.764L310.146 149.436Z" fill="#A1D3FF"/>
<path d="M312.975 162.237L291.503 169.395L292.934 176.552L312.975 162.237Z" fill="#A1D3FF"/>
<path d="M365.134 146.764C365.134 146.764 350.986 155.7 349.125 155.327C347.263 154.955 352.103 162.401 355.082 160.912C358.06 159.423 365.134 146.764 365.134 146.764Z" fill="#0B4778"/>
<path d="M117.418 86.9168C117.418 86.9168 110.105 128.182 104.359 128.705C102.048 124.413 95.3492 123.253 90.5537 122.381L89.2109 119.825L113.761 87.4392" fill="#0B4778"/>
<path d="M726.813 319.953L706.217 344.766C703.859 347.606 704.879 351.57 708.255 352.686L743.743 364.425C744.934 364.788 746.208 364.776 747.391 364.388C748.574 364.001 749.609 363.258 750.355 362.261L771.783 333.637C774.057 330.6 772.645 326.592 769.02 325.801L732.701 317.873C731.623 317.655 730.506 317.734 729.47 318.1C728.433 318.467 727.515 319.107 726.813 319.953Z" fill="#CDE6FF"/>
<path d="M720.039 323.368L777.415 337.114L785.932 320.723L726.407 309.902L720.039 323.368Z" fill="#0076D6"/>
<path d="M732.173 328.269L727.04 335.089L739.629 338.411L744.327 331.825L732.173 328.269Z" fill="white"/>
<path d="M737.376 328.256L731.494 337.473" stroke="#0076D6" stroke-miterlimit="10"/>
<path d="M732.096 341.801L729.482 345.274L735.893 346.966L738.285 343.611L732.096 341.801Z" fill="white"/>
<path d="M730.621 343.417L735.874 344.865" stroke="#0076D6" stroke-width="0.50925" stroke-miterlimit="10"/>
<path d="M724.463 339.394L721.848 342.867L728.26 344.559L730.652 341.205L724.463 339.394Z" fill="white"/>
<path d="M723.026 340.721L728.279 342.169" stroke="#0076D6" stroke-width="0.50925" stroke-miterlimit="10"/>
<path d="M722.029 341.784L727.281 343.233" stroke="#0076D6" stroke-width="0.50925" stroke-miterlimit="10"/>
<path d="M734.711 340.892L736.066 340.956" stroke="#0076D6" stroke-width="0.35468" stroke-miterlimit="10"/>
<path d="M735.703 341.511C736.519 341.14 737.055 340.565 736.902 340.228C736.748 339.89 735.962 339.916 735.146 340.287C734.331 340.658 733.794 341.233 733.947 341.571C734.101 341.909 734.887 341.882 735.703 341.511Z" stroke="#0076D6" stroke-width="0.35468" stroke-miterlimit="10"/>
<path d="M727.081 338.328L728.436 338.391" stroke="#0076D6" stroke-width="0.35468" stroke-miterlimit="10"/>
<path d="M728.072 338.946C728.888 338.575 729.425 338.001 729.271 337.663C729.118 337.325 728.332 337.352 727.516 337.722C726.7 338.093 726.163 338.668 726.317 339.006C726.471 339.344 727.257 339.317 728.072 338.946Z" stroke="#0076D6" stroke-width="0.35468" stroke-miterlimit="10"/>
<path d="M728.335 337.823L727.182 338.896" stroke="#0076D6" stroke-width="0.35468" stroke-miterlimit="10"/>
<path d="M747.5 360.992L764.908 338.484" stroke="#0076D6" stroke-miterlimit="10"/>
<path d="M743.614 359.662L760.931 337.104" stroke="#0076D6" stroke-miterlimit="10"/>
<path d="M709.646 346.312L732.353 353.632" stroke="#0076D6" stroke-miterlimit="10"/>
<path d="M710.746 344.86L722.081 348.484" stroke="#0076D6" stroke-miterlimit="10"/>
<path d="M724.399 328.23L729.524 329.494" stroke="#0076D6" stroke-miterlimit="10"/>
<path d="M722.743 331.437L727.255 332.675" stroke="#0076D6" stroke-miterlimit="10"/>
<path d="M743.891 344.587L750.225 346.018L755.695 339.109L749.331 337.911L743.891 344.587Z" stroke="#0076D6" stroke-miterlimit="10"/>
</g>
<defs>
<clipPath id="clip0">
<rect width="800" height="450" fill="white"/>
</clipPath>
</defs>
</svg>
