<svg width="301" height="56" viewBox="0 0 301 56" fill="none" xmlns="http://www.w3.org/2000/svg">
<path fill-rule="evenodd" clip-rule="evenodd" d="M84.5989 27.5282C85.9571 27.5282 86.7832 26.6452 86.7832 25.546C86.7832 24.4648 85.9571 23.5818 84.6173 23.5818C83.2954 23.5818 82.4694 24.4648 82.4694 25.546C82.4694 26.6452 83.2954 27.5282 84.5989 27.5282ZM152.062 49.4949H155.22V24.0864H152.062V49.4949ZM78.7062 42.719C78.7062 47.3144 74.961 50.0175 68.8295 50.0175C62.056 50.0175 59.0269 46.1071 59.0269 42.3949H62.2763C62.2763 44.9719 64.6993 47.2784 68.8115 47.2784C73.0702 47.2784 75.42 45.7466 75.42 42.719C75.42 39.8359 72.6295 38.8087 68.9031 38.25C64.736 37.5654 59.6694 36.2139 59.6694 31.2584C59.6694 27.6003 62.2211 24.4468 68.7196 24.4468C74.5939 24.4468 77.7146 27.33 77.7146 31.4206H74.4472C74.4472 28.9878 72.4276 27.2579 68.6828 27.2579C64.1671 27.2579 62.9188 29.2582 62.9188 31.2764C62.9188 33.8533 65.4338 34.9525 69.9127 35.5472C74.0617 36.1959 78.7062 37.6916 78.7062 42.719ZM86.1958 31.1142V49.4949H83.0384V31.1142H86.1958ZM115.127 30.5916C112.226 30.5916 109.693 32.1774 108.243 35.3129C107.27 32.1954 105.067 30.5916 101.708 30.5916C98.6974 30.5916 96.2188 32.3576 95.2644 34.6642L95.2276 31.1142H92.2537V49.4949H95.3744V39.8359C95.3744 36.0878 97.9997 33.4929 100.863 33.4929C103.856 33.4929 105.673 35.349 105.673 39.5837V49.4949H108.794V39.8359C108.794 36.0878 111.419 33.4929 114.264 33.4929C117.275 33.4929 119.092 35.367 119.092 39.5837V49.4949H122.231V39.5297C122.231 33.6551 119.772 30.5916 115.127 30.5916ZM131.245 55.7657H128.087V31.1142H131.117V35.0426C132.42 32.5018 135.082 30.6097 138.331 30.6097C143.618 30.6097 147.565 34.9345 147.565 40.3044C147.565 45.7106 143.6 50.0175 138.367 50.0175C135.284 50.0175 132.512 48.3236 131.19 45.6565L131.245 47.729V55.7657ZM131.226 40.3044C131.226 44.2148 134.219 47.1339 137.817 47.1339C141.415 47.1339 144.426 44.3588 144.426 40.3044C144.426 36.3401 141.47 33.4929 137.817 33.4929C134.164 33.4929 131.226 36.5023 131.226 40.3044ZM169.227 30.5916C174.623 30.5916 178.479 34.9165 178.479 39.8539C178.479 40.1293 178.465 40.3654 178.439 40.8382C178.434 40.9224 178.429 41.0144 178.423 41.1156H162.893C163.279 44.8094 166.069 47.1159 169.153 47.1159C171.668 47.1159 173.522 46.0347 174.348 43.9627H177.891C176.827 47.3324 173.486 49.9995 169.227 49.9995C163.811 49.9995 159.699 45.6926 159.699 40.3044C159.699 34.9345 163.811 30.5916 169.227 30.5916ZM169.171 33.5109C166.363 33.5109 163.756 35.2048 163.04 38.3765H175.248C175.064 35.7634 172.366 33.5109 169.171 33.5109ZM183.049 49.4949H186.299V40.2864H192.394C192.669 40.2864 192.926 40.2864 193.201 40.2684L198.745 49.4949H202.49L196.469 39.7998C199.755 38.9351 201.94 36.286 201.94 32.682C201.94 28.0688 198.488 24.9874 193.66 24.9874H183.049V49.4949ZM186.299 37.5654V27.8526H193.532C196.469 27.8526 198.69 29.9069 198.69 32.7C198.69 35.6013 196.505 37.5474 193.587 37.5654H186.299ZM214.606 30.5916C220.003 30.5916 223.858 34.9165 223.858 39.8539C223.858 40.1259 223.845 40.36 223.82 40.8221L223.819 40.8247V40.8274L223.819 40.8301V40.8328V40.8355L223.818 40.8382C223.814 40.9224 223.809 41.0144 223.803 41.1156H208.273C208.658 44.8094 211.448 47.1159 214.533 47.1159C217.048 47.1159 218.902 46.0347 219.728 43.9627H223.271C222.206 47.3324 218.865 49.9995 214.606 49.9995C209.19 49.9995 205.079 45.6926 205.079 40.3044C205.079 34.9345 209.19 30.5916 214.606 30.5916ZM214.551 33.5109C211.742 33.5109 209.135 35.2048 208.42 38.3765H220.627C220.444 35.7634 217.745 33.5109 214.551 33.5109ZM228.062 55.7657H231.22V47.729L231.164 45.6565C232.486 48.3236 235.258 50.0175 238.342 50.0175C243.574 50.0175 247.539 45.7106 247.539 40.3044C247.539 34.9345 243.592 30.6097 238.305 30.6097C235.056 30.6097 232.394 32.5018 231.091 35.0426V31.1142H228.062V55.7657ZM237.791 47.1339C234.194 47.1339 231.201 44.2148 231.201 40.3044C231.201 36.5023 234.138 33.4929 237.791 33.4929C241.445 33.4929 244.4 36.3401 244.4 40.3044C244.4 44.3588 241.389 47.1339 237.791 47.1339ZM269.954 40.3044C269.954 45.7106 265.787 50.0175 260.187 50.0175C254.643 50.0175 250.458 45.7106 250.458 40.3044C250.458 34.9345 254.625 30.5916 260.187 30.5916C265.768 30.5916 269.954 34.9165 269.954 40.3044ZM253.615 40.3044C253.615 44.2148 256.498 47.0979 260.224 47.0979C263.932 47.0979 266.796 44.2148 266.796 40.3044C266.796 36.4302 263.932 33.5109 260.224 33.5109C256.498 33.5109 253.615 36.4302 253.615 40.3044ZM274.433 49.4949H277.609V40.8451C277.609 36.4121 280.05 33.8353 283.336 33.8353H284.988V31.1142H283.171C280.454 31.1142 278.398 32.682 277.48 35.2228V31.1142H274.433V49.4949ZM300.023 49.4949H296.572C293.727 49.4949 290.679 48.4136 290.679 42.683V33.8353H286.512V31.1142H290.679V25.6541L293.837 25.6361V31.1142H300.023V33.8353H293.837V42.8274C293.837 46.2512 295.525 46.8638 297.196 46.8638H300.023V49.4949Z" fill="white"/>
<path fill-rule="evenodd" clip-rule="evenodd" d="M24.5057 0.174906C23.3373 0.658872 22.7824 1.99838 23.2664 3.16678C23.7504 4.33517 25.0899 4.89003 26.2583 4.40605C27.4267 3.9221 27.9815 2.58258 27.4975 1.41418C27.0136 0.24578 25.6741 -0.30906 24.5057 0.174906ZM34.1001 6.29053C35.3647 6.29053 36.3899 5.26532 36.3899 4.00065C36.3899 2.73599 35.3647 1.71078 34.1001 1.71078C32.8354 1.71078 31.8102 2.73599 31.8102 4.00065C31.8102 5.26532 32.8354 6.29053 34.1001 6.29053ZM23.3889 48.706C22.9049 47.5374 23.4598 46.1979 24.6282 45.714C25.7966 45.2301 27.1361 45.7849 27.6201 46.9531C28.104 48.1217 27.5492 49.4611 26.3808 49.9451C25.2124 50.429 23.8729 49.8742 23.3889 48.706ZM18.2925 5.66678C19.1867 4.77252 19.1867 3.32266 18.2925 2.4284C17.3982 1.53415 15.9484 1.53415 15.0541 2.4284C14.1599 3.32266 14.1599 4.77252 15.0541 5.66678C15.9484 6.56103 17.3982 6.56103 18.2925 5.66678ZM32.5942 47.6918C31.7 46.7975 31.7 45.3477 32.5942 44.4535C33.4885 43.5592 34.9383 43.5592 35.8326 44.4535C36.7268 45.3477 36.7268 46.7975 35.8326 47.6918C34.9383 48.5861 33.4885 48.5861 32.5942 47.6918ZM6.67378 16.4031C6.67378 15.1384 5.64856 14.1132 4.38389 14.1132C3.11923 14.1132 2.09402 15.1384 2.09402 16.4031C2.09402 17.6677 3.11923 18.6929 4.38389 18.6929C5.64856 18.6929 6.67378 17.6677 6.67378 16.4031ZM46.5027 36.0065C45.238 36.0065 44.2127 34.9813 44.2127 33.7166C44.2127 32.4519 45.238 31.4267 46.5027 31.4267C47.7671 31.4267 48.7924 32.4519 48.7924 33.7166C48.7924 34.9813 47.7671 36.0065 46.5027 36.0065ZM6.05002 32.211C5.15577 31.3168 3.7059 31.3168 2.81165 32.211C1.9174 33.1053 1.9174 34.5552 2.81165 35.4494C3.7059 36.3437 5.15577 36.3437 6.05002 35.4494C6.94427 34.5552 6.94427 33.1053 6.05002 32.211ZM48.0752 17.9093C47.1809 18.8036 45.7311 18.8036 44.8368 17.9093C43.9426 17.0151 43.9426 15.5652 44.8368 14.671C45.7311 13.7767 47.1809 13.7767 48.0752 14.671C48.9694 15.5652 48.9694 17.0151 48.0752 17.9093ZM16.7866 43.8293C15.522 43.8293 14.4968 44.8546 14.4968 46.1194C14.4968 47.3841 15.522 48.4094 16.7866 48.4094C18.0513 48.4094 19.0765 47.3841 19.0765 46.1194C19.0765 44.8546 18.0513 43.8293 16.7866 43.8293ZM49.0889 27.1143C47.9208 27.5983 46.5813 27.0435 46.0974 25.8751C45.6131 24.7067 46.1683 23.3672 47.3365 22.8832C48.505 22.3992 49.8445 22.9541 50.3284 24.1224C50.8123 25.2909 50.2575 26.6304 49.0889 27.1143ZM4.78922 24.2449C4.30527 23.0765 2.96576 22.5217 1.79736 23.0057C0.628959 23.4897 0.0741176 24.8292 0.558086 25.9975C1.04205 27.1659 2.38156 27.7208 3.54995 27.2368C4.71833 26.7529 5.2732 25.4134 4.78922 24.2449ZM40.7104 43.2324C39.5422 42.7485 38.9874 41.409 39.4713 40.2405C39.9552 39.0723 41.2947 38.5175 42.4633 39.0014C43.6315 39.4853 44.1863 40.8247 43.7024 41.9933C43.2185 43.1615 41.879 43.7163 40.7104 43.2324ZM11.4154 9.87946C11.8994 8.71107 11.3445 7.37157 10.1762 6.88758C9.00776 6.40363 7.66826 6.95846 7.18427 8.12685C6.70033 9.29524 7.25516 10.6347 8.42355 11.1187C9.59198 11.6027 10.9315 11.0478 11.4154 9.87946ZM43.6158 9.79264C43.1315 10.961 41.792 11.5159 40.6238 11.0319C39.4552 10.5479 38.9004 9.20842 39.3844 8.04003C39.8683 6.87164 41.2081 6.31681 42.3763 6.80076C43.5449 7.28475 44.0997 8.62425 43.6158 9.79264ZM10.2626 39.088C9.0942 38.6041 7.7547 39.1588 7.27071 40.3274C6.78676 41.4956 7.34159 42.8355 8.50998 43.3194C9.67841 43.8033 11.0179 43.2485 11.5019 42.0799C11.9858 40.9117 11.431 39.5723 10.2626 39.088Z" fill="#0D80B1"/>
<path fill-rule="evenodd" clip-rule="evenodd" d="M22.5816 13.1063C22.5816 14.6871 23.8631 15.9687 25.4439 15.9687C27.0247 15.9687 28.3063 14.6871 28.3063 13.1063C28.3063 11.5255 27.0247 10.2439 25.4439 10.2439C23.8631 10.2439 22.5816 11.5255 22.5816 13.1063ZM28.306 37.0138C28.306 35.4329 27.0245 34.1514 25.4437 34.1514C23.8628 34.1514 22.5813 35.4329 22.5813 37.0138C22.5813 38.5945 23.8628 39.8761 25.4437 39.8761C27.0245 39.8761 28.306 38.5945 28.306 37.0138ZM34.5352 25.0601C34.5352 23.4793 35.8167 22.1978 37.3975 22.1978C38.9782 22.1978 40.2598 23.4793 40.2598 25.0601C40.2598 26.641 38.9782 27.9225 37.3975 27.9225C35.8167 27.9225 34.5352 26.641 34.5352 25.0601ZM13.49 27.9222C15.0709 27.9222 16.3524 26.6407 16.3524 25.0599C16.3524 23.479 15.0709 22.1975 13.4901 22.1975C11.9092 22.1975 10.6277 23.479 10.6277 25.0599C10.6277 26.6407 11.9092 27.9222 13.49 27.9222ZM31.8723 31.4885C32.9901 30.3706 34.8025 30.3706 35.9203 31.4885C37.0381 32.6063 37.0381 34.4186 35.9203 35.5364C34.8025 36.6542 32.9901 36.6542 31.8723 35.5364C30.7545 34.4186 30.7545 32.6063 31.8723 31.4885ZM14.9675 18.6316C16.0853 19.7494 17.8977 19.7494 19.0155 18.6316C20.1333 17.5138 20.1333 15.7015 19.0155 14.5836C17.8977 13.4658 16.0853 13.4658 14.9675 14.5836C13.8497 15.7015 13.8497 17.5138 14.9675 18.6316ZM31.8721 18.6318C30.7543 17.5139 30.7543 15.7016 31.8721 14.5838C32.9899 13.466 34.8023 13.466 35.9201 14.5838C37.0379 15.7016 37.0379 17.5139 35.9201 18.6318C34.8023 19.7496 32.9899 19.7496 31.8721 18.6318ZM19.0153 35.5366C20.1331 34.4188 20.1331 32.6065 19.0153 31.4887C17.8975 30.3708 16.0852 30.3708 14.9673 31.4887C13.8495 32.6065 13.8495 34.4188 14.9673 35.5366C16.0852 36.6544 17.8975 36.6544 19.0153 35.5366Z" fill="#0899C5"/>
<path d="M25.6935 27.7964C27.1747 27.7964 28.3755 26.5956 28.3755 25.1144C28.3755 23.6332 27.1747 22.4324 25.6935 22.4324C24.2122 22.4324 23.0115 23.6332 23.0115 25.1144C23.0115 26.5956 24.2122 27.7964 25.6935 27.7964Z" fill="#00BDE3"/>
</svg>
