<svg width="217" height="41" viewBox="0 0 217 41" fill="none" xmlns="http://www.w3.org/2000/svg">
<path d="M7.96923 35.7359C6.26477 35.7359 4.81417 35.4593 3.61743 34.9062C2.43882 34.3345 1.54126 33.5601 0.924757 32.5829C0.308252 31.5872 0 30.4624 0 29.2085H3.20945C3.20945 29.7801 3.36358 30.3425 3.67183 30.8957C3.98008 31.4489 4.47872 31.9098 5.16776 32.2786C5.85679 32.629 6.79061 32.8041 7.96923 32.8041C9.03904 32.8041 9.91847 32.6474 10.6075 32.3339C11.3147 32.0205 11.8314 31.6056 12.1578 31.0893C12.5023 30.573 12.6746 30.0014 12.6746 29.3745C12.6746 28.6001 12.3482 27.9731 11.6955 27.4937C11.0427 26.9959 10.0635 26.6916 8.75799 26.581L6.77248 26.3874C4.9411 26.2399 3.48144 25.6683 2.39349 24.6726C1.30554 23.6584 0.761564 22.3308 0.761564 20.6898C0.761564 19.4359 1.05168 18.3481 1.63192 17.4261C2.2303 16.5042 3.06439 15.7851 4.13421 15.2688C5.20402 14.734 6.4461 14.4667 7.86043 14.4667C9.31103 14.4667 10.5712 14.734 11.6411 15.2688C12.7109 15.7851 13.5359 16.5226 14.1161 17.4814C14.7145 18.4218 15.0137 19.5466 15.0137 20.8557H11.8042C11.8042 20.2657 11.6592 19.7125 11.3691 19.1962C11.0971 18.6615 10.671 18.2282 10.0907 17.8963C9.51049 17.5644 8.76706 17.3985 7.86043 17.3985C6.99007 17.3985 6.26477 17.5552 5.68453 17.8686C5.12243 18.1821 4.69631 18.5878 4.40619 19.0856C4.11607 19.5835 3.97101 20.1182 3.97101 20.6898C3.97101 21.372 4.22487 21.9805 4.73258 22.5152C5.24029 23.0315 6.01998 23.3358 7.07167 23.428L9.02998 23.5939C10.4262 23.7045 11.632 24.0088 12.6474 24.5066C13.681 24.986 14.4788 25.6314 15.0409 26.4427C15.6211 27.254 15.9113 28.2313 15.9113 29.3745C15.9113 30.6283 15.5758 31.7347 14.9049 32.6935C14.2521 33.6523 13.3274 34.3991 12.1306 34.9338C10.952 35.4685 9.56488 35.7359 7.96923 35.7359Z" fill="white"/>
<path d="M20.2805 35.238V20.3302H23.4627V35.238H20.2805ZM18.1318 22.8195V20.3302H23.4627V22.8195H18.1318ZM21.314 18.2559C20.6613 18.2559 20.1717 18.0807 19.8453 17.7304C19.537 17.38 19.3829 16.9283 19.3829 16.3751C19.3829 15.8404 19.537 15.3978 19.8453 15.0475C20.1717 14.6787 20.6613 14.4943 21.314 14.4943C21.9849 14.4943 22.4745 14.6787 22.7828 15.0475C23.1091 15.3978 23.2723 15.8404 23.2723 16.3751C23.2723 16.9283 23.1091 17.38 22.7828 17.7304C22.4745 18.0807 21.9849 18.2559 21.314 18.2559Z" fill="white"/>
<path d="M28.2057 35.238V20.3302H30.7352V26.747H30.436C30.436 25.2718 30.6173 24.0272 30.98 23.0131C31.3608 21.9989 31.9229 21.2245 32.6663 20.6898C33.4279 20.1551 34.3708 19.8877 35.495 19.8877H35.631C36.7733 19.8877 37.7162 20.1551 38.4596 20.6898C39.2212 21.2245 39.7833 21.9989 40.146 23.0131C40.5267 24.0272 40.7171 25.2718 40.7171 26.747H39.8468C39.8468 25.2718 40.0372 24.0272 40.4179 23.0131C40.7987 21.9989 41.3699 21.2245 42.1315 20.6898C42.893 20.1551 43.8359 19.8877 44.9601 19.8877H45.0961C46.2385 19.8877 47.1904 20.1551 47.952 20.6898C48.7136 21.2245 49.2847 21.9989 49.6655 23.0131C50.0463 24.0272 50.2367 25.2718 50.2367 26.747V35.238H47.0544V26.2768C47.0544 25.1889 46.7824 24.3407 46.2385 23.7322C45.7126 23.1237 44.9783 22.8195 44.0354 22.8195C43.0562 22.8195 42.2765 23.1422 41.6963 23.7875C41.116 24.4144 40.8259 25.2903 40.8259 26.4151V35.238H37.6165V26.2768C37.6165 25.1889 37.3536 24.3407 36.8277 23.7322C36.3019 23.1237 35.5675 22.8195 34.6246 22.8195C33.6455 22.8195 32.8567 23.1422 32.2583 23.7875C31.6781 24.4144 31.388 25.2903 31.388 26.4151V35.238H28.2057Z" fill="white"/>
<path d="M53.2237 40.7697V20.3302H55.7532V26.7746L55.2636 26.747C55.3543 25.1797 55.6807 23.8889 56.2428 22.8748C56.8049 21.8607 57.5483 21.1047 58.4731 20.6068C59.3978 20.109 60.4133 19.86 61.5193 19.86C62.571 19.86 63.523 20.0629 64.3752 20.4685C65.2274 20.8557 65.9618 21.3997 66.5783 22.1004C67.1948 22.801 67.6572 23.6123 67.9654 24.5343C68.2918 25.4562 68.455 26.4519 68.455 27.5214V28.0469C68.455 29.0979 68.2918 30.0936 67.9654 31.034C67.639 31.9559 67.1676 32.7672 66.5511 33.4679C65.9346 34.1686 65.2002 34.7218 64.348 35.1274C63.4958 35.5331 62.5438 35.7359 61.4921 35.7359C60.4223 35.7359 59.425 35.5054 58.5003 35.0444C57.5755 34.5835 56.814 33.8459 56.2156 32.8318C55.6172 31.8176 55.2818 30.4993 55.2092 28.8766L56.406 30.9234V40.7697H53.2237ZM60.8122 32.9424C61.7007 32.9424 62.4804 32.7304 63.1513 32.3063C63.8222 31.8637 64.3389 31.2553 64.7016 30.4808C65.0824 29.688 65.2728 28.7844 65.2728 27.7703C65.2728 26.7562 65.0824 25.8619 64.7016 25.0875C64.3389 24.313 63.8222 23.7138 63.1513 23.2897C62.4985 22.8471 61.7188 22.6259 60.8122 22.6259C60.0143 22.6259 59.2709 22.8103 58.5819 23.179C57.8928 23.5478 57.3398 24.0825 56.9228 24.7832C56.5057 25.4655 56.2972 26.2952 56.2972 27.2725V28.4618C56.2972 29.4022 56.5057 30.2135 56.9228 30.8957C57.3579 31.5595 57.92 32.0666 58.6091 32.4169C59.2981 32.7672 60.0325 32.9424 60.8122 32.9424Z" fill="white"/>
<path d="M71.5535 35.238V15.0475H74.7629V35.238H71.5535ZM69.6224 17.5367V15.0475H74.7629V17.5367H69.6224Z" fill="white"/>
<path d="M85.1115 35.7359C83.8423 35.7359 82.7362 35.5146 81.7933 35.0721C80.8504 34.6296 80.0798 34.0487 79.4814 33.3296C78.883 32.5921 78.4297 31.7715 78.1215 30.868C77.8313 29.9461 77.6863 29.0057 77.6863 28.0469V27.5214C77.6863 26.5441 77.8313 25.6037 78.1215 24.7002C78.4297 23.7783 78.883 22.9578 79.4814 22.2387C80.0798 21.5011 80.8323 20.9203 81.7389 20.4962C82.6637 20.0536 83.7335 19.8324 84.9483 19.8324C86.5259 19.8324 87.8405 20.1827 88.8922 20.8834C89.9438 21.5841 90.7326 22.4968 91.2585 23.6216C91.7843 24.7279 92.0472 25.9264 92.0472 27.2171V28.5171H79.0462V26.3321H89.8985L89.0282 27.4384C89.0282 26.4427 88.874 25.5853 88.5658 24.8662C88.2575 24.1286 87.8042 23.5663 87.2058 23.179C86.6075 22.7734 85.855 22.5706 84.9483 22.5706C84.0055 22.5706 83.2167 22.7918 82.5821 23.2344C81.9474 23.6769 81.476 24.2854 81.1677 25.0598C80.8595 25.8342 80.7053 26.747 80.7053 27.798C80.7053 28.7937 80.8595 29.688 81.1677 30.4808C81.476 31.2553 81.9565 31.873 82.6093 32.3339C83.262 32.7765 84.0961 32.9977 85.1115 32.9977C86.127 32.9977 86.9611 32.7765 87.6138 32.3339C88.2666 31.873 88.6655 31.3382 88.8106 30.7297H91.7752C91.5758 31.7439 91.1678 32.629 90.5513 33.3849C89.9529 34.1409 89.1913 34.7218 88.2666 35.1274C87.3418 35.5331 86.2901 35.7359 85.1115 35.7359Z" fill="white"/>
<path d="M95.0879 35.238V14.9092H98.3517V35.238H95.0879ZM107.273 35.238L100.963 26.3597H104.662L111.162 35.238H107.273ZM97.291 28.2128V25.4194H102.459C103.238 25.4194 103.909 25.2626 104.471 24.9492C105.034 24.6173 105.46 24.1655 105.75 23.5939C106.058 23.0223 106.212 22.3585 106.212 21.6025C106.212 20.865 106.058 20.2104 105.75 19.6388C105.46 19.0672 105.034 18.6154 104.471 18.2835C103.909 17.9516 103.238 17.7857 102.459 17.7857H97.291V14.9092H102.024C103.547 14.9092 104.87 15.1489 105.995 15.6283C107.119 16.0893 107.989 16.79 108.606 17.7304C109.222 18.6707 109.53 19.8785 109.53 21.3536V21.7961C109.53 23.2712 109.213 24.479 108.578 25.4194C107.962 26.3597 107.092 27.0604 105.967 27.5214C104.861 27.9824 103.547 28.2128 102.024 28.2128H97.291Z" fill="white"/>
<path d="M120.198 35.7359C118.928 35.7359 117.822 35.5146 116.879 35.0721C115.936 34.6296 115.166 34.0487 114.567 33.3296C113.969 32.5921 113.516 31.7715 113.208 30.868C112.917 29.9461 112.772 29.0057 112.772 28.0469V27.5214C112.772 26.5441 112.917 25.6037 113.208 24.7002C113.516 23.7783 113.969 22.9578 114.567 22.2387C115.166 21.5011 115.918 20.9203 116.825 20.4962C117.75 20.0536 118.82 19.8324 120.034 19.8324C121.612 19.8324 122.927 20.1827 123.978 20.8834C125.03 21.5841 125.819 22.4968 126.345 23.6216C126.87 24.7279 127.133 25.9264 127.133 27.2171V28.5171H114.132V26.3321H124.985L124.114 27.4384C124.114 26.4427 123.96 25.5853 123.652 24.8662C123.344 24.1286 122.89 23.5663 122.292 23.179C121.694 22.7734 120.941 22.5706 120.034 22.5706C119.092 22.5706 118.303 22.7918 117.668 23.2344C117.033 23.6769 116.562 24.2854 116.254 25.0598C115.946 25.8342 115.791 26.747 115.791 27.798C115.791 28.7937 115.946 29.688 116.254 30.4808C116.562 31.2553 117.043 31.873 117.695 32.3339C118.348 32.7765 119.182 32.9977 120.198 32.9977C121.213 32.9977 122.047 32.7765 122.7 32.3339C123.353 31.873 123.752 31.3382 123.897 30.7297H126.861C126.662 31.7439 126.254 32.629 125.637 33.3849C125.039 34.1409 124.277 34.7218 123.353 35.1274C122.428 35.5331 121.376 35.7359 120.198 35.7359Z" fill="white"/>
<path d="M129.848 40.7697V20.3302H132.377V26.7746L131.887 26.747C131.978 25.1797 132.305 23.8889 132.867 22.8748C133.429 21.8607 134.172 21.1047 135.097 20.6068C136.022 20.109 137.037 19.86 138.143 19.86C139.195 19.86 140.147 20.0629 140.999 20.4685C141.851 20.8557 142.586 21.3997 143.202 22.1004C143.819 22.801 144.281 23.6123 144.589 24.5343C144.916 25.4562 145.079 26.4519 145.079 27.5214V28.0469C145.079 29.0979 144.916 30.0936 144.589 31.034C144.263 31.9559 143.791 32.7672 143.175 33.4679C142.558 34.1686 141.824 34.7218 140.972 35.1274C140.12 35.5331 139.168 35.7359 138.116 35.7359C137.046 35.7359 136.049 35.5054 135.124 35.0444C134.199 34.5835 133.438 33.8459 132.839 32.8318C132.241 31.8176 131.906 30.4993 131.833 28.8766L133.03 30.9234V40.7697H129.848ZM137.436 32.9424C138.324 32.9424 139.104 32.7304 139.775 32.3063C140.446 31.8637 140.963 31.2553 141.325 30.4808C141.706 29.688 141.897 28.7844 141.897 27.7703C141.897 26.7562 141.706 25.8619 141.325 25.0875C140.963 24.313 140.446 23.7138 139.775 23.2897C139.122 22.8471 138.343 22.6259 137.436 22.6259C136.638 22.6259 135.895 22.8103 135.206 23.179C134.517 23.5478 133.964 24.0825 133.547 24.7832C133.13 25.4655 132.921 26.2952 132.921 27.2725V28.4618C132.921 29.4022 133.13 30.2135 133.547 30.8957C133.982 31.5595 134.544 32.0666 135.233 32.4169C135.922 32.7672 136.656 32.9424 137.436 32.9424Z" fill="white"/>
<path d="M154.895 35.7359C153.608 35.7359 152.475 35.5239 151.496 35.0998C150.516 34.6572 149.691 34.0764 149.02 33.3573C148.35 32.6382 147.842 31.8269 147.497 30.9234C147.153 30.0014 146.981 29.0518 146.981 28.0746V27.5214C146.981 26.5441 147.153 25.5945 147.497 24.6726C147.86 23.7506 148.377 22.9301 149.048 22.211C149.737 21.4734 150.571 20.8926 151.55 20.4685C152.529 20.0444 153.644 19.8324 154.895 19.8324C156.147 19.8324 157.253 20.0444 158.214 20.4685C159.193 20.8926 160.027 21.4734 160.716 22.211C161.405 22.9301 161.922 23.7506 162.266 24.6726C162.629 25.5945 162.81 26.5441 162.81 27.5214V28.0746C162.81 29.0518 162.638 30.0014 162.293 30.9234C161.949 31.8269 161.441 32.6382 160.77 33.3573C160.099 34.0764 159.274 34.6572 158.295 35.0998C157.316 35.5239 156.183 35.7359 154.895 35.7359ZM154.895 32.9148C155.893 32.9148 156.745 32.6935 157.452 32.251C158.159 31.79 158.694 31.1723 159.057 30.3978C159.438 29.6234 159.628 28.7568 159.628 27.798C159.628 26.8207 159.438 25.9449 159.057 25.1704C158.676 24.396 158.132 23.7875 157.425 23.345C156.718 22.884 155.875 22.6535 154.895 22.6535C153.916 22.6535 153.073 22.884 152.366 23.345C151.659 23.7875 151.115 24.396 150.734 25.1704C150.353 25.9449 150.163 26.8207 150.163 27.798C150.163 28.7568 150.344 29.6234 150.707 30.3978C151.088 31.1723 151.632 31.79 152.339 32.251C153.046 32.6935 153.898 32.9148 154.895 32.9148Z" fill="white"/>
<path d="M165.011 35.238V20.3302H167.54V26.5533H167.431C167.431 24.4144 167.894 22.8195 168.818 21.7685C169.743 20.699 171.112 20.1643 172.925 20.1643H173.442V23.0131H172.463C171.085 23.0131 170.024 23.3911 169.281 24.1471C168.556 24.8846 168.193 25.9449 168.193 27.3278V35.238H165.011Z" fill="white"/>
<path d="M182.576 35.404C181.361 35.404 180.336 35.2381 179.502 34.9062C178.668 34.5743 178.034 34.0026 177.598 33.1913C177.181 32.38 176.973 31.2829 176.973 29.9V15.9879H179.992V30.1766C179.992 30.951 180.191 31.5503 180.59 31.9744C181.007 32.38 181.587 32.5829 182.331 32.5829H184.779V35.404H182.576ZM174.552 22.7365V20.3302H184.779V22.7365H174.552Z" fill="white"/>
<path d="M193.327 11.1788C193.327 5.00491 198.332 0 204.506 0H217V11.1788H193.327Z" fill="#58B4FF"/>
<path d="M193.327 11.1788H217C217 17.7159 211.701 23.0152 205.164 23.0152H193.327V11.1788Z" fill="#FF580A"/>
<path fill-rule="evenodd" clip-rule="evenodd" d="M206.522 5.73328H202.938V9.3166L199.356 9.3166V12.8999H202.938V16.4832H206.522V12.8999H210.106V9.3166L206.522 9.3166V5.73328Z" fill="white"/>
</svg>
