<svg width="256" height="40" viewBox="0 0 256 40" fill="none" xmlns="http://www.w3.org/2000/svg">
<path d="M17.0625 9.55114C16.911 8.20644 16.286 7.16477 15.1875 6.42614C14.089 5.67803 12.7064 5.30398 11.0398 5.30398C9.84659 5.30398 8.81439 5.49337 7.94318 5.87216C7.07197 6.24148 6.39489 6.75284 5.91193 7.40625C5.43845 8.05019 5.2017 8.78409 5.2017 9.60795C5.2017 10.2992 5.36269 10.8958 5.68466 11.3977C6.0161 11.8996 6.44697 12.321 6.97727 12.6619C7.51705 12.9934 8.0947 13.2727 8.71023 13.5C9.32576 13.7178 9.91761 13.8977 10.4858 14.0398L13.3267 14.7784C14.2547 15.0057 15.2064 15.3134 16.1818 15.7017C17.1572 16.09 18.0616 16.6013 18.8949 17.2358C19.7282 17.8703 20.4006 18.6562 20.9119 19.5938C21.4328 20.5312 21.6932 21.6534 21.6932 22.9602C21.6932 24.608 21.267 26.071 20.4148 27.3494C19.572 28.6278 18.3456 29.6364 16.7358 30.375C15.1354 31.1136 13.1989 31.483 10.9261 31.483C8.74811 31.483 6.86364 31.1373 5.27273 30.446C3.68182 29.7547 2.43655 28.7746 1.53693 27.5057C0.637311 26.2273 0.140152 24.7121 0.0454547 22.9602H4.44886C4.53409 24.0114 4.875 24.8873 5.47159 25.5881C6.07765 26.2794 6.84943 26.7955 7.78693 27.1364C8.7339 27.4678 9.77083 27.6335 10.8977 27.6335C12.1383 27.6335 13.2415 27.4394 14.2074 27.0511C15.1828 26.6534 15.9498 26.1042 16.5085 25.4034C17.0672 24.6932 17.3466 23.8646 17.3466 22.9176C17.3466 22.0559 17.1004 21.3504 16.608 20.8011C16.125 20.2519 15.4669 19.7973 14.6335 19.4375C13.8097 19.0777 12.8769 18.7604 11.8352 18.4858L8.39773 17.5483C6.06818 16.9138 4.22159 15.9811 2.85795 14.75C1.50379 13.5189 0.826705 11.8902 0.826705 9.86364C0.826705 8.1875 1.28125 6.72443 2.19034 5.47443C3.09943 4.22443 4.33049 3.25379 5.88352 2.5625C7.43655 1.86174 9.18845 1.51136 11.1392 1.51136C13.1089 1.51136 14.8466 1.85701 16.3523 2.5483C17.8674 3.23958 19.0606 4.19129 19.9318 5.40341C20.803 6.60606 21.2576 7.98864 21.2955 9.55114H17.0625ZM26.5973 31V9.18182H30.8445V31H26.5973ZM28.7422 5.81534C28.0036 5.81534 27.3691 5.56913 26.8388 5.0767C26.3179 4.57481 26.0575 3.97822 26.0575 3.28693C26.0575 2.58617 26.3179 1.98958 26.8388 1.49716C27.3691 0.995264 28.0036 0.744318 28.7422 0.744318C29.4808 0.744318 30.1106 0.995264 30.6314 1.49716C31.1617 1.98958 31.4268 2.58617 31.4268 3.28693C31.4268 3.97822 31.1617 4.57481 30.6314 5.0767C30.1106 5.56913 29.4808 5.81534 28.7422 5.81534ZM36.5582 31V9.18182H40.6349V12.733H40.9048C41.3594 11.5303 42.1027 10.5928 43.1349 9.92045C44.1671 9.23864 45.4029 8.89773 46.8423 8.89773C48.3007 8.89773 49.5223 9.23864 50.5071 9.92045C51.5014 10.6023 52.2353 11.5398 52.7088 12.733H52.9361C53.4569 11.5682 54.2855 10.6402 55.4219 9.94886C56.5582 9.24811 57.9124 8.89773 59.4844 8.89773C61.4635 8.89773 63.0781 9.51799 64.3281 10.7585C65.5876 11.9991 66.2173 13.8693 66.2173 16.3693V31H61.9702V16.767C61.9702 15.2898 61.5677 14.2197 60.7628 13.5568C59.9579 12.8939 58.9967 12.5625 57.8793 12.5625C56.4967 12.5625 55.4219 12.9886 54.6548 13.8409C53.8878 14.6837 53.5043 15.768 53.5043 17.0938V31H49.2713V16.4972C49.2713 15.3134 48.902 14.3617 48.1634 13.642C47.4247 12.9223 46.4635 12.5625 45.2798 12.5625C44.4749 12.5625 43.7315 12.7756 43.0497 13.2017C42.3774 13.6184 41.8329 14.2008 41.4162 14.9489C41.009 15.697 40.8054 16.5634 40.8054 17.5483V31H36.5582ZM71.9098 39.1818V9.18182H76.0575V12.7188H76.4126C76.6589 12.2642 77.014 11.7386 77.478 11.142C77.942 10.5455 78.5859 10.0246 79.4098 9.57955C80.2337 9.125 81.3227 8.89773 82.6768 8.89773C84.4382 8.89773 86.0102 9.3428 87.3928 10.233C88.7753 11.1231 89.8596 12.4062 90.6456 14.0824C91.4411 15.7585 91.8388 17.7756 91.8388 20.1335C91.8388 22.4915 91.4458 24.5133 90.6598 26.1989C89.8738 27.875 88.7943 29.1676 87.4212 30.0767C86.0481 30.9763 84.4808 31.4261 82.7195 31.4261C81.3937 31.4261 80.3094 31.2036 79.4666 30.7585C78.6333 30.3134 77.9799 29.7926 77.5064 29.196C77.0329 28.5994 76.6683 28.0691 76.4126 27.6051H76.157V39.1818H71.9098ZM76.0717 20.0909C76.0717 21.625 76.2943 22.9697 76.7393 24.125C77.1844 25.2803 77.8284 26.1847 78.6712 26.8381C79.514 27.482 80.5462 27.804 81.7678 27.804C83.0367 27.804 84.0973 27.4678 84.9496 26.7955C85.8018 26.1136 86.4458 25.1903 86.8814 24.0256C87.3265 22.8608 87.549 21.5492 87.549 20.0909C87.549 18.6515 87.3312 17.3589 86.8956 16.2131C86.4695 15.0672 85.8255 14.1629 84.9638 13.5C84.1115 12.8371 83.0462 12.5057 81.7678 12.5057C80.5367 12.5057 79.495 12.8229 78.6428 13.4574C77.8 14.0919 77.1607 14.9773 76.7251 16.1136C76.2895 17.25 76.0717 18.5758 76.0717 20.0909ZM100.844 1.90909V31H96.5973V1.90909H100.844ZM115.962 31.4403C113.812 31.4403 111.961 30.9811 110.408 30.0625C108.864 29.1345 107.671 27.8324 106.828 26.1562C105.995 24.4706 105.578 22.4962 105.578 20.233C105.578 17.9981 105.995 16.0284 106.828 14.3239C107.671 12.6193 108.845 11.2888 110.351 10.3324C111.866 9.37595 113.637 8.89773 115.663 8.89773C116.894 8.89773 118.088 9.10133 119.243 9.50852C120.398 9.91572 121.435 10.5549 122.354 11.4261C123.272 12.2973 123.997 13.429 124.527 14.821C125.057 16.2036 125.322 17.8845 125.322 19.8636V21.3693H107.979V18.1875H121.161C121.161 17.0701 120.933 16.0805 120.479 15.2188C120.024 14.3475 119.385 13.661 118.561 13.1591C117.747 12.6572 116.79 12.4062 115.692 12.4062C114.499 12.4062 113.457 12.6998 112.567 13.2869C111.686 13.8646 111.004 14.6222 110.521 15.5597C110.048 16.4877 109.811 17.4962 109.811 18.5852V21.071C109.811 22.5294 110.067 23.7699 110.578 24.7926C111.099 25.8153 111.823 26.5966 112.751 27.1364C113.679 27.6667 114.764 27.9318 116.004 27.9318C116.809 27.9318 117.543 27.8182 118.206 27.5909C118.869 27.3542 119.442 27.0038 119.925 26.5398C120.408 26.0758 120.777 25.5028 121.033 24.821L125.053 25.5455C124.731 26.7292 124.153 27.7661 123.32 28.6562C122.496 29.5369 121.459 30.2235 120.209 30.7159C118.968 31.1989 117.553 31.4403 115.962 31.4403ZM130.376 31V1.90909H140.745C142.999 1.90909 144.869 2.29735 146.356 3.07386C147.852 3.85038 148.969 4.92519 149.708 6.2983C150.447 7.66193 150.816 9.23864 150.816 11.0284C150.816 12.8087 150.442 14.3759 149.694 15.7301C148.955 17.0748 147.838 18.1212 146.342 18.8693C144.855 19.6174 142.985 19.9915 140.731 19.9915H132.876V16.2131H140.333C141.754 16.2131 142.909 16.0095 143.799 15.6023C144.699 15.1951 145.357 14.6032 145.773 13.8267C146.19 13.0502 146.398 12.1174 146.398 11.0284C146.398 9.92992 146.185 8.97822 145.759 8.1733C145.343 7.36837 144.684 6.75284 143.785 6.3267C142.895 5.8911 141.725 5.6733 140.276 5.6733H134.765V31H130.376ZM144.737 17.875L151.924 31H146.924L139.879 17.875H144.737ZM164.946 31.4403C162.796 31.4403 160.945 30.9811 159.392 30.0625C157.848 29.1345 156.655 27.8324 155.812 26.1562C154.979 24.4706 154.562 22.4962 154.562 20.233C154.562 17.9981 154.979 16.0284 155.812 14.3239C156.655 12.6193 157.83 11.2888 159.335 10.3324C160.85 9.37595 162.621 8.89773 164.648 8.89773C165.879 8.89773 167.072 9.10133 168.227 9.50852C169.383 9.91572 170.42 10.5549 171.338 11.4261C172.257 12.2973 172.981 13.429 173.511 14.821C174.042 16.2036 174.307 17.8845 174.307 19.8636V21.3693H156.963V18.1875H170.145C170.145 17.0701 169.918 16.0805 169.463 15.2188C169.009 14.3475 168.369 13.661 167.545 13.1591C166.731 12.6572 165.775 12.4062 164.676 12.4062C163.483 12.4062 162.441 12.6998 161.551 13.2869C160.67 13.8646 159.989 14.6222 159.506 15.5597C159.032 16.4877 158.795 17.4962 158.795 18.5852V21.071C158.795 22.5294 159.051 23.7699 159.562 24.7926C160.083 25.8153 160.808 26.5966 161.736 27.1364C162.664 27.6667 163.748 27.9318 164.989 27.9318C165.794 27.9318 166.527 27.8182 167.19 27.5909C167.853 27.3542 168.426 27.0038 168.909 26.5398C169.392 26.0758 169.761 25.5028 170.017 24.821L174.037 25.5455C173.715 26.7292 173.137 27.7661 172.304 28.6562C171.48 29.5369 170.443 30.2235 169.193 30.7159C167.953 31.1989 166.537 31.4403 164.946 31.4403ZM179.019 39.1818V9.18182H183.167V12.7188H183.522C183.768 12.2642 184.123 11.7386 184.587 11.142C185.051 10.5455 185.695 10.0246 186.519 9.57955C187.343 9.125 188.432 8.89773 189.786 8.89773C191.548 8.89773 193.12 9.3428 194.502 10.233C195.885 11.1231 196.969 12.4062 197.755 14.0824C198.55 15.7585 198.948 17.7756 198.948 20.1335C198.948 22.4915 198.555 24.5133 197.769 26.1989C196.983 27.875 195.904 29.1676 194.531 30.0767C193.157 30.9763 191.59 31.4261 189.829 31.4261C188.503 31.4261 187.419 31.2036 186.576 30.7585C185.743 30.3134 185.089 29.7926 184.616 29.196C184.142 28.5994 183.778 28.0691 183.522 27.6051H183.266V39.1818H179.019ZM183.181 20.0909C183.181 21.625 183.404 22.9697 183.849 24.125C184.294 25.2803 184.938 26.1847 185.781 26.8381C186.623 27.482 187.656 27.804 188.877 27.804C190.146 27.804 191.207 27.4678 192.059 26.7955C192.911 26.1136 193.555 25.1903 193.991 24.0256C194.436 22.8608 194.658 21.5492 194.658 20.0909C194.658 18.6515 194.441 17.3589 194.005 16.2131C193.579 15.0672 192.935 14.1629 192.073 13.5C191.221 12.8371 190.156 12.5057 188.877 12.5057C187.646 12.5057 186.604 12.8229 185.752 13.4574C184.909 14.0919 184.27 14.9773 183.835 16.1136C183.399 17.25 183.181 18.5758 183.181 20.0909ZM212.897 31.4403C210.852 31.4403 209.067 30.9716 207.542 30.0341C206.017 29.0966 204.834 27.785 203.991 26.0994C203.148 24.4138 202.727 22.4441 202.727 20.1903C202.727 17.9271 203.148 15.9479 203.991 14.2528C204.834 12.5578 206.017 11.2415 207.542 10.304C209.067 9.36648 210.852 8.89773 212.897 8.89773C214.942 8.89773 216.728 9.36648 218.252 10.304C219.777 11.2415 220.96 12.5578 221.803 14.2528C222.646 15.9479 223.067 17.9271 223.067 20.1903C223.067 22.4441 222.646 24.4138 221.803 26.0994C220.96 27.785 219.777 29.0966 218.252 30.0341C216.728 30.9716 214.942 31.4403 212.897 31.4403ZM212.911 27.875C214.237 27.875 215.335 27.5246 216.207 26.8239C217.078 26.1231 217.722 25.1903 218.138 24.0256C218.565 22.8608 218.778 21.5777 218.778 20.1761C218.778 18.7841 218.565 17.5057 218.138 16.3409C217.722 15.1667 217.078 14.2244 216.207 13.5142C215.335 12.804 214.237 12.4489 212.911 12.4489C211.576 12.4489 210.468 12.804 209.587 13.5142C208.716 14.2244 208.067 15.1667 207.641 16.3409C207.225 17.5057 207.016 18.7841 207.016 20.1761C207.016 21.5777 207.225 22.8608 207.641 24.0256C208.067 25.1903 208.716 26.1231 209.587 26.8239C210.468 27.5246 211.576 27.875 212.911 27.875ZM227.808 31V9.18182H231.913V12.6477H232.141C232.538 11.4735 233.239 10.5502 234.243 9.87784C235.256 9.19602 236.402 8.85511 237.68 8.85511C237.946 8.85511 238.258 8.86458 238.618 8.88352C238.987 8.90246 239.276 8.92614 239.484 8.95455V13.017C239.314 12.9697 239.011 12.9176 238.575 12.8608C238.14 12.7945 237.704 12.7614 237.268 12.7614C236.265 12.7614 235.37 12.9744 234.584 13.4006C233.807 13.8172 233.192 14.3996 232.737 15.1477C232.283 15.8864 232.055 16.7292 232.055 17.6761V31H227.808ZM254.634 9.18182V12.5909H242.716V9.18182H254.634ZM245.912 3.95455H250.159V24.5938C250.159 25.4176 250.282 26.0379 250.528 26.4545C250.775 26.8617 251.092 27.1411 251.48 27.2926C251.878 27.4347 252.309 27.5057 252.773 27.5057C253.114 27.5057 253.412 27.482 253.668 27.4347C253.923 27.3873 254.122 27.3494 254.264 27.321L255.031 30.8295C254.785 30.9242 254.435 31.0189 253.98 31.1136C253.526 31.2178 252.957 31.2746 252.276 31.2841C251.158 31.303 250.116 31.1042 249.151 30.6875C248.185 30.2708 247.403 29.6269 246.807 28.7557C246.21 27.8845 245.912 26.7907 245.912 25.4744V3.95455Z" fill="#97D4E9"/>
</svg>
