<svg width="185" height="27" viewBox="0 0 185 27" fill="none" xmlns="http://www.w3.org/2000/svg">
<path d="M7.96923 21.7359C6.26477 21.7359 4.81417 21.4593 3.61743 20.9062C2.43882 20.3345 1.54126 19.5601 0.924757 18.5829C0.308252 17.5872 0 16.4624 0 15.2085H3.20945C3.20945 15.7801 3.36358 16.3425 3.67183 16.8957C3.98008 17.4489 4.47872 17.9098 5.16776 18.2786C5.85679 18.629 6.79061 18.8041 7.96923 18.8041C9.03904 18.8041 9.91847 18.6474 10.6075 18.3339C11.3147 18.0205 11.8314 17.6056 12.1578 17.0893C12.5023 16.573 12.6746 16.0014 12.6746 15.3745C12.6746 14.6001 12.3482 13.9731 11.6955 13.4937C11.0427 12.9959 10.0635 12.6916 8.75799 12.581L6.77248 12.3874C4.9411 12.2399 3.48144 11.6683 2.39349 10.6726C1.30554 9.65845 0.761564 8.33085 0.761564 6.68979C0.761564 5.43595 1.05168 4.34805 1.63192 3.42611C2.2303 2.50417 3.06439 1.78505 4.13421 1.26876C5.20402 0.734038 6.4461 0.466675 7.86043 0.466675C9.31103 0.466675 10.5712 0.734038 11.6411 1.26876C12.7109 1.78505 13.5359 2.52261 14.1161 3.48143C14.7145 4.42181 15.0137 5.54658 15.0137 6.85574H11.8042C11.8042 6.2657 11.6592 5.71253 11.3691 5.19624C11.0971 4.66152 10.671 4.2282 10.0907 3.8963C9.51049 3.5644 8.76706 3.39845 7.86043 3.39845C6.99007 3.39845 6.26477 3.55518 5.68453 3.86864C5.12243 4.18211 4.69631 4.58776 4.40619 5.08561C4.11607 5.58346 3.97101 6.11818 3.97101 6.68979C3.97101 7.37203 4.22487 7.98051 4.73258 8.51524C5.24029 9.03152 6.01998 9.33577 7.07167 9.42796L9.02998 9.59391C10.4262 9.70454 11.632 10.0088 12.6474 10.5066C13.681 10.986 14.4788 11.6314 15.0409 12.4427C15.6211 13.254 15.9113 14.2313 15.9113 15.3745C15.9113 16.6283 15.5758 17.7347 14.9049 18.6935C14.2521 19.6523 13.3274 20.3991 12.1306 20.9338C10.952 21.4685 9.56488 21.7359 7.96923 21.7359Z" fill="white"/>
<path d="M20.2805 21.238V6.33023H23.4627V21.238H20.2805ZM18.1318 8.81948V6.33023H23.4627V8.81948H18.1318ZM21.314 4.25586C20.6613 4.25586 20.1717 4.08069 19.8453 3.73035C19.537 3.38002 19.3829 2.92826 19.3829 2.3751C19.3829 1.84037 19.537 1.39784 19.8453 1.0475C20.1717 0.678722 20.6613 0.494333 21.314 0.494333C21.9849 0.494333 22.4745 0.678722 22.7828 1.0475C23.1091 1.39784 23.2723 1.84037 23.2723 2.3751C23.2723 2.92826 23.1091 3.38002 22.7828 3.73035C22.4745 4.08069 21.9849 4.25586 21.314 4.25586Z" fill="white"/>
<path d="M28.2057 21.238V6.33023H30.7352V12.747H30.436C30.436 11.2718 30.6173 10.0272 30.98 9.01309C31.3608 7.99895 31.9229 7.22452 32.6663 6.68979C33.4279 6.15506 34.3708 5.8877 35.495 5.8877H35.631C36.7733 5.8877 37.7162 6.15506 38.4596 6.68979C39.2212 7.22452 39.7833 7.99895 40.146 9.01309C40.5267 10.0272 40.7171 11.2718 40.7171 12.747H39.8468C39.8468 11.2718 40.0372 10.0272 40.4179 9.01309C40.7987 7.99895 41.3699 7.22452 42.1315 6.68979C42.893 6.15506 43.8359 5.8877 44.9601 5.8877H45.0961C46.2385 5.8877 47.1904 6.15506 47.952 6.68979C48.7136 7.22452 49.2847 7.99895 49.6655 9.01309C50.0463 10.0272 50.2367 11.2718 50.2367 12.747V21.238H47.0544V12.2768C47.0544 11.1889 46.7824 10.3407 46.2385 9.7322C45.7126 9.12372 44.9783 8.81948 44.0354 8.81948C43.0562 8.81948 42.2765 9.14216 41.6963 9.78752C41.116 10.4144 40.8259 11.2903 40.8259 12.4151V21.238H37.6165V12.2768C37.6165 11.1889 37.3536 10.3407 36.8277 9.7322C36.3019 9.12372 35.5675 8.81948 34.6246 8.81948C33.6455 8.81948 32.8567 9.14216 32.2583 9.78752C31.6781 10.4144 31.388 11.2903 31.388 12.4151V21.238H28.2057Z" fill="white"/>
<path d="M53.2237 26.7697V6.33023H55.7532V12.7746L55.2636 12.747C55.3543 11.1797 55.6807 9.88893 56.2428 8.87479C56.8049 7.86066 57.5483 7.10466 58.4731 6.60681C59.3978 6.10896 60.4133 5.86004 61.5193 5.86004C62.571 5.86004 63.523 6.06287 64.3752 6.46852C65.2274 6.85574 65.9618 7.39969 66.5783 8.10036C67.1948 8.80104 67.6572 9.61235 67.9654 10.5343C68.2918 11.4562 68.455 12.4519 68.455 13.5214V14.0469C68.455 15.0979 68.2918 16.0936 67.9654 17.034C67.639 17.9559 67.1676 18.7672 66.5511 19.4679C65.9346 20.1686 65.2002 20.7218 64.348 21.1274C63.4958 21.5331 62.5438 21.7359 61.4921 21.7359C60.4223 21.7359 59.425 21.5054 58.5003 21.0444C57.5755 20.5835 56.814 19.8459 56.2156 18.8318C55.6172 17.8176 55.2818 16.4993 55.2092 14.8766L56.406 16.9234V26.7697H53.2237ZM60.8122 18.9424C61.7007 18.9424 62.4804 18.7304 63.1513 18.3063C63.8222 17.8637 64.3389 17.2553 64.7016 16.4808C65.0824 15.688 65.2728 14.7844 65.2728 13.7703C65.2728 12.7562 65.0824 11.8619 64.7016 11.0875C64.3389 10.313 63.8222 9.71376 63.1513 9.28967C62.4985 8.84714 61.7188 8.62587 60.8122 8.62587C60.0143 8.62587 59.2709 8.81026 58.5819 9.17904C57.8928 9.54781 57.3398 10.0825 56.9228 10.7832C56.5057 11.4655 56.2972 12.2952 56.2972 13.2725V14.4618C56.2972 15.4022 56.5057 16.2135 56.9228 16.8957C57.3579 17.5595 57.92 18.0666 58.6091 18.4169C59.2981 18.7672 60.0325 18.9424 60.8122 18.9424Z" fill="white"/>
<path d="M71.5535 21.238V1.0475H74.7629V21.238H71.5535ZM69.6224 3.53674V1.0475H74.7629V3.53674H69.6224Z" fill="white"/>
<path d="M85.1115 21.7359C83.8423 21.7359 82.7362 21.5146 81.7933 21.0721C80.8504 20.6296 80.0798 20.0487 79.4814 19.3296C78.883 18.5921 78.4297 17.7715 78.1215 16.868C77.8313 15.9461 77.6863 15.0057 77.6863 14.0469V13.5214C77.6863 12.5441 77.8313 11.6037 78.1215 10.7002C78.4297 9.7783 78.883 8.95777 79.4814 8.23865C80.0798 7.5011 80.8323 6.92027 81.7389 6.49618C82.6637 6.05365 83.7335 5.83238 84.9483 5.83238C86.5259 5.83238 87.8405 6.18272 88.8922 6.8834C89.9438 7.58407 90.7326 8.4968 91.2585 9.62157C91.7843 10.7279 92.0472 11.9264 92.0472 13.2171V14.5171H79.0462V12.3321H89.8985L89.0282 13.4384C89.0282 12.4427 88.874 11.5853 88.5658 10.8662C88.2575 10.1286 87.8042 9.56625 87.2058 9.17904C86.6075 8.77338 85.855 8.57055 84.9483 8.57055C84.0055 8.57055 83.2167 8.79182 82.5821 9.23435C81.9474 9.67688 81.476 10.2854 81.1677 11.0598C80.8595 11.8342 80.7053 12.747 80.7053 13.798C80.7053 14.7937 80.8595 15.688 81.1677 16.4808C81.476 17.2553 81.9565 17.873 82.6093 18.3339C83.262 18.7765 84.0961 18.9977 85.1115 18.9977C86.127 18.9977 86.9611 18.7765 87.6138 18.3339C88.2666 17.873 88.6655 17.3382 88.8106 16.7297H91.7752C91.5758 17.7439 91.1678 18.629 90.5513 19.3849C89.9529 20.1409 89.1913 20.7218 88.2666 21.1274C87.3418 21.5331 86.2901 21.7359 85.1115 21.7359Z" fill="white"/>
<path d="M95.0879 21.238V0.909208H98.3517V21.238H95.0879ZM107.273 21.238L100.963 12.3597H104.662L111.162 21.238H107.273ZM97.291 14.2128V11.4194H102.459C103.238 11.4194 103.909 11.2626 104.471 10.9492C105.034 10.6173 105.46 10.1655 105.75 9.59391C106.058 9.0223 106.212 8.35851 106.212 7.60251C106.212 6.86496 106.058 6.21038 105.75 5.63878C105.46 5.06717 105.034 4.61542 104.471 4.28352C103.909 3.95162 103.238 3.78567 102.459 3.78567H97.291V0.909208H102.024C103.547 0.909208 104.87 1.14891 105.995 1.62832C107.119 2.08929 107.989 2.78997 108.606 3.73035C109.222 4.67074 109.53 5.87848 109.53 7.35359V7.79612C109.53 9.27123 109.213 10.479 108.578 11.4194C107.962 12.3597 107.092 13.0604 105.967 13.5214C104.861 13.9824 103.547 14.2128 102.024 14.2128H97.291Z" fill="white"/>
<path d="M120.198 21.7359C118.928 21.7359 117.822 21.5146 116.879 21.0721C115.936 20.6296 115.166 20.0487 114.567 19.3296C113.969 18.5921 113.516 17.7715 113.208 16.868C112.917 15.9461 112.772 15.0057 112.772 14.0469V13.5214C112.772 12.5441 112.917 11.6037 113.208 10.7002C113.516 9.7783 113.969 8.95777 114.567 8.23865C115.166 7.5011 115.918 6.92027 116.825 6.49618C117.75 6.05365 118.82 5.83238 120.034 5.83238C121.612 5.83238 122.927 6.18272 123.978 6.8834C125.03 7.58407 125.819 8.4968 126.345 9.62157C126.87 10.7279 127.133 11.9264 127.133 13.2171V14.5171H114.132V12.3321H124.985L124.114 13.4384C124.114 12.4427 123.96 11.5853 123.652 10.8662C123.344 10.1286 122.89 9.56625 122.292 9.17904C121.694 8.77338 120.941 8.57055 120.034 8.57055C119.092 8.57055 118.303 8.79182 117.668 9.23435C117.033 9.67688 116.562 10.2854 116.254 11.0598C115.946 11.8342 115.791 12.747 115.791 13.798C115.791 14.7937 115.946 15.688 116.254 16.4808C116.562 17.2553 117.043 17.873 117.695 18.3339C118.348 18.7765 119.182 18.9977 120.198 18.9977C121.213 18.9977 122.047 18.7765 122.7 18.3339C123.353 17.873 123.752 17.3382 123.897 16.7297H126.861C126.662 17.7439 126.254 18.629 125.637 19.3849C125.039 20.1409 124.277 20.7218 123.353 21.1274C122.428 21.5331 121.376 21.7359 120.198 21.7359Z" fill="white"/>
<path d="M129.848 26.7697V6.33023H132.377V12.7746L131.887 12.747C131.978 11.1797 132.305 9.88893 132.867 8.87479C133.429 7.86066 134.172 7.10466 135.097 6.60681C136.022 6.10896 137.037 5.86004 138.143 5.86004C139.195 5.86004 140.147 6.06287 140.999 6.46852C141.851 6.85574 142.586 7.39969 143.202 8.10036C143.819 8.80104 144.281 9.61235 144.589 10.5343C144.916 11.4562 145.079 12.4519 145.079 13.5214V14.0469C145.079 15.0979 144.916 16.0936 144.589 17.034C144.263 17.9559 143.791 18.7672 143.175 19.4679C142.558 20.1686 141.824 20.7218 140.972 21.1274C140.12 21.5331 139.168 21.7359 138.116 21.7359C137.046 21.7359 136.049 21.5054 135.124 21.0444C134.199 20.5835 133.438 19.8459 132.839 18.8318C132.241 17.8176 131.906 16.4993 131.833 14.8766L133.03 16.9234V26.7697H129.848ZM137.436 18.9424C138.324 18.9424 139.104 18.7304 139.775 18.3063C140.446 17.8637 140.963 17.2553 141.325 16.4808C141.706 15.688 141.897 14.7844 141.897 13.7703C141.897 12.7562 141.706 11.8619 141.325 11.0875C140.963 10.313 140.446 9.71376 139.775 9.28967C139.122 8.84714 138.343 8.62587 137.436 8.62587C136.638 8.62587 135.895 8.81026 135.206 9.17904C134.517 9.54781 133.964 10.0825 133.547 10.7832C133.13 11.4655 132.921 12.2952 132.921 13.2725V14.4618C132.921 15.4022 133.13 16.2135 133.547 16.8957C133.982 17.5595 134.544 18.0666 135.233 18.4169C135.922 18.7672 136.656 18.9424 137.436 18.9424Z" fill="white"/>
<path d="M154.895 21.7359C153.608 21.7359 152.475 21.5239 151.496 21.0998C150.516 20.6572 149.691 20.0764 149.02 19.3573C148.35 18.6382 147.842 17.8269 147.497 16.9234C147.153 16.0014 146.981 15.0518 146.981 14.0746V13.5214C146.981 12.5441 147.153 11.5945 147.497 10.6726C147.86 9.75064 148.377 8.93011 149.048 8.211C149.737 7.47344 150.571 6.89262 151.55 6.46852C152.529 6.04443 153.644 5.83238 154.895 5.83238C156.147 5.83238 157.253 6.04443 158.214 6.46852C159.193 6.89262 160.027 7.47344 160.716 8.211C161.405 8.93011 161.922 9.75064 162.266 10.6726C162.629 11.5945 162.81 12.5441 162.81 13.5214V14.0746C162.81 15.0518 162.638 16.0014 162.293 16.9234C161.949 17.8269 161.441 18.6382 160.77 19.3573C160.099 20.0764 159.274 20.6572 158.295 21.0998C157.316 21.5239 156.183 21.7359 154.895 21.7359ZM154.895 18.9148C155.893 18.9148 156.745 18.6935 157.452 18.251C158.159 17.79 158.694 17.1723 159.057 16.3978C159.438 15.6234 159.628 14.7568 159.628 13.798C159.628 12.8207 159.438 11.9449 159.057 11.1704C158.676 10.396 158.132 9.78752 157.425 9.34499C156.718 8.88401 155.875 8.65353 154.895 8.65353C153.916 8.65353 153.073 8.88401 152.366 9.34499C151.659 9.78752 151.115 10.396 150.734 11.1704C150.353 11.9449 150.163 12.8207 150.163 13.798C150.163 14.7568 150.344 15.6234 150.707 16.3978C151.088 17.1723 151.632 17.79 152.339 18.251C153.046 18.6935 153.898 18.9148 154.895 18.9148Z" fill="white"/>
<path d="M165.011 21.238V6.33023H167.54V12.5533H167.431C167.431 10.4144 167.894 8.81948 168.818 7.76846C169.743 6.69901 171.112 6.16428 172.925 6.16428H173.442V9.01309H172.463C171.085 9.01309 170.024 9.39108 169.281 10.1471C168.556 10.8846 168.193 11.9449 168.193 13.3278V21.238H165.011Z" fill="white"/>
<path d="M182.576 21.404C181.361 21.404 180.336 21.2381 179.502 20.9062C178.668 20.5743 178.034 20.0026 177.598 19.1913C177.181 18.38 176.973 17.2829 176.973 15.9V1.98788H179.992V16.1766C179.992 16.951 180.191 17.5503 180.59 17.9744C181.007 18.38 181.587 18.5829 182.331 18.5829H184.779V21.404H182.576ZM174.552 8.7365V6.33023H184.779V8.7365H174.552Z" fill="white"/>
</svg>
