<svg width="124" height="121" viewBox="0 0 124 121" fill="none" xmlns="http://www.w3.org/2000/svg">
<path d="M100.839 6.51373C116.677 16.9207 122.396 36.6085 123.738 55.5502C125.067 74.314 121.566 93.8656 107.943 106.797C94.2112 119.833 74.4272 122.72 55.6942 120.141C36.6613 117.522 17.9735 109.538 8.04017 93.0473C-2.08016 76.2463 -2.39835 55.0017 5.68935 37.1274C13.2901 20.3292 30.1178 11.1801 47.6328 5.54478C65.403 -0.172631 85.2286 -3.74298 100.839 6.51373Z" fill="#FFBC78"/>
<path d="M55.5445 10.0956C55.8347 9.15547 57.1653 9.15547 57.4555 10.0956L58.4153 13.2048C58.5446 13.6239 58.9321 13.9098 59.3708 13.9098H62.5814C63.5376 13.9098 63.9484 15.1232 63.1888 15.7042L60.5047 17.757C60.172 18.0114 60.0331 18.4461 60.1566 18.8462L61.1608 22.0996C61.448 23.03 60.3713 23.7804 59.5978 23.1888L57.1075 21.2843C56.7489 21.01 56.2511 21.01 55.8925 21.2843L53.4022 23.1888C52.6287 23.7804 51.552 23.03 51.8392 22.0996L52.8434 18.8462C52.9669 18.4461 52.828 18.0114 52.4953 17.757L49.8112 15.7042C49.0516 15.1232 49.4624 13.9098 50.4186 13.9098H53.6292C54.0679 13.9098 54.4554 13.6239 54.5847 13.2048L55.5445 10.0956Z" fill="white"/>
<path d="M93.0538 52.7665C93.3623 51.8646 94.6377 51.8646 94.9462 52.7665L96.0138 55.888C96.1522 56.2925 96.5324 56.5643 96.96 56.5643H100.301C101.282 56.5643 101.677 57.83 100.869 58.3873L98.2559 60.1912C97.8873 60.4456 97.7328 60.914 97.8778 61.3378L98.8966 64.3166C99.2086 65.229 98.1759 66.011 97.3823 65.4632L94.568 63.5208C94.2261 63.2847 93.7739 63.2847 93.432 63.5208L90.6177 65.4632C89.8241 66.011 88.7914 65.229 89.1034 64.3166L90.1222 61.3378C90.2672 60.914 90.1127 60.4456 89.7441 60.1912L87.1306 58.3873C86.3232 57.83 86.7176 56.5643 87.6987 56.5643H91.04C91.4676 56.5643 91.8478 56.2925 91.9862 55.888L93.0538 52.7665Z" fill="white"/>
<path d="M105.556 36.7128C105.867 35.8179 107.133 35.8179 107.444 36.7128L107.95 38.1657C108.09 38.5676 108.469 38.8369 108.895 38.8369H110.376C111.362 38.8369 111.753 40.1115 110.938 40.6645L109.86 41.3952C109.485 41.6494 109.328 42.1238 109.477 42.5516L109.916 43.8128C110.233 44.7221 109.207 45.5096 108.41 44.9693L107.061 44.0543C106.722 43.8245 106.278 43.8245 105.939 44.0543L104.59 44.9693C103.793 45.5097 102.767 44.7221 103.084 43.8128L103.523 42.5516C103.672 42.1238 103.515 41.6494 103.14 41.3952L102.062 40.6645C101.247 40.1115 101.638 38.8369 102.624 38.8369H104.105C104.531 38.8369 104.91 38.5676 105.05 38.1657L105.556 36.7128Z" fill="#162E51"/>
<path d="M45.5489 37.9271C45.8483 37.0057 47.1517 37.0057 47.4511 37.9271L47.7348 38.8004C47.8687 39.2124 48.2527 39.4914 48.6859 39.4914H49.6042C50.5729 39.4914 50.9757 40.731 50.192 41.3004L49.449 41.8402C49.0986 42.0948 48.9519 42.5462 49.0858 42.9582L49.3695 43.8316C49.6689 44.7529 48.6144 45.519 47.8307 44.9496L47.0878 44.4098C46.7373 44.1552 46.2627 44.1552 45.9122 44.4098L45.1693 44.9496C44.3856 45.519 43.3311 44.7529 43.6305 43.8316L43.9142 42.9582C44.0481 42.5462 43.9014 42.0948 43.551 41.8402L42.808 41.3004C42.0243 40.731 42.4271 39.4914 43.3958 39.4914H44.3141C44.7473 39.4914 45.1313 39.2124 45.2652 38.8004L45.5489 37.9271Z" fill="#162E51"/>
<path d="M76.2543 38.151L84.8068 46.7035L43.4696 88.0407C41.1079 90.4024 37.2788 90.4024 34.9171 88.0407V88.0407C32.5554 85.679 32.5554 81.8499 34.9171 79.4882L76.2543 38.151Z" stroke="#162E51" stroke-width="4" stroke-linejoin="round"/>
<path d="M81.1007 33.3045C83.4624 30.9427 87.2915 30.9427 89.6532 33.3045V33.3045C92.0149 35.6662 92.0149 39.4953 89.6532 41.857L84.8068 46.7034L76.2543 38.1509L81.1007 33.3045Z" stroke="#162E51" stroke-width="4" stroke-linejoin="round"/>
</svg>
