<svg width="766" height="439" viewBox="0 0 766 439" fill="none" xmlns="http://www.w3.org/2000/svg">
<!-- HI -->
<path d="M175 387.855L176.451 385.209L178.144 384.969L178.385 385.57L176.814 387.855H175ZM182.617 385.089L187.212 387.013L188.784 386.773L189.993 383.886L189.509 381.361L186.366 381L183.343 382.323L182.617 385.089ZM205.59 392.546L208.371 396.635L210.185 396.394L211.031 396.033L212.119 396.996L214.9 396.875L215.626 395.793L213.449 394.47L211.999 391.704L210.427 389.058L206.074 391.223L205.59 392.546ZM220.704 399.16L221.671 397.717L225.178 398.439L225.661 398.078L230.256 398.559L230.014 399.521L228.08 400.604L224.815 400.363L220.704 399.16ZM224.694 403.009L226.145 405.895L228.442 405.053L228.684 403.851L227.475 402.287L224.694 402.047V403.009ZM229.893 402.167L231.586 400.002L235.092 401.806L238.357 402.648L241.622 404.693V406.136L238.962 407.459L235.334 408.18L233.521 407.098L229.893 402.167ZM242.347 413.713L243.556 412.751L246.095 413.953L251.778 416.599L254.317 418.163L255.526 419.967L256.977 423.214L260 425.138L259.758 426.1L256.856 428.506L253.713 429.588L252.624 429.107L250.327 430.43L248.514 432.835L246.821 435L245.491 434.88L242.831 432.955L242.589 429.588L243.073 427.784L241.863 423.575L240.292 422.252L240.171 420.327L241.863 419.606L243.435 417.321L243.798 416.599L242.589 415.276L242.347 413.713Z" fill="#DFE1E2"/>
<!-- AK -->
<path d="M153.898 338.298L153.654 401.899L154.875 402.622L157.195 402.742L158.294 401.899H160.247L160.369 404.068L165.62 409.127L165.986 411.054L168.55 409.609L169.039 409.488L169.283 407.199L170.382 405.995L171.236 405.874L172.702 404.79L175.022 406.356L175.51 408.524L176.975 409.368L177.83 411.174L180.76 412.499L183.325 416.956L185.4 419.847L187.11 421.895L188.209 424.666L191.994 425.991L195.901 427.557L196.634 430.809L197 433.098L196.267 435.627L194.924 437.314L193.703 436.711L192.604 434.423L190.529 433.339L189.185 432.495L188.575 433.098L189.674 435.145L189.796 437.916L188.941 438.277L187.476 436.832L185.889 435.868L186.255 437.073L187.232 438.398L186.621 439C186.621 439 186.011 438.759 185.645 438.277C185.278 437.795 184.057 435.748 184.057 435.748L183.325 434.061C183.325 434.061 183.08 435.025 182.592 434.784C182.104 434.543 181.615 433.7 181.615 433.7L182.958 432.254L181.859 431.17V427.436H181.249L180.638 429.966L179.784 430.327L179.051 427.557L178.563 424.786L177.952 424.425L178.196 428.641V429.484L177.097 428.52L174.411 424.063L172.824 423.702L172.335 420.931L171.114 418.763L169.893 417.92V416.234L171.481 415.27L171.114 415.029L169.161 415.511L166.597 413.704L164.643 411.536L160.98 409.609L157.927 407.681L158.904 405.272V404.068L157.561 405.272L155.363 406.115L152.555 405.272L148.281 403.465H144.13L143.641 403.827L138.757 400.936L137.17 400.695L135.094 396.358L132.408 396.599L129.722 397.683L130.088 401.056L130.943 398.888L131.675 399.129L130.577 402.381L133.019 400.333L133.507 401.538L130.577 404.79L129.6 404.549L129.233 403.104L128.257 402.502L127.28 403.345L125.204 402.02L122.884 403.586L121.541 405.152L118.977 406.718L115.436 406.597L115.07 405.031L117.878 404.549V403.586L116.168 403.104L116.901 401.297L118.611 398.406V397.081L118.733 396.479L122.029 394.792L122.762 395.756H124.838L123.861 393.829L121.053 393.588L117.267 395.635L115.436 398.165L114.093 400.092L113.238 401.779L110.063 402.863L107.743 404.79L107.499 405.995L109.209 406.718L109.819 408.283L107.743 410.693L102.859 413.825L96.9985 416.956L95.4111 417.8L91.3818 418.643L87.3524 420.329L88.6955 421.293L87.5966 422.377L87.2303 423.22L85.1546 422.497L82.7125 422.618L82.102 424.304H81.3694L81.6136 422.497L78.9273 423.461L76.7295 424.184L74.1654 423.22L71.9675 424.666H69.5255L67.9382 425.629L66.7172 426.232L65.1298 425.991L63.1762 425.147L61.4668 425.629L60.7342 426.352L59.5131 425.509V424.063L61.8331 423.1L66.5951 423.582L69.8918 422.377L71.4791 420.811L73.677 420.329L75.0201 419.727L77.0958 419.847L78.3168 420.811L79.0495 420.57L80.7589 418.522L83.0788 417.8L85.643 417.318L86.6198 417.077L87.1082 417.438H87.7187L88.6955 414.668L91.7481 413.584L93.2133 410.813L94.9227 407.44L96.1437 406.356L96.3879 404.429L95.1669 405.393L92.6028 405.874L92.1144 404.068L91.1376 403.827L90.4049 404.549L90.2828 406.718L89.1839 406.597L88.085 402.261L87.1082 403.224L86.2535 402.863L86.0093 401.417L82.9567 401.538L81.3694 402.381L79.4158 402.14L80.5147 401.056L80.881 399.129L80.3926 397.683L81.4915 396.961L82.4683 396.84L81.9799 395.515V392.263L81.2473 391.54L80.6368 392.624H75.9969L74.898 391.66L74.4096 388.769L72.8223 386.119V385.397L74.4096 384.794L74.5317 383.228L75.3864 382.385L74.7759 382.024L73.7991 382.385L72.9444 380.337L73.677 376.603L77.0958 374.194L79.0495 372.99L80.5147 370.219L82.5904 369.255L84.5441 370.099L84.7883 371.906L86.6198 371.665L89.0618 369.858L90.2828 370.34L91.0154 370.821H92.2365L93.9459 369.858L94.5564 366.605C94.5564 366.605 94.8006 364.437 95.289 364.076C95.7774 363.714 96.0216 363.353 96.0216 363.353L95.1669 361.908L93.2133 362.51L90.7712 363.112L89.306 362.751L86.6198 361.426L82.8346 361.305L80.1484 358.535L80.5147 355.644L81.0031 353.837L79.4158 352.512L77.9505 349.741L78.3168 349.139L83.4451 348.778H85.0325L85.7651 349.501H86.2535L86.1314 348.296L89.0618 347.814L91.0154 348.055L92.1144 348.898L91.0154 350.464L90.6492 351.548L92.7249 352.753L96.51 354.078L97.8532 353.355L96.1437 350.103L95.4111 347.694L96.1437 347.091L93.5796 345.646L93.2133 344.803L93.5796 343.598L92.9691 340.707L90.7712 337.214L88.9397 334.082L91.1376 332.637H93.5796L94.9227 333.118L98.0974 332.998L100.906 330.348L101.76 328.059L104.569 326.252L105.79 326.975L107.866 326.493L110.674 324.927L111.529 324.807L112.261 325.409L115.68 325.289L117.756 323H118.611L121.297 324.807L122.762 326.373L122.396 327.216L122.884 328.059L124.105 326.855L127.036 327.096L127.28 329.866L128.745 330.95L134.117 331.432L138.879 334.564L139.978 333.841L143.886 335.768L145.473 335.287L146.938 334.684L150.601 336.13L153.898 338.298ZM66.9614 359.86L68.5487 363.835L68.4266 364.558L66.2287 364.317L64.8856 361.305L63.5425 360.221H61.711L61.5889 358.294L62.932 356.487L63.7867 358.294L64.8856 359.378L66.9614 359.86ZM65.0077 384.794L67.8161 385.397L70.6244 386.119L71.2349 386.842L70.0139 389.613L67.694 389.492L65.1298 386.842L65.0077 384.794ZM49.3787 374.315L50.2334 376.242L51.0881 377.447L50.2334 378.049L48.6461 375.76V374.315H49.3787ZM39 428.761L41.5641 427.075L44.1283 426.352L46.0819 426.593L46.4482 427.798L47.9134 428.159L49.3787 426.713L49.1345 425.509L51.2102 425.027L53.408 426.954L52.5533 428.279L49.2566 429.123L47.1808 428.761L44.3725 427.918L41.0757 429.002L39.8547 429.243L39 428.761ZM75.9969 425.388L77.2179 426.834L78.8052 425.629L77.7063 424.666L75.9969 425.388ZM78.1947 427.677L79.0495 425.991L80.6368 426.232L80.0263 427.677H78.1947ZM96.0216 426.232L97.1206 427.557L97.8532 426.713L97.2427 425.268L96.0216 426.232ZM102.615 416.956L103.47 421.293L105.668 421.895L109.453 419.727L112.75 417.8L111.529 415.993L111.895 414.186L110.308 415.15L108.11 414.547L109.331 413.704L110.796 414.306L113.726 412.981L114.093 411.897L112.261 411.295L112.872 409.849L110.796 411.295L107.255 413.945L103.592 416.113L102.615 416.956ZM134.606 402.14L136.437 401.056L135.705 399.731L134.362 400.454L134.606 402.14Z" fill="#005EA2"/>
<!-- FL -->
<path d="M567.59 331.58L569.31 337.039L572.141 344.305L576.191 351.299L579.013 356.001L582.695 360.101L585.763 362.874L586.99 365.045L586.131 366.009L585.517 366.974L587.726 372.521L589.935 374.691L591.899 378.67L594.598 383.011L598.034 389.16L599.016 394.827L599.384 403.75L599.875 405.076L599.63 407.608L597.789 408.573L598.034 410.02L597.543 411.467L597.789 413.276L598.157 414.723L596.071 417.134L593.739 418.219L590.794 418.34L589.69 419.546L587.849 420.269L586.867 419.907L586.008 419.184L585.763 417.013L585.149 414.481L582.572 410.623L579.872 408.935L576.927 408.694L576.313 409.658L573.982 406.403L573.491 403.75L571.528 400.736L570.178 399.891L568.95 401.459L567.601 401.218L566.005 397.48L563.796 394.586L561.587 390.607L559.624 388.316L556.924 385.543L558.52 383.734L560.974 379.635L560.851 378.429L557.415 377.705L556.188 378.188L556.433 378.67L558.397 379.393L557.292 382.77L556.679 383.131L555.329 380.117L554.347 376.5L554.102 374.45L555.206 370.953V363.839L552.875 361.066L551.893 358.775L547.966 357.81L546.493 357.328L545.266 355.399L542.689 354.193L541.83 351.661L539.744 350.937L537.903 348.164L534.713 347.079L532.504 345.994H530.54L527.472 346.596L527.35 348.043L527.963 348.767L527.595 349.611L525.263 349.49L522.441 352.143L519.741 353.59H516.796L514.342 354.554L514.096 352.505L512.869 351.058L510.66 350.214L509.433 349.129L503.297 346.235L497.529 344.908L494.216 345.391L489.676 345.752L485.135 347.32L482.494 347.777L482.313 341.773L480.35 340.326L479 339L479.245 336.709L486.977 335.744L506.366 333.574L511.52 333.091L515.646 333.301L517.61 336.194L518.714 337.28L524.862 337.664L533.075 337.182L549.405 336.217L553.539 335.714L557.013 335.735L557.136 337.905L560.039 338.508L560.284 334.923L559.057 331.546L559.782 331L563.663 331.339L567.59 331.58ZM577.113 430.337L578.954 429.855L579.936 429.674L581.04 427.925L582.82 426.72L583.801 427.081L585.09 427.322L585.397 428.106L582.758 429.01L579.568 430.096L577.788 431L577.113 430.337ZM587.36 426.599L588.281 427.383L590.367 425.815L594.416 422.68L597.239 419.786L599.141 414.843L599.877 413.577L600 411.044L599.448 411.406L598.711 413.516L597.607 416.953L595.153 420.871L591.839 424.007L589.262 425.453L587.36 426.599Z" fill="#005EA2" stroke="white" stroke-width="1.77165"/>
<!-- SC -->
<path d="M571.803 307.261L570.473 308L568.537 307.015L568.053 305.413L567.085 302.703L565.392 301.101L563.456 300.609L562.246 296.913L560.189 292.355L557.044 290.877L555.471 289.399L554.503 287.428L552.93 285.949L551.236 284.964L549.543 282.746L547.244 281.022L543.856 279.667L543.493 278.558L541.679 276.341L541.316 275.232L538.775 271.29L536.234 271.413L533.21 269.565L532.242 268.58L532 267.225L532.605 265.746L534.299 265.007L534.057 263.406L538.654 261.435L545.429 257.986L550.874 257.37L563.214 257L564.908 258.478L566.117 260.942L569.384 260.572L578.821 259.464L580.999 260.08L590.435 265.87L598 272.058L593.943 276.218L592.007 280.899L591.644 285.703L590.434 286.319L589.587 288.413L587.773 288.906L586.2 291.616L584.143 293.711L582.449 296.297L581.24 296.913L578.578 299.5L576.4 299.624L577.126 302.087L573.376 306.276L571.803 307.261Z" fill="#DFE1E2" stroke="white" stroke-width="1.77165"/>
<!-- GA -->
<path d="M518.36 264.704L514.725 265.312L508.423 266.164L502 266.834V268.477L502.121 270.059L502.606 272.615L505.151 278.579L506.969 286.003L508.059 290.628L509.271 294.28L510.362 299.513L511.937 304.26L513.876 306.816L514.24 309.372L515.694 309.98L515.815 311.563L514.482 315.214L514.119 317.648L513.998 319.109L515.209 322.395L515.452 326.411L514.846 328.237L515.331 328.845L516.421 329.454L516.906 332.01L518.845 334.931L519.936 336.026L525.874 336.148L533.985 335.661L550.111 334.687L554.194 334.18L557.625 334.201L557.746 336.391L559.685 337L559.927 333.714L558.716 330.306L559.564 329.089L563.927 329.697L567.658 329.937L567.077 325.194L568.773 317.648L569.864 314.484L569.5 312.537L572 307.835L571.617 306.818L570.183 307.348L568.244 306.374L567.759 304.792L566.79 302.115L565.093 300.532L563.154 300.046L561.942 296.394L559.75 291.625L556.599 290.164L555.023 288.704L554.054 286.756L552.478 285.296L550.782 284.322L549.085 282.131L546.783 280.427L543.389 279.089L543.026 277.993L541.208 275.802L540.844 274.707L538.299 271.012L535.755 271.134L532.659 268.842L531.689 267.868L531.447 266.53L532.053 265.069L533.816 264.139L532.966 263.219L533.024 263L528.661 263.73L523.45 264.339L518.36 264.704Z" fill="#DFE1E2" stroke="white" stroke-width="1.77165"/>
<!-- AL -->
<path d="M469.327 347.804L468.095 336.335L466 322.182L466.123 311.568L466.739 288.143L466.616 275.576L466.742 270.732L472.655 270.452L493.854 268.5L500.657 268L500.544 269.647L500.667 271.233L501.16 273.795L503.749 279.774L505.597 287.216L506.707 291.852L507.939 295.512L509.048 300.759L510.65 305.517L512.623 308.079L512.992 310.641L514.471 311.251L514.594 312.837L513.239 316.497L512.869 318.937L512.746 320.402L513.978 323.696L514.225 327.722L513.608 329.552L514.102 330.162L515.211 330.772L516 332.685H511.193L506.017 333.173L486.543 335.37L478.606 336.431L478.532 339.263L479.888 340.605L481.86 342.069L482.303 348.058L478.078 350L475.982 349.756L478.078 348.292V347.56L475.736 343.046L474.01 342.558L472.901 345.852L471.915 347.926L471.422 347.804H469.327Z" fill="#005EA2" stroke="white" stroke-width="1.77165"/>
<!-- NC -->
<path d="M625.6 221L626.89 224.552L629.572 229.44L631.401 231.273L631.889 232.984L630.06 233.106L630.669 233.595L630.426 236.772L628.475 237.75L627.987 239.339L627.012 241.538L624.207 242.76L622.378 242.516L621.281 242.394L620.062 241.416L620.306 242.394V243.127H621.769L622.378 244.105L620.915 248.871H624.085L624.573 250.093L626.28 248.382L627.255 248.015L625.792 250.704L623.476 254.37H622.5L621.647 254.003L619.574 254.492L615.673 256.325L610.796 260.358L608.235 263.902L606.772 268.79L606.406 270.623L602.87 270.99L598.758 272L591.256 265.799L581.746 260.056L579.551 259.445L570.041 260.545L566.816 261.112L565.596 258.668L563.356 257.068L550.92 257.434L545.433 258.045L538.605 261.467L533.972 263.422L532.753 263.667L528.364 264.4L523.121 265.011L518 265.377L518.377 262.313L519.718 261.213L521.791 260.724L522.279 257.913L525.449 255.836L528.375 254.736L531.545 252.047L534.837 250.459L535.325 248.137L538.251 245.204L538.739 245.082C538.739 245.082 538.739 245.937 539.348 245.937C539.958 245.937 540.811 246.182 540.811 246.182L542.518 243.493L544.103 243.004L545.81 243.249L547.03 240.56L549.224 238.605L549.59 237.016V234.022L553.004 234.572L558.386 233.595L570.317 232.128L583.241 230.173L598.266 227.149L613.149 224L621.721 221.886L625.6 221ZM628.538 245.937L630.489 244.042L632.866 242.087L634.025 241.598L634.147 240.071L633.659 235.427L632.561 233.655L632.074 232.25L632.622 232.066L634.695 236.221L635 239.582L634.878 242.148L632.318 243.309L630.184 245.142L629.33 246.059L628.538 245.937Z" fill="#DFE1E2" stroke="white" stroke-width="1.77165"/>
<!-- TN -->
<path d="M523.617 237.667L484.478 241.456L472.592 242.801L469.106 243.188L466.189 243.167V246.101L459.849 246.468L454.606 246.957L446.237 246.997L446.037 251.409L444.424 256.154L443.674 258.434L442.657 261.747L442.413 263.702L439.365 265.414L440.462 268.103L439.73 271.403L439 272L444.473 271.853L462.64 270.386L466.664 270.264L472.76 269.897L493.732 267.942L501.403 267.331L507.754 266.597L514.094 265.741L517.752 265.13L517.653 261.721L518.995 260.621L521.067 260.132L521.555 257.32L524.725 255.242L527.651 254.142L530.822 251.453L534.114 249.864L534.773 247.199L538.041 244.265L538.529 244.143C538.529 244.143 538.529 244.999 539.138 244.999C539.748 244.999 540.602 245.243 540.602 245.243L542.309 242.554L543.894 242.065L545.601 242.309L546.82 239.62L548.416 237.922L548.867 237.191L549 234.218L547.881 234L546.052 235.467L540.078 235.589L531.03 237.026L523.617 237.667Z" fill="#005EA2" stroke="white" stroke-width="1.77165"/>
<!-- RI -->
<path d="M656.188 131L655.834 127.848L655.243 124.575L654 120.151L658.201 119L659.385 119.848L661.87 123.121L664 126.454L661.869 127.606L660.922 127.485L660.094 128.818L658.318 130.273L656.188 131Z" fill="#DFE1E2" stroke="white" stroke-width="1.77165"/>
<!-- CT -->
<path d="M656 132.147L655.546 128.926L654.961 125.582L653.792 121L650.788 121.693L635 125.346L635.468 127.885L636.52 133.458V139.65L635.702 141.384L637.027 143L640.612 140.394L643.185 137.918L644.588 136.308L645.173 136.803L647.161 135.688L650.904 134.821L656 132.147Z" fill="#DFE1E2" stroke="white" stroke-width="1.77165"/>
<!-- MA -->
<path d="M676.493 127.687L678.118 127.162L678.46 125.849L679.23 125.936L680 127.687L679.059 128.037L676.15 128.125L676.493 127.687ZM669.478 128.3L671.189 126.287H672.387L673.755 127.424L671.959 128.212L670.333 129L669.478 128.3ZM643.436 111.463L656.502 108.245L658.196 107.749L659.768 105.274L662.565 104L664.727 107.379L662.912 111.34L662.67 112.454L664.122 114.435L664.969 113.816H666.3L667.993 115.796L670.897 120.377L673.558 120.748L675.252 120.005L676.583 118.644L675.978 116.539L674.405 115.301L673.316 115.92L672.59 114.93L672.953 114.559L674.526 114.435L675.857 115.054L677.309 116.911L678.034 119.139L678.276 120.996L675.131 122.11L672.227 123.595L669.324 127.061L667.872 128.175V127.432L669.687 126.318L670.05 124.957L669.445 122.605L667.267 123.719L666.663 124.833L667.025 126.566L665.479 127.332L663.423 123.865L660.883 120.523L659.333 119.135L654.444 120.572L650.633 121.377L634.301 125.028L634 121.242L634.484 113.134L638.355 112.453L643.436 111.463Z" fill="#005EA2" stroke="white" stroke-width="1.77165"/>
<!-- ME -->
<path d="M693.793 54.4486L695.273 56.0193L697 58.7983V60.2483L695.396 63.7523L693.916 64.2356L691.326 66.5313L687.626 70.6395C687.626 70.6395 687.132 70.6395 686.639 70.6395C686.146 70.6395 685.899 69.0687 685.899 69.0687L684.542 69.1895L683.802 70.277L681.952 71.3644L681.212 72.4519L682.445 73.5393L682.075 74.0226L681.705 76.0767L680.225 75.9559V74.7476L679.978 73.781L678.868 74.0226L677.511 71.6061L675.908 72.5727L676.895 73.6601L677.141 74.5059L676.525 75.4726L676.771 77.7683L676.895 78.9766L675.661 80.9098L673.441 81.2723L673.194 83.4472L669.124 85.7429L668.137 86.1054L666.904 85.0179L664.56 87.6761L665.3 90.0927L664.19 91.0593L664.067 94.3216L663.21 99L661.331 98.136L660.961 95.8403L658.001 94.9945L657.754 92.9404L652.203 75.4204L649 65.2258L650.084 65.1375L651.239 65.4439V63.5106L651.856 59.4025L653.829 55.8985L654.939 52.8778L653.459 51.0654V46.5948L654.076 45.8698L654.693 43.8157L654.569 42.7283L654.446 39.1034L655.803 35.4786L658.023 28.8331L659.626 25.6916H660.613L661.6 25.8124V26.6582L662.587 28.3498L664.683 28.8331L665.3 28.229V27.504L668.384 25.3291L669.741 24L670.851 24.1208L675.415 25.9332L676.895 26.6582L683.802 49.0113H688.366L688.983 50.4612L689.106 54.0861L691.326 55.7777H691.943L692.066 55.4152L691.696 54.5694L693.793 54.4486ZM677.822 76.9813L678.994 75.8334L680.043 76.6188L680.474 78.4312L679.179 79.0958L677.822 76.9813ZM682.941 72.5711L684.298 73.9606C684.298 73.9606 685.285 74.021 685.285 73.7793C685.285 73.5377 685.47 72.269 685.47 72.269L686.148 71.6649L685.531 70.3358L683.99 70.8795L682.941 72.5711Z" fill="#DFE1E2" stroke="white" stroke-width="1.77165"/>
<!-- NH -->
<path d="M661.521 103.785L662.177 102.975L663 100.499L661.081 99.8114L660.715 97.5005L657.786 96.6491L657.542 94.5814L652.052 76.9454L648.579 66.0038L647.902 66L647.414 67.2163L646.926 66.8514L646.194 66.1216L645.096 67.5812L645.059 71.3671L645.294 75.6309L646.758 77.6986V80.7393L643.952 84.5483L642 85.3997V86.2511L642.854 87.589V94.0353L642.244 100.968L642.122 104.617L642.854 105.59L642.732 108.995L642.366 110.333L643.464 111L655.834 107.472L657.542 106.985L658.7 105.065L661.521 103.785Z" fill="#005EA2" stroke="white" stroke-width="1.77165"/>
<!-- VT -->
<path d="M634.225 112L633.629 107.816L631.869 100.441L631.392 100.202L629.249 99.2455L629.844 97.0935L629.249 95.5393L627.26 92.1078L627.975 89.2385L627.379 85.4127L625.593 80.6305L625 76.99L644.332 72L644.571 76.3035L646 78.3359V81.3248L643.261 84.3137L641.356 85.1506V85.9875L642.19 87.3026V93.639L641.594 100.454L641.475 104.04L642.19 104.997L642.071 108.344L641.714 109.659L642.2 110.818L637.08 111.834L634.225 112Z" fill="#005EA2" stroke="white" stroke-width="1.77165"/>
<!-- NY -->
<path d="M622.267 138.857L621.403 138.119L619.428 137.996L617.7 136.521L616.455 131.859L613.814 131.927L611.949 129.868L597.147 133.201L564.313 139.841L558.564 140.775L558 135.855L559.09 134.999L560.078 134.138L560.819 132.908L562.176 132.048L563.658 130.695L564.028 129.465L565.633 127.375L566.497 126.637L566.373 125.899L565.386 123.563L564.028 123.44L562.547 118.768L564.768 117.415L568.101 116.308L571.187 115.325L573.656 114.956L578.47 114.833L579.951 115.817L581.185 115.94L582.79 114.956L584.765 114.095L588.715 113.726L590.32 112.374L591.677 109.914L592.912 108.439H594.516L595.998 107.578L596.121 105.857L595.01 104.258L594.763 103.151L595.627 101.553V100.446H594.27L592.912 99.8315L592.295 98.9708L592.171 97.0034L596.615 92.8227L597.109 92.2079L598.22 89.9945L600.441 86.5516L602.54 83.7235L604.144 81.879L605.989 80.4905L608.341 79.5428L612.538 78.5591L615.007 78.682L618.463 77.5754L624.239 76L624.636 79.7876L626.488 84.7061L627.105 88.6409L626.364 91.592L628.339 95.035L628.957 96.6335L628.339 98.8468L630.561 99.8305L631.055 100.076L633.4 108.438L632.991 112.286L632.621 120.525L633.238 124.706L633.855 127.411L634.966 132.944V139.092L634.102 140.814L635.506 142.329L636.114 143.606L634.633 144.959L634.88 145.942L635.867 145.696L636.978 144.713L638.706 142.745L639.571 142.253L640.805 142.745L642.533 142.868L648.581 139.917L650.803 137.827L651.791 136.72L655 137.95L652.408 140.655L649.445 142.868L644.014 146.926L642.039 147.664L637.596 149.139L634.51 150L633.613 149.595L633.426 146.789L633.797 144.699L633.673 143.1L631.525 141.808L628.069 141.07L625.106 140.209L622.267 138.857Z" fill="#DFE1E2" stroke="white" stroke-width="1.77165"/>
<!-- NJ -->
<path d="M623.069 140L621.466 141.802V144.084L619.986 146.366L619.863 147.567L620.849 148.528L620.726 150.33L619 151.171L619.616 153.213L619.74 154.054L621.836 154.294L622.576 156.216L625.288 158.018L627.138 159.219V159.819L624.672 162.102L623.439 163.783L622.329 165.825L620.603 166.786L619.678 167.327L619.493 168.228L619.029 170.165L619.862 171.832L622.328 173.994L626.027 175.676L629.109 176.156L629.232 177.237L628.616 177.958L628.862 180H629.479L631.082 178.198L631.698 174.595L633.794 171.592L636.137 166.787L637 162.703L636.507 161.862L636.384 154.895L635.151 152.373L634.287 152.974L632.191 153.214L631.821 152.853L632.685 152.133L634.287 150.691L634.336 149.879L634.042 147.327L634.412 145.285L634.289 143.724L632.316 142.883L628.864 142.162L625.905 141.321L623.069 140Z" fill="#005EA2" stroke="white" stroke-width="1.77165"/>
<!-- PA -->
<path d="M617.685 166.226L618.538 165.734L620.245 165.268L621.342 163.177L622.562 161.455L625 159.117V158.502L623.171 157.272L620.489 155.427L619.758 153.459L617.685 153.213L617.563 152.352L616.954 150.261L618.66 149.399L618.782 147.554L617.807 146.57L617.929 145.34L619.392 143.003V140.665L621.16 138.82L621.321 137.996L619.371 137.873L617.664 136.397L615.835 132.337L613.569 131.629L611.812 130L597.792 133.075L565.362 139.718L558.657 140.825L558.283 135.435L554.144 139.719L553.169 140.088L550 142.378L552.195 156.94L554.067 164.343L556.76 179L559.226 178.515L568.233 177.371L596.835 171.539L608.054 169.39L614.314 168.156L614.515 167.974L616.1 166.744L617.685 166.226Z" fill="#005EA2" stroke="white" stroke-width="1.77165"/>
<!-- DE -->
<path d="M618.174 169.582L618.618 167.983L618.634 167.067L617.678 167L616.096 168.229L615 169.335L616.096 172.531L617.8 176.832L619.383 184.207L620.6 189L624.374 188.877L629 187.956L627.295 182.364L626.564 182.733L623.886 180.889L622.547 177.325L621.086 174.621L619.381 173.884L617.799 171.18L618.174 169.582Z" fill="#005EA2" stroke="white" stroke-width="1.77165"/>
<!-- MD -->
<path d="M629 188.429L624.352 189.417L619.958 189.541L618.563 184.111L616.972 176.692L615.259 172.364L614.284 169L608.603 170.241L597.345 172.4L569 178.176L569.856 182.009L570.59 186.337L570.835 186.09L572.426 184.235L574.138 182.233L575.974 181.762L577.075 180.649L578.421 178.671L579.4 179.165L581.602 178.918L583.559 177.311L585.078 176.199L586.475 175.828L587.719 176.692L589.922 177.805L591.39 179.165L592.308 180.34L595.428 181.638V183.864L599.587 184.853L600.454 185.268L601.522 183.716L603.703 185.223L602.736 187.122L602.157 190.17L600.811 192.149V193.756L601.3 195.116L605.133 196.153L608.396 196.106L610.72 196.848L612.311 197.095L613.045 195.488L611.944 193.88V192.52L610.109 190.913L608.518 186.709L609.497 182.628L609.375 181.021L608.396 180.031C608.396 180.031 609.497 178.795 609.497 178.3C609.497 177.806 609.864 176.693 609.864 176.693L611.332 175.704L612.8 174.467L613.167 175.209L612.066 176.446L611.087 179.29L611.332 180.155L612.678 180.402L613.045 184.607L611.454 185.348L611.699 188.069L612.066 187.945L612.923 186.461L614.146 187.822L612.923 188.811L612.678 191.407L614.636 194.004L617.572 194.375L618.796 193.757L621.245 196.956L622.273 197.366L627.309 195.227L628.828 192.149L629 188.429ZM616.412 195.301L617.268 197.218L617.391 198.578L618.247 200C618.247 200 618.92 199.32 618.92 199.073C618.92 198.825 618.37 196.723 618.37 196.723L617.819 194.93L616.412 195.301Z" fill="#005EA2" stroke="white" stroke-width="1.77165"/>
<!-- WV -->
<path d="M567.821 178.189L568.648 181.909L569.453 187.106L572.101 185.038L573.784 182.727L575.672 182.264L576.754 181.169L578.077 179.222L578.954 179.709L581.119 179.466L583.042 177.884L584.535 176.791L585.907 176.426L586.877 177.191L588.535 178.029L589.978 179.368L591 180.341L590.894 183.856L586.685 181.544L583.319 180.206L583.199 184.221L582.838 185.802L581.635 187.87L581.155 189.087L578.87 190.911L578.509 192.614L575.984 192.858L575.744 195.169L574.902 199.305H572.978L572.017 198.697L570.814 196.629L569.492 196.751L569.251 200.035L567.688 205.023L563.961 213.173L564.562 214.146L564.442 216.214L562.879 217.674L561.797 217.431L559.392 219.256L557.468 218.526L556.145 222.054C556.145 222.054 553.38 222.662 552.899 222.784C552.418 222.905 551.096 221.81 551.096 221.81L549.292 223.513L547.368 224L545.204 223.392L544.242 222.419L542.612 220.143L540.274 218.647L538.351 216.579L536.186 213.781L535.705 212.078L533.782 210.984L533.18 209.767L533 205.813L534.623 205.753L536.066 205.144L536.186 203.076L537.389 201.981L537.509 198.21L538.23 195.291L539.192 194.804L540.154 195.656L540.515 196.994L541.837 196.264L542.198 195.047L541.356 193.709V191.885L542.078 190.911L543.761 188.357L544.723 187.262L546.286 187.627L547.969 186.41L550.254 183.856L551.937 180.936L552.178 176.678L552.538 172.907V169.379L551.697 167.068L552.418 165.973L553.373 165L555.969 179.92L559.414 179.355L567.821 178.189Z" fill="#DFE1E2" stroke="white" stroke-width="1.77165"/>
<!-- KY -->
<path d="M542 220.422L540.251 222.424L537.088 225.077L533.852 229.481L532.514 230.808V232.376L529.594 233.944L525.336 236.477L522.688 236.764L483.655 240.419L471.795 241.746L468.318 242.128L465.407 242.107L465.236 245.256L459.081 245.364L453.849 245.847L446 246L447.439 245.835L449.08 244.52L450.628 243.667L450.8 241.279L451.489 239.914L450.279 238.02L450.883 236.597L452.586 235.271L454.168 234.788L456.236 235.753L458.912 236.718L459.764 236.477L459.885 234.788L458.912 232.979L459.155 231.29L460.615 230.205L462.562 229.722L463.778 229.24L463.17 227.913L462.684 226.466L463.535 225.862L464.326 223.39L466.576 222.123L470.956 221.4L473.632 221.038L474.727 222.485L476.066 223.088L477.404 220.676L479.594 219.59L481.053 220.797L481.662 221.641L483.243 221.279L483.122 218.746L485.311 217.54L486.163 216.937L487.015 218.143H490.543L491.151 216.575L490.908 214.886L493.097 212.233L496.625 209.338L496.99 205.961L499.059 205.719L501.978 204.393L504.046 202.945L503.803 201.498L502.708 200.412L503.134 198.784L506.236 198.603L508.061 198L510.251 199.206L511.467 202.463L515.847 202.704L517.185 204.031L518.767 204.151L520.592 203.066L522.903 203.428L523.876 204.513L525.944 202.583L527.283 201.618H528.499L528.986 203.669L530.324 204.393L532.147 206.045L532.268 210.146L532.876 211.353L534.823 212.438L535.31 214.127L537.499 216.901L539.446 218.951L542 220.422Z" fill="#DFE1E2" stroke="white" stroke-width="1.77165"/>
<!-- OH -->
<path d="M548.757 143L544.176 146.053L541.26 147.758L538.708 150.559L535.67 153.481L533.24 154.09L531.052 154.456L526.921 156.404L525.341 156.526L522.789 154.212L518.9 154.699L516.956 153.603L515.166 152.586L511.489 153.115L503.833 154.333L498 155.246L498.972 166.267L500.309 176.618L502.253 194.275L502.678 197.914L505.777 197.817L507.6 197.208L510.129 198.34L511.685 201.628L515.548 201.615L516.97 203.211L518.294 203.162L520.202 202.151L522.084 202.431L523.568 203.527L524.866 201.921L526.629 200.946L528.186 200.434L528.672 202.504L530.008 203.234L532.621 205L534.262 204.939L535.123 204.074L535.074 203.029L536.289 201.933L536.41 198.158L537.139 195.236L538.282 194.151L539.425 194.832L540.045 195.744L540.956 195.612L540.638 193.796L540.214 193.311V191.484L540.943 190.51L542.644 187.953L543.616 186.857L545.196 187.222L546.897 186.005L549.206 183.447L550.907 180.525L551.065 176.434L551.43 172.659V169.127L550.579 166.814L551.308 165.718L552 164.999L550.944 157.584L548.757 143Z" fill="#005EA2" stroke="white" stroke-width="1.77165"/>
<!-- MI -->
<path d="M436.702 58.4236L438.087 56.8982L439.732 56.305L443.802 53.4237L445.534 53L445.88 53.339L441.984 57.1525L439.472 58.5931L437.914 59.2711L436.702 58.4236ZM501.979 82.2417L502.469 84.0993L504.918 84.2192L505.898 83.3203C505.898 83.3203 505.837 82.2417 505.592 82.1219C505.347 82.002 504.367 80.7436 504.367 80.7436L502.714 80.9234L501.49 81.0432L501.245 81.8822L501.979 82.2417ZM524.755 128.983L522.306 122.871L520.591 116.16L518.755 113.763L516.795 112.445L515.571 113.283L512.632 114.602L511.162 118.317L509.08 121.073L508.223 121.553L507.121 121.073C507.121 121.073 505.162 119.995 505.284 119.515C505.406 119.036 505.651 115.8 505.651 115.8L508.223 114.841L508.835 112.325L509.325 110.407L511.162 109.209L510.917 101.778L509.693 100.1L508.713 99.5011L508.101 97.9431L508.713 97.3439L509.937 97.5836L510.06 96.3851L508.223 94.7073L507.243 92.7897H505.284L501.855 91.7111L497.692 89.1944H495.61L495.12 89.6737L494.385 89.3142L492.058 87.6364L489.854 88.9547L487.65 90.6325L487.895 93.2691L488.63 93.5088L490.221 93.8684L490.589 94.4676L488.63 95.0668L486.67 95.3065L485.568 96.6248L485.323 98.1828L485.568 99.3813L485.813 103.456L483.119 105.014L482.629 104.894V101.778L483.609 99.9805L484.099 98.1828L483.486 97.5836L482.017 98.1828L481.282 101.299L479.2 102.138L477.853 103.576L477.731 104.295L478.22 104.894L477.731 106.812L476.016 107.171V108.01L476.629 109.808L475.771 114.362L474.547 117.358L475.037 120.834L475.404 121.673L474.792 123.47L474.547 124.07L474.302 126.107L476.996 130.541L479.2 135.335L480.302 138.931L479.69 142.406L478.955 146.84L477.118 150.675L476.873 152.713L474.405 155L477.744 154.88L493.969 153.202L499.482 152.47L499.555 153.706L504.746 152.807L512.546 151.692L515.466 151.351L515.571 150.915L515.693 149.837L517.285 147.08L518.8 145.792L518.632 142.047L519.842 140.863L520.668 140.608L520.836 137.972L522 135.725L522.796 136.174L522.918 136.653L523.53 136.773L525 136.054L524.755 128.983ZM426 80.0369L426.543 79.6067L428.624 79.0074L431.319 77.3296V76.6105L431.808 76.1311L436.339 75.412L438.176 73.9739L441.483 72.4159L441.605 71.4571L443.075 69.2999L444.422 68.7007L445.401 67.3824L447.116 65.7045L450.422 63.9068L453.974 63.5473L454.831 64.3862L454.586 65.1053L451.769 65.8244L450.667 68.1014L448.953 68.7007L448.585 70.4984L446.748 72.8953L446.503 74.8128L447.116 75.1724L447.851 74.3334L450.545 72.1762L451.524 73.135H453.239L455.688 73.854L456.79 74.693L457.892 76.97L459.974 79.0074L462.913 78.8876L464.015 78.1685L465.24 79.1273L466.464 79.4868L467.444 78.8876H468.301L469.526 78.1685L472.587 75.5319L475.159 74.693L480.18 74.4533L483.609 73.0151L485.568 72.0564L486.67 72.1762V76.3708L487.038 76.6105L489.242 77.2097L490.711 76.8502L495.365 75.6517L496.222 74.8128L497.324 75.1724V80.3257L499.773 82.6028L500.753 83.0822L501.733 83.8013L500.753 84.041L500.141 83.8013L497.324 83.4417L495.732 83.9211L494.018 83.8013L491.569 84.8799H490.221L485.813 83.9211L481.894 84.041L480.425 85.9585L475.159 86.4379L473.322 87.0371L472.465 89.3142L471.485 90.1531L471.118 90.0333L470.016 88.8348L466.587 90.6325H466.097L465.24 89.434L464.628 89.5539L463.158 92.7897L462.423 95.7859L460.014 100.976L459.122 100.209L458.083 99.4446L456.613 91.8176L453.928 90.8019L452.373 89.1071L443.192 87.0732L441.029 86.3099L434.794 84.6991L428.817 83.8517L426 80.0369Z" fill="#DFE1E2" stroke="white" stroke-width="1.77165"/>
<!-- WY -->
<path d="M265 103.972L257.142 103.365L233.241 100.884L221.15 99.3352L200.033 96.2373L185.218 94L184.161 102.413L181.301 120.676L177.384 143.566L176.244 151.482L175 160.432L179.859 161.131L199.136 163.013L214.458 164.749L241.857 167.847L259.6 170L262.956 136.733L264.028 117.629L265 103.972Z" fill="#005EA2" stroke="white" stroke-width="1.77165"/>
<!-- MT -->
<path d="M268.024 89.153L268.518 80.6473L270.239 61.7397C270.587 57.903 271.064 55.2772 271.284 49.9849L272 38.8849L248.625 36.7431L226.328 34.0302L204.031 30.9473L179.393 26.8779L165.349 24.2883L140.413 19L137 35.2839L139.613 41.0389L138.568 44.5268L139.962 48.0146L142.401 49.061L145.922 57.2759L147.976 59.699L148.324 60.571L150.937 61.4429L151.286 63.0125L145.885 76.4408V78.3591L147.801 80.8006H148.498L152.157 78.5335L152.679 77.6615L153.899 78.1847L153.725 82.1958L155.815 91.7874L158.08 93.7057L158.777 94.2289L160.171 95.9728L159.822 98.5887L160.345 101.205L161.216 101.902L162.958 100.158H165.049L167.488 101.379L169.404 100.681H172.54L175.328 101.902L177.418 101.553L177.767 99.2863L180.031 98.7631L181.077 99.8095L181.425 102.251L182.781 103.292L183.95 94.4704L199.718 96.7375L221.198 99.7542L233.812 101.201L257.775 103.837L266.15 105L266.951 93.2321L268.024 89.153Z" fill="#005EA2" stroke="white" stroke-width="1.77165"/>
<!-- ID -->
<path d="M121.671 132.643C104.91 129.396 111.184 130.514 106 129.39L109.282 116.305L112.502 103.058L113.518 99.8959L115.383 95.4519L114.451 93.7426L112.586 93.8281L111.993 93.0589L112.332 92.2043L112.586 89.8968L115.891 85.7946L117.247 85.4528L118.094 84.5982L118.518 82.2052L119.196 81.6924L122.077 77.3339L124.958 74.0863L125.127 71.2661L122.585 69.3004L121.611 66.0101L121.907 58.7886L124.619 46.482L127.923 30.9279L130.72 20.8434L131.285 18L140.918 19.8901L137.836 35.9701L140.021 41.7305L139.242 45.149L140.717 48.5675L143.09 49.833L146.396 57.1647L148.394 60.0194L148.852 60.8741L151.394 61.7287L151.733 63.6269L146.598 76.1882L146.836 78.6683L148.819 80.8213L150.211 81.1812L153.769 78.4793L154.04 78.1046L154.156 78.7373L154.343 81.8287L156.258 91.4696L158.818 93.4697L159.139 94.1024L160.732 95.9316L160.156 98.0156L160.664 100.819L162.106 101.503L163.682 100.274L165.597 99.9139L168.088 101.11L169.952 100.667L172.765 100.547L175.714 101.743L177.748 101.521L178.444 99.7791L180.29 98.5465L180.831 99.812L181.289 101.485L183 103.383L180.204 121.312L176.391 143L173.308 142.762L167.241 141.616L159.971 140.249L150.955 138.471L141.669 136.599L135.38 135.223L128.517 133.976L121.671 132.643Z" fill="#005EA2" stroke="white" stroke-width="1.77165"/>
<!-- TX -->
<path d="M267.746 247.043L284.836 247.858L308.253 248.717L306.495 266.33L306.272 279.962L306.323 281.526L309.594 284.393L310.902 285.01L312.265 285.2L312.782 284.258L313.452 284.908L314.76 285.27L315.969 284.722L316.826 285.029L316.603 287.586L319.823 288.36L321.838 288.977L324.817 289.372L326.469 290.745L328.916 289.562L331.015 289.836L332.547 291.929L333.357 292.17L333.236 293.646L335.562 294.522L337.646 293.167L338.782 293.441L340.555 293.561L340.882 294.968L344.377 296.462L346.377 296.308L347.875 293.218H348.132L348.993 294.643L352.334 295.399L354.847 296.308L357.327 296.874L358.946 296.308L359.584 294.42H362.372L363.801 294.986L366.109 293.802H366.607L366.882 294.643H370.102L371.912 293.7L373.168 293.923L374.235 295.329L376.404 296.582L379.056 297.389L381.122 298.454L382.965 299.672L385.445 299.004L386.907 299.742L387.292 307.356L387.545 314.642L388.061 321.801L388.457 324.84L390.472 328.292L391.281 331.346L394.19 336.068L394.604 338.231L395 338.987L394.483 344.616L392.487 347.911L393.209 350.059L392.934 351.947L392.296 357.441L391.263 359.483L391.718 362.777L387.452 363.967L380.025 367.366L379.294 368.823L377.346 370.28L375.763 371.372L374.789 371.979L370.528 375.985L368.458 377.563L364.44 379.991L360.178 381.812L355.43 384.361L354.091 385.454L349.708 388.125L347.151 388.61L344.229 392.738L341.185 392.98L340.454 394.437L342.159 395.894L341.063 400.021L340.089 403.42L339.237 406.334L338.628 409.733L339.237 411.554L340.576 416.774L341.306 421.387L342.646 423.451L341.915 424.543L339.602 426L335.34 423.087L331.201 422.237L330.227 422.601L327.792 422.115L324.626 419.809L320.73 418.959L315.007 416.41L313.424 413.496L312.45 408.64L310.015 407.184L309.528 405.484L310.015 404.999L310.259 402.449L309.285 401.964L308.798 401.235L309.772 397.958L308.554 396.258L306.119 395.287L303.562 392.009L300.884 387.032L297.718 385.09L297.84 383.633L293.822 374.407L293.213 371.251L291.874 369.794L291.752 368.701L287.247 364.695L285.299 362.389V361.539L283.351 359.961L278.237 359.111L272.636 358.626L270.323 356.926L266.914 358.261L264.235 359.354L262.531 361.782L261.8 364.574L258.513 369.187L256.686 371.008L254.738 370.28L253.399 369.43L251.938 368.944L249.016 367.245V366.759L247.676 365.302L243.78 363.724L238.179 357.897L236.475 354.377V348.307L234.04 343.451L233.674 341.387L232.457 340.659L231.605 339.081L227.83 337.503L226.856 336.289L221.499 330.34L220.525 327.913L216.994 326.213L215.898 322.935L213.95 320.75L212.489 320.386L212 316.873L218.027 317.388L239.895 319.449L261.762 320.65L263.484 302.796L266.412 261.078L267.617 247L268.65 247.021L267.746 247.043ZM343.195 422.722L342.769 417.38L340.699 411.978L340.273 406.698L341.429 400.506L343.925 395.347L346.543 391.28L348.917 388.61L349.404 388.792L345.813 393.769L342.525 398.686L341.003 403.663L340.76 407.547L341.429 412.16L343.378 417.563L343.743 421.447L343.865 422.54L343.195 422.722Z" fill="#005EA2" stroke="white" stroke-width="1.77165"/>
<!-- CA -->
<path d="M101.535 288L104.381 287.63L105.489 286.106L106.035 284.636L103.666 284.568L102.846 283.233L103.426 281.934L103.392 277.275L105.046 276.27L107.058 274.313L107.365 270.59L108.593 267.941L110.043 266.348L112.481 265.049L113.436 264.497L114 263.373L113.352 262.697L112.636 261.553L111.937 257.502L109.771 253.536L109.843 251.426L108.201 248.966L97.0126 231.372L82.5162 209.623L65.7863 184.604L56.3106 169.8L57.6509 164.341L62.7328 144.687L68.7872 120.878L59.563 118.35L49.5008 115.753L40.1207 112.636L34.4927 111.078L25.9654 108.827L20.7057 107L19.5269 110.578L19.4064 116.211L15.5473 125.149L13.256 127.108L13.0149 127.965L11.6883 128.577L10.603 131.761L10 134.21L12.0501 137.393L13.256 140.576L14.1002 143.27L13.859 148.168L12.5325 150.494L12.0501 154.902L11.3265 157.718L12.6531 160.657L14.7032 164.085L16.3915 167.759L17.3563 170.82L17.1151 173.268L16.8739 173.636V175.228L21.0947 180.003L20.7329 181.839L20.2505 183.554L19.7681 185.023L19.8887 191.267L21.4565 194.084L22.9036 196.043L24.9537 196.41L25.6773 198.491L24.8331 201.185L23.2654 202.41H22.4212L21.8182 205.348L22.18 207.552L24.5919 210.858L25.7978 214.899L26.8832 218.449L27.848 220.776L30.3804 225.184L31.4658 227.143L31.8276 229.347L33.0335 230.081V231.918L32.4305 233.387L31.104 238.775L30.7422 240.244L32.5511 242.326L35.6866 242.693L39.0632 244.04L41.9575 245.632H44.1282L46.2989 247.958L48.2284 251.631L49.0725 253.345L51.9668 254.937L55.5846 255.549L56.67 257.141L57.1524 259.59L56.067 260.08L56.3082 260.814L58.7201 261.427L60.7702 261.549L62.9409 265.1L65.8352 268.283L66.4381 269.997L68.3676 273.181L68.6088 275.63V282.731L68.9706 284.078L76.4475 285.18L91.1599 287.262L101.535 288ZM35.928 250.345L36.8928 251.508L36.7722 252.487L34.3603 252.426L33.9382 251.508L33.4558 250.406L35.928 250.345ZM37.3751 250.345L38.2796 249.855L40.9327 251.447L43.224 252.365L42.5607 252.855L39.1841 252.671L37.9781 251.447L37.3751 250.345ZM52.8113 265.344L54.1378 267.119L54.7408 267.854L55.8864 268.282L56.3085 267.18L55.5849 265.833L53.5951 264.303L52.8113 264.425V265.344ZM51.7259 271.894L53.0525 274.282L53.9569 275.751L52.8716 275.935L51.9068 275.017C51.9068 275.017 51.3641 273.915 51.3641 273.609C51.3641 273.302 51.3641 271.956 51.3641 271.956L51.7259 271.894Z" fill="#005EA2" stroke="white" stroke-width="1.77165"/>
<!-- AZ -->
<path d="M102.226 287.945L100.244 289.569L100 290.664L100.366 291.394L114.636 299.426L123.783 305.145L134.882 311.594L147.566 319.139L156.835 320.964L175.793 323L177.702 313.586L180.534 293.079L185.788 253.275L189 229.966L170.443 227.197L149.918 223.755L124.697 219L122.493 232.618L122.148 232.962L120.854 234.941L118.957 234.855L118.008 232.79L115.938 232.532L115.248 231.672H114.558L113.868 232.102L112.402 232.876L112.316 238.125L112.144 239.416L111.712 248.88L110.591 250.515L110.16 253.011L112.23 256.711L113.179 261.099L113.782 261.873L114.558 262.303L114.472 264.024L113.265 265.057L110.678 266.347L109.211 267.81L108.09 270.564L107.659 274.264L105.503 276.329L103.951 276.845L103.864 281.233L103.519 282.524L103.864 283.126L106.624 283.556L106.193 285.621L105.072 287.256L102.226 287.945Z" fill="#005EA2" stroke="white" stroke-width="1.77165"/>
<!-- NV -->
<path d="M104.857 130.313L120.689 133.703L128.021 135.163L135.008 136.538L140 137.765L139.579 142.173L136.904 155.196L133.816 170.211L132.349 177.515L130.71 187.496L128.33 199.832L125.672 211.619L124.187 219.27L122.326 231.873L121.981 232.699L121.172 234.554L119.758 234.468L118.93 232.406L116.86 232.028L115.807 231.29L114.269 231.531L113.579 232.081L112.597 233.095L112.268 238.335L111.854 239.624L111.543 248.712L110.546 250L109.13 248.3L98.1743 231.205L83.5097 209.385L66.3434 183.958L57 169.993L58.2347 165.058L63.4968 145.558L69.4489 122L94.8101 128.119L105.162 130.353" fill="#DFE1E2"/>
<!-- NV/OR border -->
<path d="M104.857 130.313L120.689 133.703L128.021 135.163L135.008 136.538L140 137.765L139.579 142.173L136.904 155.196L133.816 170.211L132.349 177.515L130.71 187.496L128.33 199.832L125.672 211.619L124.187 219.27L122.326 231.873L121.981 232.699L121.172 234.554L119.758 234.468L118.93 232.406L116.86 232.028L115.807 231.29L114.269 231.531L113.579 232.081L112.597 233.095L112.268 238.335L111.854 239.624L111.543 248.712L110.546 250L109.13 248.3L98.1743 231.205L83.5097 209.385L66.3434 183.958L57 169.993L58.2347 165.058L63.4968 145.558L69.4489 122L94.8101 128.119L105.162 130.353" stroke="white" stroke-width="1.77165"/>
<!-- UT -->
<path d="M189.454 229L170.775 226.367L150.64 222.658L125 218.094L126.204 211.153L128.63 199.628L131.143 187.064L132.789 176.752L134.262 169.993L137.121 154.482L139.807 141.224L140.652 137L150.292 138.711L159.389 140.271L167.187 141.658L173.512 142.697L176.3 143.061L175.175 151.119L173.423 161.104L179.341 161.808L191.776 163.176L198 163.825L196.385 180.478L193.959 197.583L191.115 218.677L189.852 227.097L189.454 229Z" fill="#DFE1E2" stroke="white" stroke-width="1.77165"/>
<!-- CO -->
<path d="M283.913 189.638L285 173.436L260.773 171.103L242.307 169.048L214.177 165.915L198.559 164L196.574 180.884L194.158 197.941L191.326 219.248L190.189 227.705L190 229.808L215.609 232.697L244.098 235.945L268.224 238.356L280.76 239" fill="#005EA2"/>
<!-- CO border -->
<path d="M283.913 189.638L285 173.436L260.773 171.103L242.307 169.048L214.177 165.915L198.559 164L196.574 180.884L194.158 197.941L191.326 219.248L190.189 227.705L190 229.808L215.609 232.697L244.098 235.945L268.224 238.356L280.76 239" stroke="white" stroke-width="1.77165"/>
<!-- NM -->
<path d="M212.228 321.619L211.743 317.009L218.194 317.405L240.223 319.712L261.414 320.796L262.881 303.982L265.662 261.914L266.497 247.316L268 247.579L267.989 239.241L243.954 237.431L216.386 234.098L190.663 231L187.528 254.157L182.33 294.213L179.53 314.482L178 324.502L189.539 326L190.504 318.454L202.932 320.401L212.228 321.619Z" fill="#005EA2" stroke="white" stroke-width="1.77165"/>
<!-- OR -->
<path d="M104.72 129L107.947 115.589L111.45 102.194L112.239 99.0257L114.007 94.8128L113.545 93.9416L111.657 93.907L110.694 92.6553L111.037 91.5585L111.416 89.1259L114.763 85.0152L116.137 84.1917L116.995 83.3353L118.111 80.664L121.151 76.4165L123.828 73.5228L124 70.9371L121.545 69.0876L120.637 65.7087L110.696 62.9034L99.3643 60.2485L87.7753 60.3341L87.4319 59.3064L83.3113 60.848L79.9634 60.4198L78.1607 59.2208L77.2164 59.7346L73.6968 59.5634L72.4091 58.5357L68.4602 56.9941L67.8593 57.0798L64.5972 55.9664L63.1379 57.3367L58.5023 57.0798L54.0384 53.9967L54.5534 53.3972L54.7251 47.5736L53.0082 44.6619L49.9178 44.2336L49.4027 42.3495L47.635 42L43.2805 43.5424L41.5809 48.387L39.1528 55.8961L36.7248 60.7407L32.9613 71.2776L28.1052 81.4512L22.0351 90.8982L20.5782 93.0782L19.9712 99.4973L19 103.979L21.0338 106.621L26.0877 108.308L34.7927 110.775L40.6994 112.677L50.0218 115.4L60.031 118.089L69.9196 120.76" fill="#005EA2"/>
<!-- OR border -->
<path d="M104.72 129L107.947 115.589L111.45 102.194L112.239 99.0257L114.007 94.8128L113.545 93.9416L111.657 93.907L110.694 92.6553L111.037 91.5585L111.416 89.1259L114.763 85.0152L116.137 84.1917L116.995 83.3353L118.111 80.664L121.151 76.4165L123.828 73.5228L124 70.9371L121.545 69.0876L120.637 65.7087L110.696 62.9034L99.3643 60.2485L87.7753 60.3341L87.4319 59.3064L83.3113 60.848L79.9634 60.4198L78.1607 59.2208L77.2164 59.7346L73.6968 59.5634L72.4091 58.5357L68.4602 56.9941L67.8593 57.0798L64.5972 55.9664L63.1379 57.3367L58.5023 57.0798L54.0384 53.9967L54.5534 53.3972L54.7251 47.5736L53.0082 44.6619L49.9178 44.2336L49.4027 42.3495L47.635 42L43.2805 43.5424L41.5808 48.387L39.1528 55.8961L36.7248 60.7407L32.9613 71.2776L28.1052 81.4512L22.0351 90.8982L20.5782 93.0782L19.9712 99.4973L19 103.979L21.0338 106.621L26.0877 108.308L34.7927 110.775L40.6994 112.677L50.0218 115.4L60.031 118.089L69.9196 120.76" stroke="white" stroke-width="1.77165"/>
<!-- ND -->
<path d="M353 92L352.73 86.3895L351.258 80.9138L349.904 70.698L349.566 63.3401L348.094 61.0136L346.909 57.0089V49.3088L347.417 46.3998L345.851 42.2841L324.817 41.8619L311.06 41.378L291.44 40.41L272.979 39L272.046 49.651L271.031 60.9445L269.36 79.6167L269 87.8648L311.045 90.6821L353 92Z" fill="#005EA2" stroke="white" stroke-width="1.77165"/>
<!-- SD -->
<path d="M354.575 148.641L353.858 147.837L352.715 145.14L354.089 142.387L354.879 138.256L352.938 136.726L352.715 134.685L353.161 132.457L354.777 131.86L355 127.595L354.949 105.221L354.484 103.011L351.391 100.341L350.652 98.8613V97.4325L352.078 96.481L353.23 95.1028L353.367 93.0805L310.231 91.8904L268.003 89L267.427 92.9262L266.214 104.727L265.203 118.074L264 136.366L276.049 137.131L290.811 137.981L304.337 138.951L322.21 139.92L330.288 139.341L332.438 141.042L335.685 143.252L336.424 143.813L339.086 143.151L342.128 142.93L344.191 142.879L346.531 143.78L349.95 144.851L352.305 146.16L352.769 147.589L353.457 149L353.987 148.642L354.575 148.641Z" fill="#DFE1E2" stroke="white" stroke-width="1.77165"/>
<!-- NE -->
<path d="M363.102 182.101L364.13 184.139L364.199 185.759L365.963 188.598L368 191H364.217L331.639 190.285L301.081 189.606L285.204 188.874L286.008 172.624L261 170.533L264.254 137L275.902 137.784L290.975 138.655L304.336 139.526L322.149 140.397L330.2 140.048L331.742 141.79L335.339 144.055L336.195 144.752L339.449 143.707L342.361 143.358L344.417 143.184L345.787 144.229L349.555 145.449L351.782 146.668L352.125 147.887L352.81 149.455H354.18L354.778 149.49L355.514 153.462L357.57 159.577L358.495 163.113L360.088 166.023L360.481 169.785L361.56 173.042L361.972 177.972" fill="#DFE1E2"/>
<!-- NE border -->
<path d="M363.102 182.101L364.13 184.139L364.199 185.759L365.963 188.598L368 191H364.217L331.639 190.285L301.081 189.606L285.204 188.874L286.008 172.624L261 170.533L264.254 137L275.902 137.784L290.975 138.655L304.336 139.526L322.149 140.397L330.2 140.048L331.742 141.79L335.339 144.055L336.195 144.752L339.449 143.707L342.361 143.358L344.417 143.184L345.787 144.229L349.555 145.449L351.782 146.668L352.125 147.887L352.81 149.455H354.18L354.778 149.49L355.514 153.462L357.57 159.577L358.495 163.113L360.088 166.023L360.481 169.785L361.56 173.042L361.972 177.972" stroke="white" stroke-width="1.77165"/>
<!-- IA -->
<path d="M425.541 148.211L425.671 149.692L427.405 150.561L428.271 151.519L428.531 152.481L431.48 154.923L432 156.58L431.394 158.762L430.264 161.465L429.658 163.556L428.01 164.777L426.709 165.214L422.548 166.346L422.027 168.087L421.421 169.829L421.855 170.875L423.157 172.182L423.155 174.973L421.51 176.194L421.162 177.328V179.246L420.032 179.595L418.732 180.64L418.387 181.772L418.732 183.082L417.69 184L415.95 181.948L414.824 179.945L408.498 180.554L400.782 180.99L381.79 181.514L371.902 181.688L364.792 181.863L363.794 181.955L362.538 178.545L362.365 173.49L361.151 170.352L360.631 166.342L358.897 163.553L358.203 159.892L356.122 154.14L355.255 150.043L354.214 148.387L353 146.295L354.387 142.983L355.428 138.624L353.347 137.055L353 134.964L353.694 133.046H354.994H363.752L401.386 132.523L416.464 132L417.868 134.094L419.258 136.093L419.603 136.707L418.215 138.803L418.56 142.022L420.468 144.985L422.72 146.376L424.544 146.552L425.541 148.211Z" fill="#005EA2" stroke="white" stroke-width="1.77165"/>
<!-- MS -->
<path d="M470 347.344L469.805 348.282H465.834L464.717 347.678L463.104 347.437L457.892 348.885L456.527 348.282L454.542 351.419L453.696 352L452.833 350.143L451.956 347.242L449.323 344.852L450.201 339.221L449.674 338.538L448.27 338.709L441.953 339.221L423.351 339.733L423 338.538L423.526 332.565L426.159 327.957L430.195 321.131L429.493 319.595H430.37L430.897 317.206L429.142 315.84L429.318 314.475L427.738 311.062L427.519 307.073L428.572 305.089L428.265 301.846L427.212 299.628L428.265 298.604L427.212 297.068L427.563 295.703L428.265 291.095L430.546 289.047L430.02 287.511L432.827 283.586L434.933 282.903V281.026L434.407 280.002L436.513 276.077L438.618 275.224L438.701 272.677L445.36 272.619L463.849 271.171L467.365 271L467.372 275.756L467.496 288.186L466.875 311.355L466.751 321.854L468.861 335.852L470 347.344Z" fill="#005EA2" stroke="white" stroke-width="1.77165"/>
<!-- IN -->
<path d="M464 223L464.049 220.825L464.413 217.381L466.114 215.167L467.45 212.215L469.393 209.017L469.029 204.589L467.693 202.498L467.45 200.038L468.057 195.856L467.693 190.567L466.721 178.39L465.75 166.706L465.02 157.788L467.328 158.465L468.421 159.203L469.271 158.957L470.85 157.481L472.976 156.251L476.803 156.128L493.322 154.406L497.511 154L498.64 166.14L501.834 194.171L502.284 198.562L502.005 200.284L502.928 201.65L503 202.695L501.106 203.912L498.446 205.092L496.04 205.511L495.591 209.213L492.154 211.734L490.053 214.785L490.295 216.593L489.859 217.761H487.359L486.168 216.531L484.295 217.491L482.279 218.635L482.4 220.959L481.503 221.155L481.152 220.38L479.524 219.237L477.082 220.257L475.916 222.545L474.836 221.93L473.743 220.713L470.388 221.082L466.186 221.82L464 223Z" fill="#DFE1E2" stroke="white" stroke-width="1.77165"/>
<!-- IL -->
<path d="M464.643 223.577V220.836L464.84 217.135L466.659 214.75L468.02 211.886L470 208.949L469.716 204.955L468.181 202.262L468.107 199.717L468.639 195.71L468.007 190.252L467.191 178.256L466.201 166.837L465.495 157.987L465.287 157.286L464.668 155.32L463.679 152.492L462.441 151.14L461.328 149.174L461.149 145L453.57 145.998L432.748 147.302L426.099 146.976L426.274 148.779L428.023 149.301L428.723 150.17L429.073 151.561L432.048 154.168L432.573 155.906L432.048 158.514L430.648 161.295L430.123 163.208L428.373 164.598L426.974 165.12L422.949 166.163L422.424 167.553L421.899 169.118L422.424 170.161L423.824 171.378L423.649 174.507L422.249 175.724L421.724 176.941V179.027L420.325 179.374L419.1 180.243L418.925 181.286L419.1 182.851L417.787 183.851L417 185.98L417.35 188.761L419.1 194.324L424.699 200.061L428.898 202.842L428.723 206.145L429.423 207.188L434.323 207.536L436.422 208.579L435.897 211.36L434.148 215.88L433.623 218.314L435.372 221.269L440.272 225.267L443.771 225.788L445.346 229.613L446.921 232.047L446.221 234.306L447.446 237.435L448.846 239L450.334 238.398L450.859 236.753L452.418 235.659L454.895 234.823L457.259 235.72L459.459 236.531L460.065 236.371L460.015 235.427L459.199 233.324L459.533 231.517L461.278 230.324L463.084 229.574L463.974 229.255L463.529 228.248L462.948 226.6L463.901 225.64L464.643 223.577Z" fill="#005EA2" stroke="white" stroke-width="1.77165"/>
<!-- MN -->
<path d="M353.933 93.0055L353.586 86.6229L352.198 81.1028L350.81 70.9251L350.463 63.5075L349.076 60.9199L347.861 57.1249V49.3622L348.382 46.4297L347 42.3162L369.863 42.3429L370.108 36.122L370.599 36L372.316 36.3659L373.788 36.9758L374.402 41.1231L375.506 45.7582L376.732 46.978H380.412L380.657 48.0758L385.441 48.3198V49.9055H389.121L389.366 48.9297L390.225 48.0758L391.942 47.5879L392.923 48.3198H395.131L398.075 50.2714L402.123 52.1011L403.963 52.467L404.331 51.7352L405.435 51.3692L405.803 53.5648L407.765 54.5406L408.133 54.1747L409.115 54.2967V55.8824L411.077 56.6143H413.408L414.634 56.0044L417.088 53.5648L419.05 53.1989L419.664 54.5406L420.032 55.5165H420.768L421.503 54.9066L428.25 54.6626L429.599 56.9802H430.09L430.631 56.1621L434 55.8824L433.536 57.6023L430.547 58.9885L423.532 62.0527L419.909 63.567L417.578 65.5187L415.738 68.2022L414.021 71.1296L412.672 71.7395L409.237 75.5208L408.256 75.6428L405.341 77.8565L403.204 80.2415L403.031 82.4828L403.203 88.3517L401.991 89.5592L398.001 92.663L396.611 96.9769L398.522 99.7293L398.87 101.631L397.999 103.874L397.827 106.636L398.174 111.981L400.773 115.08H403.031L404.935 116.81L407.365 117.84L410.142 121.638L415.519 125.428L416.908 126.985L417.086 131.136L401.464 131.654L355.75 132L355.494 105.081L355.147 102.838L352.024 100.251L351.157 98.8706V97.6631L352.718 96.4556L353.759 95.4205L353.933 93.0055Z" fill="#005EA2" stroke="white" stroke-width="1.77165"/>
<!-- WI -->
<path d="M459.405 144.836L459.676 142.586L458.493 139.156L458.02 134.502L457.192 132.665L457.902 130.338L458.493 128.134L459.558 126.174L459.085 123.602L458.611 120.908L458.966 119.56L460.386 117.723L460.504 115.641L459.913 114.661L460.386 112.702L460.741 110.252L462.752 105.966L464.882 100.822L465 99.1072L464.763 98.3724L464.172 98.7398L461.096 103.516L459.085 106.578L457.665 107.925L457.073 109.64L456.009 110.252L455.18 111.722L454.116 111.477L453.997 110.13L454.944 108.293L456.482 104.741L457.783 103.516L458.589 101.78L457.396 101.094L456.392 100.055L455.221 92.2609L452.544 91.3949L451.54 89.6628L442.338 87.5844L440.497 86.7184L434.474 84.9863L428.451 84.1203L425.399 80.0256L425.012 80.981L424.184 80.8585L423.711 80.0012L421.699 79.3889L420.871 79.5113L419.57 80.2462L418.86 79.7563L419.333 78.2866L420.753 75.9596L421.581 75.1023L420.161 74L418.623 74.6124L416.494 76.0821L411.052 78.5315L408.922 79.0214L406.793 78.654L406.074 77.9886L404.525 80.1366L404.358 82.215V88.6236L403.521 89.8361L399.673 92.7805L398 97.2839L398.335 97.4571L400.175 99.0159L400.677 101.441L399.338 103.866V106.81L399.673 111.833L401.848 114.085H404.358L405.696 116.51L408.206 116.856L411.05 121.186L416.237 124.304L417.743 126.382L418.412 132.011L418.914 134.523L420.587 135.735L420.754 136.775L419.249 139.373L419.416 141.798L421.256 144.742L423.097 145.608L425.272 145.954L426.254 147L432.968 147L452.044 145.874L459.405 144.836Z" fill="#DFE1E2" stroke="white" stroke-width="1.77165"/>
<!-- MO -->
<path d="M417.239 184.046L415.331 181.721L414.465 180L408.579 180.516L401.135 180.861L381.918 181.549L371.704 181.721L365.731 181.807L364 181.893L364.952 183.787L364.779 185.508L366.683 188.434L369.021 191.533L371.358 193.598L373.089 193.77L374.128 194.459V196.697L372.743 197.902L372.396 199.623L373.955 202.205L375.859 204.443L377.763 205.82L378.802 214.598L378.283 241.192L378.456 244.721L378.802 248.774L396.546 248.686L414.119 248.17L429.873 247.567L438.698 247.393L440.341 249.973L439.823 252.463L437.485 254.272L437.052 255.656L441.124 256L444.074 255.484L445.374 251.347L445.867 246.938L447.623 245.413L448.92 244.294L450.478 243.519L450.565 241.365L451 240.074L450.219 238.757L448.14 238.866L446.498 236.89L445.458 233.706L446.064 231.81L444.592 229.229L443.206 225.784L439.571 225.182L434.294 220.967L432.993 217.87L433.598 215.46L435.157 210.899L435.505 208.743L434.029 207.967L428.838 207.366L428.059 206.077L427.975 202.892L423.82 200.309L418.538 194.458L416.807 188.95L416.632 185.768L417.239 184.046Z" fill="#DFE1E2" stroke="white" stroke-width="1.77165"/>
<!-- AR -->
<path d="M444 255.025L441.09 255.742L436.42 255.393L436.939 253.12L439.36 251.022L439.706 249.273L438.322 247L430.021 247.35L414.282 248.049L396.641 248.574L379 248.923L380.211 254.169V260.463L381.248 268.856L381.421 297.793L383.151 299.28L385.399 298.231L387.475 299.105L387.8 307L405.113 306.891L419.384 306.279L427.04 306.128L427.907 304.529L427.69 301.814L426.309 299.541L427.519 298.405L426.309 296.485L426.827 294.565L427.862 290.278L429.767 288.701L429.248 286.954L432.015 282.845L434.091 281.799L434.005 280.656L433.744 279.26L435.905 274.978L437.723 274.017L438.013 271.396L439.353 270.446L440.001 267.208L438.986 264.141L442.043 262.323L442.46 260.779L443.394 257.515L444 255.025Z" fill="#DFE1E2" stroke="white" stroke-width="1.77165"/>
<!-- OK -->
<path d="M282.146 239.691L274.146 239.356L269.334 239L269.526 239.147L269 246.788L285.439 247.819L309.43 248.775L307.683 266.678L307.341 279.753L307.512 280.926L310.763 283.608L312.303 284.446L312.816 284.279L313.329 282.77L314.356 284.111H315.896V283.105L317.949 284.111L317.607 286.96L320.687 287.128L322.569 287.966L325.649 288.469L327.531 289.81L329.242 288.301L331.809 288.804L333.691 291.319H334.375V292.995L336.086 293.498L337.798 291.821L339.166 292.324H341.049L341.733 294.168L345.326 295.509L346.353 295.006L347.722 291.989H348.577L349.433 293.498L352.513 294.001L355.25 295.006L357.475 295.677L358.844 295.006L359.357 293.162H362.608L364.148 293.833L366.201 292.324H367.057L367.57 293.498H370.65L371.848 291.989L373.216 292.324L374.756 294.168L377.152 295.509L379.547 296.18L381 297L380.709 269.713L379.682 261.667L379.562 255.162L378.484 250.369L377.902 245.105L377.851 242.307L368.768 242.541L334.033 242.206L300.326 240.697L282.146 239.691Z" fill="#DFE1E2" stroke="white" stroke-width="1.77165"/>
<!-- KS -->
<path d="M377.483 240.845L367.963 241L333.194 240.653L299.58 239.091L281 238.136L284.126 189L300.597 189.607L331.124 190.649L364.411 190.996H368.255L370.705 193.444L372.793 193.618L373.464 194.434V195.96L372.085 197.175L371.74 199.154L373.413 201.879L375.31 204.258L377.207 205.768L378 214.255L377.483 240.845Z" fill="#DFE1E2" stroke="white" stroke-width="1.77165"/>
<!-- LA -->
<path d="M452.077 352.091L451.304 350.133L450.446 347.818L447.955 345.167L448.643 340.113L448.554 339.259L447.607 339.515L441.425 340.198L422.626 340.542L422.113 338.749L422.798 332.419L425.289 327.967L429.068 321.461L428.636 319.666L429.58 319.156L429.925 317.694L428.208 316.155L428.124 314.701L426.749 311.448L426.406 307L419.102 307.085L404.678 307.77L388 307.791L388.021 314.958L388.537 321.976L389.052 324.885L390.941 327.966L391.627 331.731L394.89 335.839L395.062 338.235L395.577 338.749L395.062 345.082L392.829 348.847L394.031 350.388L393.516 352.27L393.001 357.747L391.971 360.143L392.063 362.851L395.583 361.713L401.654 361.471L409.425 364.133L414.282 364.981L417.074 363.891L419.503 364.738L421.931 365.465L422.538 363.891L420.11 363.044L418.167 363.407L416.103 362.197C416.103 362.197 416.224 361.229 416.71 361.108C417.196 360.987 419.017 360.382 419.017 360.382L420.353 361.471L421.688 360.745L424.117 361.229L425.209 363.044L425.452 364.738L428.852 364.981L430.188 366.312L429.581 367.522L428.609 368.127L429.823 369.337L436.137 372L438.809 371.032L439.537 369.216L441.48 368.732L442.815 367.643L443.787 368.369L444.394 370.548L442.694 371.153L443.18 371.637L445.73 370.669L447.43 368.127L448.037 367.764L446.458 367.522L447.065 366.312L446.944 365.223L448.522 364.859L449.372 363.891L449.858 364.496C449.858 364.496 449.737 366.796 450.344 366.796C450.951 366.796 453.501 367.28 453.501 367.28L456.536 368.732L457.265 369.822H459.45L460.3 370.548L462 368.248V367.159H461.029L458.479 365.102L454.108 364.496L451.679 362.802L452.529 360.745L454.229 360.987L454.351 360.503L453.015 359.776V359.413H455.443L456.779 357.114L455.808 355.662L455.565 353.604L454.472 353.725L453.015 355.298L452.529 357.235L450.222 356.751L449.494 355.419L450.829 353.967L452.347 352.636L452.077 352.091Z" fill="#005EA2" stroke="white" stroke-width="1.77165"/>
<!-- VA -->
<path d="M623.228 199.097L623.119 197.617L628 195.678L627.417 198.124L625.209 200.997L624.893 204.484L625.242 207.061L623.859 210.846L622.223 212.303L621.111 208.774L621.448 204.632L622.648 201.452L623.228 199.097ZM624.952 220.613L580.954 230.173L552.647 234.186L547.597 233.901L545.641 235.365L540.091 235.533L533.751 236.276L527 237L533.414 233.238L533.404 231.661L534.554 230.029L542.536 221.285L545.521 224.689L548.382 225.422L550.306 224.555L551.998 223.558L553.916 224.58L556.876 223.494L558.296 220.03L560.263 220.441L562.422 218.821L563.783 219.196L565.921 216.401L566.185 214.817L565.456 213.848L566.214 212.428L570.203 203.095L570.67 198.735L571.599 198.337L573.247 200.194L576.224 199.965L577.683 194.207L579.796 193.781L580.59 191.697L582.541 189.913L583.5 188.132L584.637 185.583L584.702 181.731L592.13 184.637C592.645 184.896 592.626 181 592.626 181L595.689 182.047L595.34 184.046L601.509 186.28L602.486 187.645L601.83 190.444L600.875 191.452L600.492 192.779L600.866 194.606L602.347 195.578L605.31 196.676L607.541 197.412L611.214 198.129L612.841 199.716L615.254 200.022L615.911 200.935L615.579 204.5L616.618 205.338L616.256 206.806L617.186 207.406L617.018 208.459L614.981 208.387L615.048 209.615L616.773 210.788L616.865 211.861L618.206 213.219L618.578 215.138L616.647 216.188L617.836 217.324L622.224 216.042L624.952 220.613Z" fill="#DFE1E2" stroke="white" stroke-width="1.77165"/>
<path d="M602.883 187L601.913 185.801L601 185.184L601.99 184L604 185.107L602.883 187Z" fill="#DFE1E2" stroke="white" stroke-width="1.77165"/>
<!-- WA -->
<path d="M108.63 61.4856C102.328 59.7813 98.4735 59.2079 94.1554 59.3321C90.9184 59.4252 88.0342 59.2654 87.7459 58.9771C87.4576 58.6888 86.1421 58.8293 84.8226 59.2892C83.482 59.7566 81.4374 59.8437 80.1883 59.4867C78.9589 59.1353 77.1946 58.7563 76.2675 58.6445C75.3404 58.5326 72.3955 57.7235 69.7231 56.8463C66.7863 55.8824 63.6483 55.4085 61.7905 55.6485C57.4049 56.215 54.7839 54.3506 55.2738 51.0129C55.7321 47.8899 54.0564 43.5943 52.3797 43.5943C51.6965 43.5943 50.7086 43.0076 50.1842 42.2906C49.6599 41.5735 48.1468 40.9339 46.8218 40.8691C45.4968 40.8044 44.1422 40.3787 43.8117 39.9232C42.8304 38.5709 43.1022 37.0498 44.3252 37.0498C45.8942 37.0498 46.6872 34.6306 45.5624 33.2753C44.3627 31.8298 45.202 29.6873 46.968 29.6873C48.2062 29.6873 48.1882 29.5112 46.7922 27.9686C45.5307 26.5747 45.2697 25.1638 45.4107 20.5007C45.5063 17.3386 45.2151 14.0611 44.7635 13.2173C43.8843 11.5746 45.1454 5.14551 46.3468 5.14551C46.7009 5.14551 47.8832 6.10081 48.9739 7.26838C51.315 9.77427 53.5395 11.0023 59.5811 13.124C64.3367 14.7941 66.0913 14.7199 66.0913 12.8489C66.0913 12.2115 66.7355 11.719 67.5229 11.7546C68.3781 11.7931 68.5428 11.9853 67.9319 12.2318C67.3695 12.4587 66.9093 13.1788 66.9093 13.8321C66.9093 15.1615 69.2659 19.0525 70.0711 19.0526C71.0095 19.0528 70.4819 6.4161 69.4642 4.51506C67.8727 1.54235 69.0043 1.14088 74.4673 2.73989C83.7232 5.44908 110.491 12.4377 120.083 14.6496C125.257 15.8427 129.59 16.8988 129.71 16.9964C129.831 17.094 129.188 19.5292 128.281 22.408C126.005 29.635 120.083 57.6218 120.083 61.1546C120.083 64.6374 120.266 64.6321 108.63 61.4856V61.4856Z" fill="#DFE1E2" stroke="white" stroke-width="1.77165"/>
<!-- WA fill -->
<path d="M69.357 1L72.6415 2.09483L79.9403 4.16283L86.3877 5.6226L101.472 9.88026L118.746 14.1379L130.154 16.6924L129.398 19.6151L126.318 30.0067L122.964 45.6619L120.573 57.8069L120.309 64.8643L110.39 61.9341L98.6735 59.3883L88.3894 59.8366L87.2 58.6836L83.1919 60.1112L80.1995 59.9226L78.1516 58.5976L76.9639 58.993L73.7995 58.8209L72.3884 57.7887L68.7939 56.4819L67.7087 56.3264L63.957 55.3289L62.6155 56.4637L58.3328 56.2057L54.7052 53.3505L54.859 52.7484L54.9103 46.7785L53.3107 43.8539L50.214 43.303L49.9395 41.5314L48.0474 41.0595L45.8791 40.657L44.541 41.3869L42.8379 39.1973L43.0812 37.0076L45.1492 36.7643L46.3657 33.7231L44.4193 32.8716L44.541 30.0737L47.8254 29.5871L45.7574 27.5191L44.6626 22.1666L45.1492 19.977V14.0163L43.8111 11.5833L45.5141 4.52777L47.0956 4.89272L48.9203 7.08237L50.9883 9.02873L53.4212 10.4885L56.8273 12.0699L59.1386 12.5565L61.3283 13.6513L63.8829 14.3812L65.586 14.2596V12.4349L66.5591 11.5833L68.1405 10.6101L68.3838 11.4617L68.6271 12.7998L66.9241 13.1647L66.6808 14.7462L68.0189 15.841L68.8704 17.6657L69.357 19.1255L70.4518 19.0038L70.5735 18.0306L69.8436 17.0574L69.4787 14.6245L70.0869 13.2864L69.6003 12.1916V10.4885L70.9384 7.81225L70.0869 5.86589L68.2622 2.21647L68.5055 1.60824L69.357 1ZM62.241 5.49909L63.7616 5.37744L64.1265 6.41145L65.2822 5.19497H67.0461L67.6543 6.35062L66.4987 7.62792L66.9853 8.23617L66.4378 9.75676L65.4038 10.0609C65.4038 10.0609 64.7348 10.1217 64.7348 9.87841C64.7348 9.63512 65.8296 7.93205 65.8296 7.93205L64.5523 7.50628L64.309 8.60111L63.7616 9.0877L62.6059 7.38463L62.241 5.49909Z" fill="#005EA2" stroke="white" stroke-width="1.77165"/>
<path d="M676.44 318.155L676.433 329H682.98V327.755H677.858V318.155H676.44ZM686.394 318.162H684.977V319.602H686.394V318.162ZM686.364 321.245H685.022V329H686.364V321.245ZM694.893 321.245H693.596L691.526 327.26H691.398L689.336 321.245H688.031L690.836 329H692.096L694.893 321.245ZM697.119 325.445H702.676V324.935C702.676 322.58 701.461 321.095 699.279 321.095C697.021 321.095 695.716 322.752 695.716 325.197C695.716 327.672 697.209 329.15 699.376 329.15C700.884 329.15 702.256 328.362 702.624 326.735H701.319C701.026 327.62 700.344 328.077 699.354 328.077C697.846 328.077 697.119 326.915 697.119 325.445ZM697.126 324.507C697.119 323.352 697.816 322.145 699.271 322.145C700.674 322.145 701.341 323.172 701.341 324.507H697.126Z" fill="#3D4551"/>
<rect x="643" y="313" width="22" height="22" fill="#005EA2"/>
<path d="M34.9516 357C34.7024 357.062 34.5471 357.311 34.3169 357.423C34.1986 357.596 33.9862 357.678 33.8638 357.855C33.6486 358.046 33.632 358.391 33.4851 358.637C33.3169 359.052 33.1656 359.489 32.8681 359.842C32.7171 360.113 32.4796 360.319 32.3051 360.574C32.1301 360.796 31.9298 360.997 31.7559 361.215C31.5338 361.496 31.6425 361.87 31.5535 362.189C31.5089 362.595 31.5247 363.007 31.4082 363.402C31.4581 363.492 31.5709 363.664 31.4888 363.835C31.5313 363.989 31.4939 364.12 31.5681 364.27C31.649 364.392 31.5534 364.617 31.6094 364.701C31.828 364.702 31.7756 365.05 31.8479 365.244C31.9501 365.415 32.036 365.731 31.7429 365.738C31.5415 365.818 31.6489 366.053 31.5882 366.203C31.5632 366.356 31.4306 366.478 31.4082 366.644C31.3353 366.853 31.232 367.033 31.0622 367.173C30.9206 367.333 30.8472 367.566 30.7928 367.756C30.7458 367.941 30.7744 368.038 30.8782 368.173C30.8419 368.351 30.7089 368.583 30.5037 368.489C30.4393 368.359 30.4079 368.594 30.2723 368.667C30.1274 368.754 30.0189 368.843 29.911 368.941C29.7962 369.058 29.6905 369.254 29.7683 369.319C29.6347 369.32 29.4671 369.428 29.4394 369.606C29.3173 369.769 29.5341 369.925 29.3402 370.072C29.2893 370.345 28.9723 370.463 28.9436 370.761C28.9059 371.043 28.697 371.324 28.3864 371.294C28.4651 371.471 28.1451 371.709 28.0468 371.586C27.76 371.703 28.0614 371.784 28.0424 371.963C27.9409 372.18 27.9059 372.426 27.8777 372.661C27.8139 372.879 27.6625 373.042 27.5078 373.187C27.6534 373.451 27.2335 373.532 27.2268 373.783C27.0884 374.072 26.7765 374.256 26.597 374.492C26.4912 374.777 26.8716 374.947 26.7712 375.235C26.7387 375.447 26.835 375.652 26.8004 375.866C27.0057 376.014 26.7976 376.225 26.8344 376.419C26.7139 376.571 26.9001 376.662 27.0431 376.685C27.2731 376.64 27.2538 376.914 27.1768 377.052C27.1005 377.305 27.0254 377.559 26.8311 377.751C26.5781 378.119 26.4063 378.565 26.0006 378.795C25.7287 378.939 25.4197 378.93 25.1547 379.084C24.9011 379.17 24.5944 379.138 24.3988 378.949C24.3467 378.748 24.1333 378.659 23.958 378.585C23.8456 378.509 23.6624 378.593 23.5213 378.601C23.2926 378.699 23.04 378.823 22.8016 378.751C22.6092 378.758 22.5359 378.919 22.4161 379.033C22.2508 379.107 22.1517 379.265 22.028 379.406C21.6075 380.239 21.8349 379.296 21.8644 379.985C21.9876 380.126 21.8522 380.387 22.0218 380.475C22.1742 380.531 22.3092 380.457 22.4575 380.52C22.7209 380.602 22.7374 380.96 22.7031 381.196C22.6617 381.614 22.3044 381.885 22.1168 382.236C21.9562 382.467 21.7704 382.719 21.466 382.748C21.2972 382.807 21.1263 382.86 20.9594 382.934C20.6009 383.003 20.2329 383.017 19.8735 383.034C19.6924 383.155 19.7703 382.987 19.7298 382.782C19.7576 382.624 19.5033 382.279 19.5182 382.527C19.4151 382.716 19.2971 382.964 19.1416 383.08C18.9975 383.076 18.9777 383.007 19.1303 382.974C18.9281 382.95 18.8454 383.209 18.8622 382.825C18.8027 382.55 19.1054 382.591 19.2873 382.613C19.2713 382.469 19.346 382.364 19.1238 382.54C18.9432 382.669 18.688 382.284 18.6225 382.589C18.7318 382.683 18.9312 382.718 18.8383 383.004C18.8042 383.115 18.5759 383.021 18.4604 383.049C18.1754 383.102 17.9072 383.004 17.66 382.874C17.295 382.796 16.9227 382.86 16.5546 382.863C16.346 382.928 16.3679 382.91 16.274 382.703C16.1569 382.556 15.939 382.474 15.9587 382.68C16.1422 382.828 15.8926 382.923 15.7292 382.919C15.4548 382.934 15.2017 383.063 15.0155 383.254C14.7846 383.4 14.5375 383.508 14.3129 383.667C14.1429 383.726 13.9394 383.576 13.7848 383.664C13.6231 383.572 13.3708 383.613 13.2034 383.475C12.9837 383.296 13.2182 383.398 13.0322 383.199C12.9059 383.077 12.6298 383.492 12.79 383.347C12.8205 383.493 12.8204 383.668 12.8109 383.827C12.8149 384.043 12.5513 384.149 12.406 384.279C12.223 384.474 11.9535 384.464 11.7111 384.474C11.5259 384.637 11.3 384.759 11.0538 384.793C10.9013 384.808 10.7094 384.873 10.634 385.023C10.4987 385.152 10.3314 385.125 10.2333 385.008C10.0805 385.006 9.88309 384.797 9.93132 384.663C10.0255 384.509 9.95265 384.395 9.8005 384.502C9.6089 384.533 9.41059 384.609 9.21779 384.71C8.94199 384.932 8.6171 385.1 8.28364 385.197C7.9161 385.166 7.52941 385.142 7.18574 384.969C6.97654 384.954 6.76902 384.848 6.55749 384.796C6.28653 384.731 6.47649 384.925 6.26516 384.952C5.14151 384.945 4.01579 384.958 2.89294 384.957C2.46914 385.053 2.20348 385.434 1.85287 385.665C1.56262 385.873 1.1669 385.924 0.974299 386.262C0.709743 386.385 1.04642 386.616 0.997115 386.363C1.18568 386.016 1.57934 385.92 1.89648 385.758C2.13595 385.564 2.36468 385.31 2.63615 385.165C2.85815 385.006 3.12565 385.005 3.38911 385.018C3.71835 385.029 4.07181 384.947 4.36264 385.148C4.36795 385.208 4.46972 384.919 4.50175 385.151C4.59568 384.851 4.78201 385.228 4.96656 385.089C5.11498 384.929 5.36723 385.041 5.55455 385.048C5.69415 384.911 5.84379 385.232 5.93893 385.007C6.08408 385.092 6.13486 385.232 6.26002 385.021C6.51543 385.029 6.38838 385.3 6.48012 385.444C6.57607 385.608 6.03618 385.699 6.35399 385.709C6.4813 385.568 6.6879 385.476 6.84012 385.344C6.96321 385.599 7.17336 385.617 7.42694 385.587C7.7044 385.614 7.95523 385.528 8.22897 385.552C8.43681 385.5 8.41121 385.649 8.56499 385.579C8.65137 385.514 9.05315 385.371 8.893 385.369C8.8639 385.319 9.15895 385.158 9.29177 385.133C9.42283 385.066 9.67602 384.968 9.58303 385.22C9.72566 385.129 9.73774 385.244 9.94586 385.12C10.2161 385.036 9.94656 385.287 9.80964 385.317C9.71131 385.485 9.42958 385.425 9.56148 385.531C9.57418 385.797 9.51269 385.619 9.48396 385.447C9.516 385.323 9.14456 385.375 9.14318 385.444C9.31843 385.467 9.45688 385.44 9.46135 385.652C9.52772 385.923 9.40446 385.897 9.35819 385.952C9.0857 386.004 8.79271 385.881 8.5133 385.962C8.32115 386.055 8.21116 385.858 8.05786 385.92C7.82914 385.996 7.60177 385.905 7.36307 385.915C7.17881 385.869 6.877 386.023 7.0169 386.238C7.19753 386.428 6.81738 386.569 6.94025 386.711C7.13341 386.8 7.25238 386.702 7.20994 386.492C7.27268 386.353 7.01262 386.122 7.22127 386.092C7.29898 386.283 7.4092 386.417 7.59919 386.5C7.73554 386.548 7.92938 386.654 8.03115 386.512C8.25515 386.472 8.27701 386.208 8.46001 386.122C8.67937 386.124 8.86936 386.184 9.09635 386.153C9.30847 386.186 9.25458 386.474 9.15449 386.593C9.09105 386.77 9.2112 386.899 9.24999 387.057C9.28948 387.22 9.33409 387.313 9.26754 387.476C9.09663 387.586 9.26972 387.872 9.10281 388.007C8.77395 387.976 9.27848 388.291 9.01694 388.137C8.9173 388.024 8.61604 387.972 8.67481 388.192C8.68238 388.503 8.65012 388.348 8.56463 388.169C8.42667 388.049 8.38169 387.942 8.1693 387.945C8.07748 387.858 8.05213 387.562 7.9116 387.758C7.96741 387.814 7.65008 387.785 7.54595 387.75C7.23235 387.683 7.59402 387.838 7.57658 387.98C7.56091 388.232 7.19581 388.096 7.08884 388.258C7.12828 388.504 7.12224 388.758 7.1066 389.005C7.39686 388.996 7.66648 388.875 7.96257 388.883C7.98126 389.112 8.12338 389.069 8.28693 389.173C8.3027 389.408 8.42178 389.67 8.32445 389.893C8.2582 390.031 8.50146 390.25 8.30335 390.27C8.09654 390.337 8.11526 390.592 7.98357 390.734C7.97414 390.724 7.70023 390.965 7.666 391.147C7.57387 391.26 7.43915 391.645 7.57669 391.55C7.70004 391.582 7.9715 391.62 7.94938 391.729C7.85193 391.83 7.56501 391.813 7.54517 391.628C7.57171 391.717 7.34779 391.841 7.18919 391.788C6.97539 391.76 6.92824 391.442 6.78497 391.296C6.61965 391.038 6.4545 390.78 6.28939 390.521C6.41484 390.354 6.81862 390.134 6.42038 390.064C6.10969 389.986 6.02312 389.844 6.27522 389.606C6.41263 389.404 6.66168 389.155 6.2537 389.179C5.86569 389.08 6.42884 389.052 6.43959 388.822C6.76286 388.901 6.75729 388.587 6.71873 388.356C6.67025 388.11 6.66924 388.397 6.46059 388.177C6.35674 388.089 6.09277 388.063 6.0034 388.193C5.76205 388.442 5.99279 388.143 5.95669 388.009C5.8411 388.232 5.65939 387.922 5.59124 388.181C5.30192 388.329 5.79475 388.509 5.45139 388.557C5.23524 388.649 5.48873 388.891 5.52224 389.034C5.33047 389.201 5.3021 388.904 5.19924 388.756C5.1956 388.476 5.51591 388.31 5.57554 388.05C5.32273 388.085 5.24143 388.375 5.14271 388.585C5.09113 388.799 5.07631 388.291 5.23182 388.228C5.37519 388.049 5.02837 388.095 4.91499 388.088C4.76129 388.198 4.50834 388.032 4.43161 388.186C4.28544 388.204 4.12833 388.245 3.96696 388.21C3.81066 388.114 3.88329 388.024 3.72074 388.267C3.59129 388.288 3.44342 388.351 3.26763 388.361C2.99193 388.294 2.73274 388.189 2.44881 388.177C2.28783 388.098 2.07326 388.12 1.94816 387.981C1.83953 387.831 1.79237 387.684 1.57562 387.786C1.46402 387.637 1.33019 387.466 1.11804 387.509C0.884712 387.443 0.626576 387.327 0.405802 387.501C0.227128 387.672 0.615114 387.578 0.572195 387.666C0.402416 387.669 0.227222 387.647 0.0685711 387.682C-0.0235531 387.792 0.219059 387.875 0.247529 388.021C0.323961 388.195 0.35847 388.312 0.443168 388.48C0.582852 388.662 0.771259 388.827 0.951687 388.97C1.12223 389.028 0.982109 389.603 1.03493 389.119C1.03184 388.897 1.31299 389.138 1.44337 389.146C1.71549 389.247 1.99044 389.365 2.23677 389.502C2.38744 389.585 2.44341 389.729 2.59254 389.806C2.69062 389.935 2.88533 389.857 2.98238 390.023C2.96607 390.182 2.96728 390.326 3.02448 390.489C3.15542 390.62 3.14959 390.77 3.17396 390.934C3.27969 391.097 3.06899 391.229 3.13843 391.402C3.32136 391.516 3.42702 391.748 3.62617 391.795C3.85211 392.027 3.74659 391.851 3.97665 391.788C4.14281 391.688 4.39796 391.979 4.30462 392.123C4.07941 392.082 4.24019 392.306 4.41461 392.352C4.57542 392.196 4.75178 392.301 4.93821 392.25C5.11108 392.27 5.26267 392.379 5.44472 392.377C5.74392 392.535 5.91698 392.828 6.09235 393.104C6.27281 393.293 6.22575 393.569 6.22156 393.807C6.09739 393.954 6.53746 393.943 6.42634 394.114C6.27267 394.205 6.79829 394.397 6.51397 394.386C6.56281 394.729 6.31363 395.041 6.2264 395.368C6.07966 395.507 6.2951 395.738 6.13758 395.913C6.02053 396.049 5.94659 396.296 5.75481 396.285C5.59483 396.425 5.42727 396.502 5.44472 396.711C5.23934 396.931 5.2008 397.253 5.00866 397.486C4.98888 397.655 4.76373 397.773 4.86017 397.933L4.89884 397.974C5.00484 398.292 4.96414 398.678 4.76802 398.947C4.72292 399.102 4.59655 399.25 4.71264 399.355C4.68605 399.555 4.32141 399.576 4.50411 399.813C4.5363 399.989 4.49726 400.125 4.37718 400.25C4.24315 400.45 4.30425 400.402 4.19334 400.637C4.06625 400.803 4.05721 401.017 3.93442 401.185C3.78706 401.419 3.72216 401.669 3.65686 401.933C3.62585 402.116 3.4167 402.174 3.39038 402.372C3.18627 402.574 3.14881 402.991 2.79765 403.005C2.51472 403.303 2.54043 403.25 2.78976 403.411C2.93002 403.546 3.12132 403.498 3.2854 403.565C3.36638 403.704 3.57572 403.624 3.7116 403.629C3.9354 403.706 3.71863 403.974 3.98634 403.872C4.19064 403.946 4.09164 404.156 4.26137 404.221C4.2949 404.369 4.53307 404.443 4.45308 404.609C4.48528 404.738 4.61465 404.913 4.56417 404.957C4.45904 405.003 4.80514 404.911 4.88059 405.02C5.07743 405.173 4.8488 405.389 4.82293 405.541C4.7758 405.671 4.65092 405.922 4.64152 406.019C4.84639 406.148 4.76838 406.256 4.87836 406.448C4.72041 406.157 5.09606 406.528 5.24111 406.531C5.42011 406.666 5.72211 406.708 5.71928 406.988C5.60233 407.209 5.32052 407.205 5.11687 407.135C5.04677 407.203 5.05203 407.099 5.05872 407.37C5.1747 407.473 5.04561 407.537 5.13869 407.732C5.29233 407.78 5.28687 408.006 5.30098 408.083C5.24851 408.455 5.26867 408.022 5.39304 408.188C5.455 408.286 5.77851 408.124 5.76241 408.341C5.88786 408.521 5.57092 408.542 5.61269 408.731C5.53613 408.958 5.64604 408.972 5.71297 409.071C5.71103 409.269 5.80449 409.213 5.7645 409.456C5.77109 409.364 5.95367 409.396 6.12328 409.351C6.26611 409.338 6.5962 409.388 6.42027 409.594C6.33516 409.806 6.12365 409.784 6.00383 409.918C5.79439 409.995 5.81257 410.096 5.72735 410.239C5.52831 410.13 5.79195 410.493 5.69639 410.616C5.69831 410.761 5.82258 410.908 5.88563 411.043C6.04178 411.611 6.41528 411.251 6.41859 411.577C6.30643 411.752 6.34368 411.984 6.38145 412.173C6.49154 412.445 6.37148 412.576 6.46032 412.339C6.63842 412.452 6.5341 412.636 6.6124 412.794C6.61009 412.97 6.38361 413.086 6.39858 413.287C6.32094 413.464 6.38894 413.562 6.57041 413.699L7.04659 414.192C7.30294 414.335 7.57667 414.487 7.74746 414.729C7.96618 414.706 7.97746 414.812 8.05625 414.933C8.24001 414.922 7.97972 415.217 8.10067 415.352C8.18958 415.617 8.42502 415.804 8.6312 415.965C8.79001 416.021 8.99399 415.88 9.09958 416.039C9.05479 415.854 9.37976 416.082 9.49688 416.032C9.58907 415.865 9.598 415.781 9.6172 415.758C9.90719 415.98 9.78652 415.626 9.88287 415.739C9.91155 415.92 10.0418 415.991 10.0452 416.156L10.0024 416.409C10.0981 416.169 10.2528 416.56 10.4443 416.509C10.5961 416.553 10.7614 416.445 10.891 416.509C11.1988 416.598 11.4644 416.788 11.7321 416.967C11.7444 416.967 11.9911 417.045 12.1216 417.054C12.3484 417.058 12.5661 417.099 12.7819 417.161C12.9455 417.091 13.0593 417.1 13.2499 417.025C13.394 416.941 13.6381 416.96 13.6962 417.024C13.8519 416.927 14.0335 416.92 14.124 416.741C14.2967 416.658 14.401 416.451 14.6295 416.455C14.7963 416.572 14.943 416.721 14.8411 416.914C14.9776 417.129 15.0875 416.958 15.1705 417.139C15.2756 417.259 15.6347 417.095 15.4096 417.009C15.4504 416.837 15.7068 416.879 15.6615 417.074C15.7116 417.258 15.9093 417.017 15.7568 416.894C15.6308 416.641 16.0186 416.58 16.1709 416.488C16.513 416.537 16.1928 416.314 16.4335 416.233C16.6663 416.381 16.6296 416.116 16.6894 415.974C16.77 415.8 16.878 415.646 16.9633 415.479C17.0314 415.275 17.2152 415.3 17.3153 415.234C17.2112 415.132 17.1977 414.904 17.3381 414.79C17.3812 414.598 17.6127 414.719 17.7433 414.665C17.8721 414.829 17.9383 414.595 18.0315 414.456C18.2748 414.424 18.0406 414.29 18.0227 414.142C17.8813 414.13 17.7327 414.168 17.564 414.162C17.3831 414.243 17.2735 413.904 17.4657 413.964C17.6166 413.959 17.7796 413.909 17.9355 413.898C18.1974 413.816 18.3124 413.521 18.5896 413.504C18.8181 413.517 18.7013 413.424 18.8912 413.383C19.0415 413.501 19.2108 413.223 19.2129 413.091C19.2033 412.842 18.905 413.016 18.8517 412.787C18.6241 412.691 18.7776 412.218 19.008 412.375C19.1682 412.483 19.2837 412.633 19.4052 412.763C19.6021 412.764 19.5331 412.936 19.6474 412.921C19.8532 412.901 19.8242 412.602 20.0515 412.613C20.1894 412.503 20.3081 412.364 20.442 412.248C20.5684 412.125 20.4249 412.02 20.3121 411.915C20.1218 411.731 20.4693 411.609 20.4856 411.824C20.6699 411.951 20.7752 411.739 20.9058 411.641C21.0456 411.522 21.0047 411.288 21.1462 411.149C20.9817 411.425 21.0997 410.998 20.9249 410.972C21.0507 410.864 20.962 410.602 21.1226 410.52C21.2789 410.5 21.389 410.308 21.547 410.24C21.7541 410.079 21.9217 409.864 22.028 409.629C21.9126 409.482 22.0882 409.262 22.1698 409.135C22.2165 408.928 22.3867 408.731 22.3025 408.5C22.394 408.213 22.1339 407.94 22.2436 407.664C22.2005 407.266 22.0922 406.847 22.3336 406.493C22.4521 406.245 22.3362 405.965 22.3494 405.71C22.2996 405.552 22.404 405.412 22.3637 405.243C22.4629 404.969 22.1051 404.81 22.1265 404.535C22.1115 404.371 22.2364 404.207 22.0607 404.091C22.0326 403.852 21.795 404.218 21.8019 404.157C21.6338 404.338 21.6102 404.076 21.7744 404.006C21.8312 403.871 21.5556 404.04 21.452 403.908C21.298 403.826 21.1191 403.971 21.0389 403.915C20.8677 403.808 21.2244 403.863 20.9543 403.791C20.7627 403.702 20.5052 403.597 20.3257 403.798C20.1076 403.851 20.1286 404.164 19.9042 404.15C19.6796 404.189 19.6543 403.842 19.4213 403.864C19.2318 403.76 19.7645 403.856 19.7395 404.058C19.9441 404.212 20.1213 404.04 20.0543 403.807C20.1564 403.544 20.56 403.508 20.7828 403.627C20.8376 403.448 21.051 403.519 21.1851 403.486C21.4165 403.408 21.6407 403.518 21.8713 403.547C22.0157 403.7 22.0826 403.676 22.2277 403.495C22.2422 403.383 22.4826 403.114 22.2541 403.101C22.0646 402.932 22.4423 402.975 22.317 402.768C22.361 402.813 22.0546 402.627 22.2523 402.443C22.3417 402.173 22.1808 401.849 22.2896 401.584C22.3475 401.306 22.2991 401.512 22.2282 401.261C22.1871 401.026 22.2818 400.793 22.2089 400.556C22.1802 400.324 22.2601 400.118 22.2153 399.902C22.2019 400.086 22.0376 399.703 22.0344 399.606C21.9626 399.461 21.886 399.345 21.9899 399.177C22.036 399.079 22.25 398.686 22.2791 398.877C22.2617 398.987 22.3616 398.584 22.3381 398.463C22.3795 398.275 22.3084 398.055 22.3842 397.888C22.4433 397.745 22.5022 397.594 22.5706 397.431C22.656 397.277 22.6202 397.132 22.6716 396.981C22.636 396.805 22.7391 396.707 22.7838 396.561C22.7148 396.337 22.9839 396.372 23.1149 396.334C22.9953 396.231 22.7687 396.35 22.819 396.092C22.7135 395.799 22.8208 396.045 22.6438 396.031C22.5637 395.89 22.573 395.712 22.4156 395.625C22.2969 395.617 22.0205 395.419 22.0861 395.401C22.2945 395.517 22.3059 395.155 22.4962 395.208C22.6439 395.178 22.9423 395.197 22.9037 395.321C22.9597 395.137 23.1347 395.004 23.2117 394.822C23.3644 394.672 23.5879 394.605 23.664 394.378C23.7436 394.233 23.7455 394.012 23.6091 393.906C23.6303 393.658 23.9211 393.507 23.9354 393.248C23.839 393.015 24.0789 392.926 24.2438 392.864C24.4286 392.822 24.5123 392.695 24.6124 392.564C24.7857 392.49 24.6264 392.341 24.6104 392.232C24.4482 392.137 24.1693 392.166 24.1421 391.93C23.9528 391.795 24.0649 391.519 23.9806 391.326C24.1223 391.115 24.2731 390.843 24.5603 390.81C24.7763 390.708 25.0347 390.786 25.2193 390.6C25.3939 390.642 25.5349 390.561 25.657 390.434C25.7741 390.305 26.1844 390.201 25.9539 390.479C25.9681 390.307 26.2684 390.444 26.3967 390.531C26.537 390.56 26.6883 390.56 26.8328 390.605C26.9844 390.601 27.1326 390.603 27.2675 390.534C27.5777 390.423 27.6497 390.072 27.7129 389.783C27.8013 389.648 27.8486 389.485 27.9742 389.382C28.0937 389.291 28.1331 389.108 28.2556 389.039C28.337 388.888 28.4891 388.835 28.6008 388.714C28.7761 388.624 28.7996 388.508 28.9372 388.363C29.0674 388.223 29.2486 388.307 29.4015 388.297C29.6001 388.208 29.8489 388.325 30.0532 388.2C30.2685 388.122 30.1884 387.837 30.2271 387.775C30.3387 387.903 30.5771 387.724 30.5748 387.593C30.5741 387.45 30.8871 387.563 30.9497 387.361C31.0416 387.215 31.1977 387.056 31.1821 386.895C31.0462 386.677 31.2081 386.696 31.3483 386.678C31.3951 386.49 31.5957 386.471 31.6763 386.323C31.7106 386.435 31.897 386.088 31.8984 385.978C31.8535 385.767 32.2093 385.965 32.2367 385.752C32.0225 385.594 32.4202 385.567 32.5061 385.632C32.6843 385.632 32.7081 385.489 32.8068 385.367C33.0003 385.251 33.0775 385.396 33.2005 385.212C33.341 385.211 33.4908 385.198 33.6321 385.176C33.7719 385.017 33.9518 384.888 34.0843 384.707C34.264 384.555 34.3392 384.311 34.5285 384.151C34.5892 383.952 34.8308 384.048 34.9068 383.882C34.9499 383.727 35.1465 383.662 35.1179 383.485C35.2156 383.371 35.4049 383.277 35.479 383.139C35.6188 383.027 35.6729 382.856 35.8043 382.744C36.0253 382.626 36.1973 382.406 36.3647 382.22C36.572 382.045 36.3255 381.887 36.5644 381.749C36.7164 381.6 36.8995 381.656 37.0662 381.505C37.2608 381.39 37.4725 381.227 37.7033 381.227C37.8559 381.173 37.9441 381.147 38.0945 381.13C38.2648 381.097 38.4812 381.177 38.5919 381.017C38.7327 380.984 38.898 380.892 38.9472 380.732C39.1129 380.443 39.5239 380.336 39.6048 380C39.5504 379.855 39.4786 379.673 39.5201 379.549C39.5114 379.401 39.5299 379.234 39.5157 379.081C39.5423 378.888 39.6756 378.753 39.8694 378.735C40.0081 378.654 40.2673 378.861 40.2785 378.592C40.3148 378.459 40.4214 378.311 40.5606 378.306C40.7133 378.258 40.79 378.096 40.924 378.009C41.0769 377.914 41.224 377.819 41.3829 377.821C41.5503 377.783 41.6846 377.839 41.7977 377.676C41.9064 377.57 42.0543 377.55 42.2074 377.523C42.3545 377.356 42.4857 377.577 42.6279 377.498C42.7959 377.467 42.9119 377.401 43.0345 377.287C43.183 377.233 43.324 377.222 43.4726 377.116C43.6234 376.971 43.8287 376.957 44.0217 376.965C44.3398 376.81 44.6887 376.593 44.771 376.216C44.8411 376.068 44.852 375.972 44.9134 375.816C44.8934 375.643 45.0093 375.576 45.0844 375.423C45.0807 375.289 45.2545 375.147 45.2773 375.03C45.2755 374.866 45.5382 374.764 45.3912 374.591C45.46 374.411 45.4633 374.192 45.4817 373.989C45.6164 373.902 45.5856 373.65 45.7611 373.571C45.81 373.431 45.9095 373.293 45.9603 373.158C46.1024 373.15 46.1353 372.911 46.1777 372.819C46.3105 372.712 46.2828 372.528 46.383 372.383C46.4508 372.231 46.5692 372.11 46.5864 371.96C46.5411 371.85 46.5453 371.727 46.5434 371.538C46.4872 371.417 46.2843 371.332 46.3409 371.162C46.486 371.04 46.281 370.827 46.3725 370.688C46.3904 370.558 46.5183 370.417 46.4895 370.259C46.553 370.098 46.61 369.944 46.6233 369.803C46.6546 369.641 46.8541 369.646 46.9707 369.538C47.1742 369.529 47.2636 369.32 47.3648 369.196C47.5609 369.136 47.6376 368.98 47.7072 368.804C47.725 368.772 47.87 368.621 47.9351 368.479C47.9647 368.361 48.1002 368.206 48.0593 368.082C48.0414 367.946 48.1421 367.776 48.1073 367.628C48.1351 367.413 48.2061 367.21 48.266 367.003C48.2706 366.809 48.388 366.641 48.4637 366.484C48.5038 366.35 48.6469 366.208 48.6326 366.123C48.6732 366.093 48.8056 366.048 48.8432 365.85C48.9673 365.707 49.0041 365.489 48.9996 365.3C48.9184 365.146 48.8273 365.012 48.639 364.975C48.4414 364.923 48.1927 364.808 47.9963 364.943C47.7962 364.981 47.5798 364.995 47.3777 365.007C47.2349 365.005 47.0422 364.995 46.881 364.959C46.7293 364.956 46.5624 364.881 46.4378 364.989C46.2672 364.991 46.1017 364.938 45.9323 364.981C45.8011 364.811 45.5426 364.87 45.3605 364.788C45.2088 364.842 45.0818 364.987 44.9083 364.981C44.6907 365.064 44.485 364.911 44.2672 364.915C43.9491 364.81 43.5914 364.741 43.259 364.655C43.0556 364.607 42.8148 364.59 42.6487 364.44C42.4177 364.392 42.1654 364.288 41.9253 364.236C41.6779 364.07 41.771 364.107 41.5846 363.979C41.4804 363.786 41.5048 363.561 41.4715 363.359C41.3751 363.043 41.2375 362.743 41.0791 362.452C40.9495 362.336 40.9321 362.118 40.7777 362.015C40.6926 361.842 40.6569 361.69 40.4914 361.569C40.1725 361.315 40.0076 360.906 39.6481 360.703C39.3024 360.477 39.1519 360.044 38.8807 359.744C38.5583 359.301 38.2554 358.831 37.8829 358.435C37.6924 358.279 37.4612 358.082 37.1981 358C36.9768 357.817 36.7651 357.633 36.5262 357.49C36.1953 357.2 35.7466 357.075 35.3211 357.031C35.1976 357.039 35.0691 357.04 34.9516 357ZM14.9363 417.014C14.6556 417.2 14.6135 417.231 14.9134 417.03L14.9363 417.014ZM8.93968 385.451C8.73813 385.505 8.56954 385.663 8.35503 385.665C8.57739 385.72 8.76959 385.502 8.98813 385.469L8.95142 385.455L8.93968 385.451ZM9.37898 385.661C9.19278 385.678 9.02923 385.794 8.82986 385.752C8.70189 385.773 8.36085 385.764 8.36951 385.782C8.59811 385.804 8.83052 385.781 9.0592 385.77C9.10481 385.878 9.47119 385.88 9.42581 385.727C9.42169 385.686 9.43654 385.66 9.37898 385.661ZM6.43959 387.07C6.15323 387.084 6.31641 387.266 6.52191 387.164C6.68885 387.145 6.55982 387.034 6.43959 387.07ZM0.417106 387.315C0.301019 387.428 0.0684525 387.403 0 387.489C0.076845 387.72 0.331473 387.517 0.440275 387.427C0.457505 387.395 0.41174 387.351 0.417106 387.315ZM4.08485 392.297C3.88821 392.457 4.14668 392.659 4.3149 392.53C4.45866 392.507 4.14267 392.273 4.08485 392.297ZM5.22669 396.35C5.16614 396.456 5.62949 396.602 5.27676 396.362L5.2386 396.353L5.22669 396.35ZM4.21567 397.226C4.03759 397.392 4.16976 397.587 4.31419 397.3C4.3541 397.23 4.24847 397.241 4.21567 397.226ZM2.83803 400.552C2.7705 400.65 2.41198 400.784 2.6433 400.882C2.72007 400.925 3.08 400.599 2.83803 400.552ZM14.3565 416.769C14.2532 416.826 14.0714 417.198 14.3323 417.081C14.4394 417.029 14.4879 416.843 14.3565 416.769ZM15.613 416.927C15.5253 417.024 15.4224 417.339 15.5484 417.118C15.5477 417.042 15.676 417.013 15.613 416.927ZM13.0387 417.312C12.89 417.455 13.1344 417.818 13.1146 417.496C13.109 417.436 13.1177 417.324 13.0387 417.312ZM5.65306 417.7C5.166 417.979 4.70979 418.349 4.15914 418.503C3.96832 418.596 3.72539 418.666 3.68593 418.915C3.59931 419.1 4.03611 418.931 4.15405 418.901C4.65528 418.774 5.05892 418.446 5.49317 418.183C5.61689 418.075 6.09093 418.061 5.89131 417.864C5.83234 417.781 5.76921 417.682 5.65306 417.7ZM8.80564 417.936C8.5004 418.008 8.16205 418.048 7.8366 418.046C7.80187 418.168 8.20872 418.099 8.34807 418.083C8.50778 418.07 8.68105 418.05 8.80564 417.936Z" fill="#005EA2"/>
</svg>
