<svg width="2048" height="184" viewBox="0 0 2048 184" fill="none" xmlns="http://www.w3.org/2000/svg">
<path fill-rule="evenodd" clip-rule="evenodd" d="M0 31H86C170 31 342 31 512 46C682 61 854 92 1024 97C1194 102 1366 82 1536 61C1706 41 1878 20 1962 10L2048 0V184H1962C1878 184 1706 184 1536 184C1366 184 1194 184 1024 184C854 184 682 184 512 184C342 184 170 184 86 184H0V31Z" fill="#97D4E9"/>
<path fill-rule="evenodd" clip-rule="evenodd" d="M0 77L85.3333 80.3061C170.667 83.6123 341.333 90.2245 512 96.8368C682.667 103.449 853.333 110.061 1024 123.286C1194.67 136.51 1365.33 146.335 1536 146.335C1706.67 146.335 1877.33 126.498 1962.67 116.58L2048 106.661V184H1962.67C1877.33 184 1706.67 184 1536 184C1365.33 184 1194.67 184 1024 184C853.333 184 682.667 184 512 184C341.333 184 170.667 184 85.3333 184H0V77Z" fill="#E1F3F8"/>
</svg>
